{
copyright = "Copyright (c) 2015, Cadson Demak (info@cadsondemak.com)";
customParameters = (
{
name = vendorID;
value = CDK;
},
{
name = description;
value = "Copyright (c) 2015, Cadson Demak (info@cadsondemak.com)";
},
{
name = license;

glyphs = (
{
glyphname = A;
lastChange = "2015-08-02 14:20:20 +0000";
layers = (
{
layerId = "645D555E-8173-41F2-AA70-2E5F00C66FC5";
name = Light;
paths = (
{
closed = 1;
nodes = (
"231 0 LINE",
"231 45 LINE",
"173 45 LINE",
"232 209 LINE",
"492 209 LINE",
"551 45 LINE",
"493 45 LINE",
"493 0 LINE",
"679 0 LINE",
"679 45 LINE",
"644 45 LINE SMOOTH",
"619 45 OFFCURVE",
"599 56 OFFCURVE",
"590 81 CURVE SMOOTH",
"387 647 LINE",
"338 647 LINE",
"134 81 LINE SMOOTH",
"125 56 OFFCURVE",
"105 45 OFFCURVE",
"80 45 CURVE SMOOTH",
"45 45 LINE",
"45 0 LINE"
);
},
{
closed = 1;
nodes = (
"362 572 LINE",
"476 254 LINE",
"248 254 LINE"
);
}
);
width = 724;
}
);
leftKerningGroup = A;
note = A;
rightKerningGroup = A;
unicode = 0041;
},
{
glyphname = Aacute;
lastChange = "2015-08-02 14:20:19 +0000";
layers = (
{
layerId = "645D555E-8173-41F2-AA70-2E5F00C66FC5";
name = Light;
paths = (
{
closed = 1;
nodes = (
"231 0 LINE",
"231 45 LINE",
"173 45 LINE",
"232 209 LINE",
"492 209 LINE",
"551 45 LINE",
"493 45 LINE",
"493 0 LINE",
"679 0 LINE",
"679 45 LINE",
"644 45 LINE SMOOTH",
"619 45 OFFCURVE",
"599 56 OFFCURVE",
"590 81 CURVE SMOOTH",
"387 647 LINE",
"338 647 LINE",
"134 81 LINE SMOOTH",
"125 56 OFFCURVE",
"105 45 OFFCURVE",
"80 45 CURVE SMOOTH",
"45 45 LINE",
"45 0 LINE"
);
},
{
closed = 1;
nodes = (
"362 572 LINE",
"476 254 LINE",
"248 254 LINE"
);
},
{
closed = 1;
nodes = (
"392 703 LINE",
"508 881 LINE",
"429 881 LINE",
"344 703 LINE"
);
}
);
width = 724;
}
);
leftKerningGroup = A;
note = Aacute;
rightKerningGroup = A;
unicode = 00C1;
},
{
glyphname = Abreve;
lastChange = "2015-08-02 14:20:20 +0000";
layers = (
{
layerId = "645D555E-8173-41F2-AA70-2E5F00C66FC5";
name = Light;
paths = (
{
closed = 1;
nodes = (
"231 0 LINE",
"231 45 LINE",
"173 45 LINE",
"232 209 LINE",
"492 209 LINE",
"551 45 LINE",
"493 45 LINE",
"493 0 LINE",
"679 0 LINE",
"679 45 LINE",
"644 45 LINE SMOOTH",
"619 45 OFFCURVE",
"599 56 OFFCURVE",
"590 81 CURVE SMOOTH",
"387 647 LINE",
"338 647 LINE",
"134 81 LINE SMOOTH",
"125 56 OFFCURVE",
"105 45 OFFCURVE",
"80 45 CURVE SMOOTH",
"45 45 LINE",
"45 0 LINE"
);
},
{
closed = 1;
nodes = (
"362 572 LINE",
"476 254 LINE",
"248 254 LINE"
);
},
{
closed = 1;
nodes = (
"442 703 OFFCURVE",
"502 753 OFFCURVE",
"502 833 CURVE",
"459 833 LINE",
"459 776 OFFCURVE",
"419 746 OFFCURVE",
"362 746 CURVE SMOOTH",
"305 746 OFFCURVE",
"265 776 OFFCURVE",
"265 833 CURVE",
"222 833 LINE",
"222 753 OFFCURVE",
"282 703 OFFCURVE",
"362 703 CURVE SMOOTH"
);
}
);
width = 724;
}
);
leftKerningGroup = A;
note = Abreve;
rightKerningGroup = A;
unicode = 0102;
},
{
glyphname = Abreveacute;
lastChange = "2015-08-02 14:20:20 +0000";
layers = (
{
layerId = "645D555E-8173-41F2-AA70-2E5F00C66FC5";
name = Light;
paths = (
{
closed = 1;
nodes = (
"231 0 LINE",
"231 45 LINE",
"173 45 LINE",
"232 209 LINE",
"492 209 LINE",
"551 45 LINE",
"493 45 LINE",
"493 0 LINE",
"679 0 LINE",
"679 45 LINE",
"644 45 LINE SMOOTH",
"619 45 OFFCURVE",
"599 56 OFFCURVE",
"590 81 CURVE SMOOTH",
"387 647 LINE",
"338 647 LINE",
"134 81 LINE SMOOTH",
"125 56 OFFCURVE",
"105 45 OFFCURVE",
"80 45 CURVE SMOOTH",
"45 45 LINE",
"45 0 LINE"
);
},
{
closed = 1;
nodes = (
"362 572 LINE",
"476 254 LINE",
"248 254 LINE"
);
},
{
closed = 1;
nodes = (
"442 703 OFFCURVE",
"502 753 OFFCURVE",
"502 833 CURVE",
"459 833 LINE",
"459 776 OFFCURVE",
"419 746 OFFCURVE",
"362 746 CURVE SMOOTH",
"305 746 OFFCURVE",
"265 776 OFFCURVE",
"265 833 CURVE",
"222 833 LINE",
"222 753 OFFCURVE",
"282 703 OFFCURVE",
"362 703 CURVE SMOOTH"
);
},
{
closed = 1;
nodes = (
"368 832 LINE",
"474 980 LINE",
"395 980 LINE",
"320 832 LINE"
);
}
);
width = 724;
}
);
leftKerningGroup = A;
note = Abreveacute;
rightKerningGroup = A;
unicode = 1EAE;
},
{
glyphname = Abrevedotbelow;
lastChange = "2015-08-02 14:20:20 +0000";
layers = (
{
layerId = "645D555E-8173-41F2-AA70-2E5F00C66FC5";
name = Light;
paths = (
{
closed = 1;
nodes = (
"231 0 LINE",
"231 45 LINE",
"173 45 LINE",
"232 209 LINE",
"492 209 LINE",
"551 45 LINE",
"493 45 LINE",
"493 0 LINE",
"679 0 LINE",
"679 45 LINE",
"644 45 LINE SMOOTH",
"619 45 OFFCURVE",
"599 56 OFFCURVE",
"590 81 CURVE SMOOTH",
"387 647 LINE",
"338 647 LINE",
"134 81 LINE SMOOTH",
"125 56 OFFCURVE",
"105 45 OFFCURVE",
"80 45 CURVE SMOOTH",
"45 45 LINE",
"45 0 LINE"
);
},
{
closed = 1;
nodes = (
"396 -132 LINE",
"396 -64 LINE",
"328 -64 LINE",
"328 -132 LINE"
);
},
{
closed = 1;
nodes = (
"362 572 LINE",
"476 254 LINE",
"248 254 LINE"
);
},
{
closed = 1;
nodes = (
"442 703 OFFCURVE",
"502 753 OFFCURVE",
"502 833 CURVE",
"459 833 LINE",
"459 776 OFFCURVE",
"419 746 OFFCURVE",
"362 746 CURVE SMOOTH",
"305 746 OFFCURVE",
"265 776 OFFCURVE",
"265 833 CURVE",
"222 833 LINE",
"222 753 OFFCURVE",
"282 703 OFFCURVE",
"362 703 CURVE SMOOTH"
);
}
);
width = 724;
}
);
leftKerningGroup = A;
note = Abrevedotbelow;
rightKerningGroup = A;
unicode = 1EB6;
},
{
glyphname = Abrevegrave;
lastChange = "2015-08-02 14:20:19 +0000";
layers = (
{
layerId = "645D555E-8173-41F2-AA70-2E5F00C66FC5";
name = Light;
paths = (
{
closed = 1;
nodes = (
"231 0 LINE",
"231 45 LINE",
"173 45 LINE",
"232 209 LINE",
"492 209 LINE",
"551 45 LINE",
"493 45 LINE",
"493 0 LINE",
"679 0 LINE",
"679 45 LINE",
"644 45 LINE SMOOTH",
"619 45 OFFCURVE",
"599 56 OFFCURVE",
"590 81 CURVE SMOOTH",
"387 647 LINE",
"338 647 LINE",
"134 81 LINE SMOOTH",
"125 56 OFFCURVE",
"105 45 OFFCURVE",
"80 45 CURVE SMOOTH",
"45 45 LINE",
"45 0 LINE"
);
},
{
closed = 1;
nodes = (
"362 572 LINE",
"476 254 LINE",
"248 254 LINE"
);
},
{
closed = 1;
nodes = (
"442 703 OFFCURVE",
"502 753 OFFCURVE",
"502 833 CURVE",
"459 833 LINE",
"459 776 OFFCURVE",
"419 746 OFFCURVE",
"362 746 CURVE SMOOTH",
"305 746 OFFCURVE",
"265 776 OFFCURVE",
"265 833 CURVE",
"222 833 LINE",
"222 753 OFFCURVE",
"282 703 OFFCURVE",
"362 703 CURVE SMOOTH"
);
},
{
closed = 1;
nodes = (
"409 832 LINE",
"334 980 LINE",
"255 980 LINE",
"361 832 LINE"
);
}
);
width = 724;
}
);
leftKerningGroup = A;
note = Abrevegrave;
rightKerningGroup = A;
unicode = 1EB0;
},
{
glyphname = Abrevehookabove;
lastChange = "2015-08-02 14:20:19 +0000";
layers = (
{
layerId = "645D555E-8173-41F2-AA70-2E5F00C66FC5";
name = Light;
paths = (
{
closed = 1;
nodes = (
"231 0 LINE",
"231 45 LINE",
"173 45 LINE",
"232 209 LINE",
"492 209 LINE",
"551 45 LINE",
"493 45 LINE",
"493 0 LINE",
"679 0 LINE",
"679 45 LINE",
"644 45 LINE SMOOTH",
"619 45 OFFCURVE",
"599 56 OFFCURVE",
"590 81 CURVE SMOOTH",
"387 647 LINE",
"338 647 LINE",
"134 81 LINE SMOOTH",
"125 56 OFFCURVE",
"105 45 OFFCURVE",
"80 45 CURVE SMOOTH",
"45 45 LINE",
"45 0 LINE"
);
},
{
closed = 1;
nodes = (
"362 572 LINE",
"476 254 LINE",
"248 254 LINE"
);
},
{
closed = 1;
nodes = (
"443 703 OFFCURVE",
"503 753 OFFCURVE",
"503 833 CURVE",
"460 833 LINE",
"460 776 OFFCURVE",
"420 746 OFFCURVE",
"363 746 CURVE SMOOTH",
"306 746 OFFCURVE",
"266 776 OFFCURVE",
"266 833 CURVE",
"223 833 LINE",
"223 753 OFFCURVE",
"283 703 OFFCURVE",
"363 703 CURVE SMOOTH"
);
},
{
closed = 1;
nodes = (
"375 824 LINE",
"375 848 LINE",
"425 854 OFFCURVE",
"446 873 OFFCURVE",
"446 915 CURVE SMOOTH",
"446 958 OFFCURVE",
"423 987 OFFCURVE",
"370 987 CURVE SMOOTH",
"350 987 OFFCURVE",
"328 983 OFFCURVE",
"315 978 CURVE",
"315 937 LINE",
"328 941 OFFCURVE",
"345 945 OFFCURVE",
"363 945 CURVE SMOOTH",
"386 945 OFFCURVE",
"403 937 OFFCURVE",
"403 915 CURVE SMOOTH",
"403 884 OFFCURVE",
"388 876 OFFCURVE",
"331 876 CURVE",
"331 824 LINE"
);
}
);
width = 724;
}
);
leftKerningGroup = A;
note = Abrevehookabove;
rightKerningGroup = A;
unicode = 1EB2;
},
{
glyphname = Abrevetilde;
lastChange = "2015-08-02 14:20:19 +0000";
layers = (
{
layerId = "645D555E-8173-41F2-AA70-2E5F00C66FC5";
name = Light;
paths = (
{
closed = 1;
nodes = (
"231 0 LINE",
"231 45 LINE",
"173 45 LINE",
"232 209 LINE",
"492 209 LINE",
"551 45 LINE",
"493 45 LINE",
"493 0 LINE",
"679 0 LINE",
"679 45 LINE",
"644 45 LINE SMOOTH",
"619 45 OFFCURVE",
"599 56 OFFCURVE",
"590 81 CURVE SMOOTH",
"387 647 LINE",
"338 647 LINE",
"134 81 LINE SMOOTH",
"125 56 OFFCURVE",
"105 45 OFFCURVE",
"80 45 CURVE SMOOTH",
"45 45 LINE",
"45 0 LINE"
);
},
{
closed = 1;
nodes = (
"362 572 LINE",
"476 254 LINE",
"248 254 LINE"
);
},
{
closed = 1;
nodes = (
"443 703 OFFCURVE",
"503 753 OFFCURVE",
"503 833 CURVE",
"460 833 LINE",
"460 776 OFFCURVE",
"420 746 OFFCURVE",
"363 746 CURVE SMOOTH",
"306 746 OFFCURVE",
"266 776 OFFCURVE",
"266 833 CURVE",
"223 833 LINE",
"223 753 OFFCURVE",
"283 703 OFFCURVE",
"363 703 CURVE SMOOTH"
);
},
{
closed = 1;
nodes = (
"266 875 LINE",
"266 906 OFFCURVE",
"272 924 OFFCURVE",
"296 924 CURVE SMOOTH",
"336 924 OFFCURVE",
"376 875 OFFCURVE",
"428 875 CURVE SMOOTH",
"476 875 OFFCURVE",
"505 896 OFFCURVE",
"505 970 CURVE",
"458 970 LINE",
"458 939 OFFCURVE",
"452 921 OFFCURVE",
"428 921 CURVE SMOOTH",
"389 921 OFFCURVE",
"347 970 OFFCURVE",
"296 970 CURVE SMOOTH",
"248 970 OFFCURVE",
"219 949 OFFCURVE",
"219 875 CURVE"
);
}
);
width = 724;
}
);
leftKerningGroup = A;
note = Abrevetilde;
rightKerningGroup = A;
unicode = 1EB4;
},
{
glyphname = Acaron;
lastChange = "2015-08-02 14:20:20 +0000";
layers = (
{
layerId = "645D555E-8173-41F2-AA70-2E5F00C66FC5";
name = Light;
paths = (
{
closed = 1;
nodes = (
"231 0 LINE",
"231 45 LINE",
"173 45 LINE",
"232 209 LINE",
"492 209 LINE",
"551 45 LINE",
"493 45 LINE",
"493 0 LINE",
"679 0 LINE",
"679 45 LINE",
"644 45 LINE SMOOTH",
"619 45 OFFCURVE",
"599 56 OFFCURVE",
"590 81 CURVE SMOOTH",
"387 647 LINE",
"338 647 LINE",
"134 81 LINE SMOOTH",
"125 56 OFFCURVE",
"105 45 OFFCURVE",
"80 45 CURVE SMOOTH",
"45 45 LINE",
"45 0 LINE"
);
},
{
closed = 1;
nodes = (
"362 572 LINE",
"476 254 LINE",
"248 254 LINE"
);
},
{
closed = 1;
nodes = (
"397 703 LINE",
"512 881 LINE",
"454 881 LINE",
"362 742 LINE",
"271 881 LINE",
"213 881 LINE",
"328 703 LINE"
);
}
);
width = 724;
}
);
leftKerningGroup = A;
note = Acaron;
rightKerningGroup = A;
unicode = 01CD;
},
{
glyphname = Acircumflex;
lastChange = "2015-08-02 14:20:19 +0000";
layers = (
{
layerId = "645D555E-8173-41F2-AA70-2E5F00C66FC5";
name = Light;
paths = (
{
closed = 1;
nodes = (
"231 0 LINE",
"231 45 LINE",
"173 45 LINE",
"232 209 LINE",
"492 209 LINE",
"551 45 LINE",
"493 45 LINE",
"493 0 LINE",
"679 0 LINE",
"679 45 LINE",
"644 45 LINE SMOOTH",
"619 45 OFFCURVE",
"599 56 OFFCURVE",
"590 81 CURVE SMOOTH",
"387 647 LINE",
"338 647 LINE",
"134 81 LINE SMOOTH",
"125 56 OFFCURVE",
"105 45 OFFCURVE",
"80 45 CURVE SMOOTH",
"45 45 LINE",
"45 0 LINE"
);
},
{
closed = 1;
nodes = (
"362 572 LINE",
"476 254 LINE",
"248 254 LINE"
);
},
{
closed = 1;
nodes = (
"271 703 LINE",
"362 842 LINE",
"454 703 LINE",
"512 703 LINE",
"397 881 LINE",
"328 881 LINE",
"213 703 LINE"
);
}
);
width = 724;
}
);
leftKerningGroup = A;
note = Acircumflex;
rightKerningGroup = A;
unicode = 00C2;
},
{
glyphname = Acircumflexacute;
lastChange = "2015-08-02 14:20:20 +0000";
layers = (
{
layerId = "645D555E-8173-41F2-AA70-2E5F00C66FC5";
name = Light;
paths = (
{
closed = 1;
nodes = (
"231 0 LINE",
"231 45 LINE",
"173 45 LINE",
"232 209 LINE",
"492 209 LINE",
"551 45 LINE",
"493 45 LINE",
"493 0 LINE",
"679 0 LINE",
"679 45 LINE",
"644 45 LINE SMOOTH",
"619 45 OFFCURVE",
"599 56 OFFCURVE",
"590 81 CURVE SMOOTH",
"387 647 LINE",
"338 647 LINE",
"134 81 LINE SMOOTH",
"125 56 OFFCURVE",
"105 45 OFFCURVE",
"80 45 CURVE SMOOTH",
"45 45 LINE",
"45 0 LINE"
);
},
{
closed = 1;
nodes = (
"362 572 LINE",
"476 254 LINE",
"248 254 LINE"
);
},
{
closed = 1;
nodes = (
"286 703 LINE",
"362 802 LINE",
"439 703 LINE",
"497 703 LINE",
"397 831 LINE",
"328 831 LINE",
"228 703 LINE"
);
},
{
closed = 1;
nodes = (
"500 808 LINE",
"594 923 LINE",
"515 923 LINE",
"452 808 LINE"
);
}
);
width = 724;
}
);
leftKerningGroup = A;
note = Acircumflexacute;
rightKerningGroup = A;
unicode = 1EA4;
},
{
glyphname = Acircumflexdotbelow;
lastChange = "2015-08-02 14:20:20 +0000";
layers = (
{
layerId = "645D555E-8173-41F2-AA70-2E5F00C66FC5";
name = Light;
paths = (
{
closed = 1;
nodes = (
"231 0 LINE",
"231 45 LINE",
"173 45 LINE",
"232 209 LINE",
"492 209 LINE",
"551 45 LINE",
"493 45 LINE",
"493 0 LINE",
"679 0 LINE",
"679 45 LINE",
"644 45 LINE SMOOTH",
"619 45 OFFCURVE",
"599 56 OFFCURVE",
"590 81 CURVE SMOOTH",
"387 647 LINE",
"338 647 LINE",
"134 81 LINE SMOOTH",
"125 56 OFFCURVE",
"105 45 OFFCURVE",
"80 45 CURVE SMOOTH",
"45 45 LINE",
"45 0 LINE"
);
},
{
closed = 1;
nodes = (
"396 -132 LINE",
"396 -64 LINE",
"328 -64 LINE",
"328 -132 LINE"
);
},
{
closed = 1;
nodes = (
"362 572 LINE",
"476 254 LINE",
"248 254 LINE"
);
},
{
closed = 1;
nodes = (
"271 703 LINE",
"362 842 LINE",
"454 703 LINE",
"512 703 LINE",
"397 881 LINE",
"328 881 LINE",
"213 703 LINE"
);
}
);
width = 724;
}
);
leftKerningGroup = A;
note = Acircumflexdotbelow;
rightKerningGroup = A;
unicode = 1EAC;
},
{
glyphname = Acircumflexgrave;
lastChange = "2015-08-02 14:20:19 +0000";
layers = (
{
layerId = "645D555E-8173-41F2-AA70-2E5F00C66FC5";
name = Light;
paths = (
{
closed = 1;
nodes = (
"231 0 LINE",
"231 45 LINE",
"173 45 LINE",
"232 209 LINE",
"492 209 LINE",
"551 45 LINE",
"493 45 LINE",
"493 0 LINE",
"679 0 LINE",
"679 45 LINE",
"644 45 LINE SMOOTH",
"619 45 OFFCURVE",
"599 56 OFFCURVE",
"590 81 CURVE SMOOTH",
"387 647 LINE",
"338 647 LINE",
"134 81 LINE SMOOTH",
"125 56 OFFCURVE",
"105 45 OFFCURVE",
"80 45 CURVE SMOOTH",
"45 45 LINE",
"45 0 LINE"
);
},
{
closed = 1;
nodes = (
"362 572 LINE",
"476 254 LINE",
"248 254 LINE"
);
},
{
closed = 1;
nodes = (
"272 808 LINE",
"209 923 LINE",
"130 923 LINE",
"224 808 LINE"
);
},
{
closed = 1;
nodes = (
"285 703 LINE",
"362 802 LINE",
"438 703 LINE",
"496 703 LINE",
"396 831 LINE",
"327 831 LINE",
"227 703 LINE"
);
}
);
width = 724;
}
);
leftKerningGroup = A;
note = Acircumflexgrave;
rightKerningGroup = A;
unicode = 1EA6;
},
{
glyphname = Acircumflexhookabove;
lastChange = "2015-08-02 14:20:20 +0000";
layers = (
{
layerId = "645D555E-8173-41F2-AA70-2E5F00C66FC5";
name = Light;
paths = (
{
closed = 1;
nodes = (
"231 0 LINE",
"231 45 LINE",
"173 45 LINE",
"232 209 LINE",
"492 209 LINE",
"551 45 LINE",
"493 45 LINE",
"493 0 LINE",
"679 0 LINE",
"679 45 LINE",
"644 45 LINE SMOOTH",
"619 45 OFFCURVE",
"599 56 OFFCURVE",
"590 81 CURVE SMOOTH",
"387 647 LINE",
"338 647 LINE",
"134 81 LINE SMOOTH",
"125 56 OFFCURVE",
"105 45 OFFCURVE",
"80 45 CURVE SMOOTH",
"45 45 LINE",
"45 0 LINE"
);
},
{
closed = 1;
nodes = (
"362 572 LINE",
"476 254 LINE",
"248 254 LINE"
);
},
{
closed = 1;
nodes = (
"286 703 LINE",
"362 802 LINE",
"439 703 LINE",
"497 703 LINE",
"397 831 LINE",
"328 831 LINE",
"228 703 LINE"
);
},
{
closed = 1;
nodes = (
"476 817 LINE",
"476 841 LINE",
"526 847 OFFCURVE",
"547 866 OFFCURVE",
"547 908 CURVE SMOOTH",
"547 951 OFFCURVE",
"524 980 OFFCURVE",
"471 980 CURVE SMOOTH",
"451 980 OFFCURVE",
"429 976 OFFCURVE",
"416 971 CURVE",
"416 930 LINE",
"429 934 OFFCURVE",
"446 938 OFFCURVE",
"464 938 CURVE SMOOTH",
"487 938 OFFCURVE",
"504 930 OFFCURVE",
"504 908 CURVE SMOOTH",
"504 877 OFFCURVE",
"489 869 OFFCURVE",
"432 869 CURVE",
"432 817 LINE"
);
}
);
width = 724;
}
);
leftKerningGroup = A;
note = Acircumflexhookabove;
rightKerningGroup = A;
unicode = 1EA8;
},
{
glyphname = Acircumflextilde;
lastChange = "2015-08-02 14:20:19 +0000";
layers = (
{
layerId = "645D555E-8173-41F2-AA70-2E5F00C66FC5";
name = Light;
paths = (
{
closed = 1;
nodes = (
"231 0 LINE",
"231 45 LINE",
"173 45 LINE",
"232 209 LINE",
"492 209 LINE",
"551 45 LINE",
"493 45 LINE",
"493 0 LINE",
"679 0 LINE",
"679 45 LINE",
"644 45 LINE SMOOTH",
"619 45 OFFCURVE",
"599 56 OFFCURVE",
"590 81 CURVE SMOOTH",
"387 647 LINE",
"338 647 LINE",
"134 81 LINE SMOOTH",
"125 56 OFFCURVE",
"105 45 OFFCURVE",
"80 45 CURVE SMOOTH",
"45 45 LINE",
"45 0 LINE"
);
},
{
closed = 1;
nodes = (
"362 572 LINE",
"476 254 LINE",
"248 254 LINE"
);
},
{
closed = 1;
nodes = (
"285 703 LINE",
"361 802 LINE",
"438 703 LINE",
"496 703 LINE",
"396 831 LINE",
"327 831 LINE",
"227 703 LINE"
);
},
{
closed = 1;
nodes = (
"266 853 LINE",
"266 884 OFFCURVE",
"272 902 OFFCURVE",
"296 902 CURVE SMOOTH",
"336 902 OFFCURVE",
"376 853 OFFCURVE",
"428 853 CURVE SMOOTH",
"476 853 OFFCURVE",
"505 874 OFFCURVE",
"505 948 CURVE",
"458 948 LINE",
"458 917 OFFCURVE",
"452 899 OFFCURVE",
"428 899 CURVE SMOOTH",
"389 899 OFFCURVE",
"347 948 OFFCURVE",
"296 948 CURVE SMOOTH",
"248 948 OFFCURVE",
"219 927 OFFCURVE",
"219 853 CURVE"
);
}
);
width = 724;
}
);
leftKerningGroup = A;
note = Acircumflextilde;
rightKerningGroup = A;
unicode = 1EAA;
},
{
glyphname = Adieresis;
lastChange = "2015-08-02 14:20:19 +0000";
layers = (
{
layerId = "645D555E-8173-41F2-AA70-2E5F00C66FC5";
name = Light;
paths = (
{
closed = 1;
nodes = (
"231 0 LINE",
"231 45 LINE",
"173 45 LINE",
"232 209 LINE",
"492 209 LINE",
"551 45 LINE",
"493 45 LINE",
"493 0 LINE",
"679 0 LINE",
"679 45 LINE",
"644 45 LINE SMOOTH",
"619 45 OFFCURVE",
"599 56 OFFCURVE",
"590 81 CURVE SMOOTH",
"387 647 LINE",
"338 647 LINE",
"134 81 LINE SMOOTH",
"125 56 OFFCURVE",
"105 45 OFFCURVE",
"80 45 CURVE SMOOTH",
"45 45 LINE",
"45 0 LINE"
);
},
{
closed = 1;
nodes = (
"362 572 LINE",
"476 254 LINE",
"248 254 LINE"
);
},
{
closed = 1;
nodes = (
"302 723 LINE",
"302 791 LINE",
"234 791 LINE",
"234 723 LINE"
);
},
{
closed = 1;
nodes = (
"491 723 LINE",
"491 791 LINE",
"423 791 LINE",
"423 723 LINE"
);
}
);
width = 724;
}
);
leftKerningGroup = A;
note = Adieresis;
rightKerningGroup = A;
unicode = 00C4;
},
{
glyphname = Adotbelow;
lastChange = "2015-08-02 14:20:20 +0000";
layers = (
{
layerId = "645D555E-8173-41F2-AA70-2E5F00C66FC5";
name = Light;
paths = (
{
closed = 1;
nodes = (
"231 0 LINE",
"231 45 LINE",
"173 45 LINE",
"232 209 LINE",
"492 209 LINE",
"551 45 LINE",
"493 45 LINE",
"493 0 LINE",
"679 0 LINE",
"679 45 LINE",
"644 45 LINE SMOOTH",
"619 45 OFFCURVE",
"599 56 OFFCURVE",
"590 81 CURVE SMOOTH",
"387 647 LINE",
"338 647 LINE",
"134 81 LINE SMOOTH",
"125 56 OFFCURVE",
"105 45 OFFCURVE",
"80 45 CURVE SMOOTH",
"45 45 LINE",
"45 0 LINE"
);
},
{
closed = 1;
nodes = (
"396 -132 LINE",
"396 -64 LINE",
"328 -64 LINE",
"328 -132 LINE"
);
},
{
closed = 1;
nodes = (
"362 572 LINE",
"476 254 LINE",
"248 254 LINE"
);
}
);
width = 724;
}
);
leftKerningGroup = A;
note = Adotbelow;
rightKerningGroup = A;
unicode = 1EA0;
},
{
glyphname = Agrave;
lastChange = "2015-08-02 14:20:19 +0000";
layers = (
{
layerId = "645D555E-8173-41F2-AA70-2E5F00C66FC5";
name = Light;
paths = (
{
closed = 1;
nodes = (
"231 0 LINE",
"231 45 LINE",
"173 45 LINE",
"232 209 LINE",
"492 209 LINE",
"551 45 LINE",
"493 45 LINE",
"493 0 LINE",
"679 0 LINE",
"679 45 LINE",
"644 45 LINE SMOOTH",
"619 45 OFFCURVE",
"599 56 OFFCURVE",
"590 81 CURVE SMOOTH",
"387 647 LINE",
"338 647 LINE",
"134 81 LINE SMOOTH",
"125 56 OFFCURVE",
"105 45 OFFCURVE",
"80 45 CURVE SMOOTH",
"45 45 LINE",
"45 0 LINE"
);
},
{
closed = 1;
nodes = (
"362 572 LINE",
"476 254 LINE",
"248 254 LINE"
);
},
{
closed = 1;
nodes = (
"392 703 LINE",
"307 881 LINE",
"228 881 LINE",
"344 703 LINE"
);
}
);
width = 724;
}
);
leftKerningGroup = A;
note = Agrave;
rightKerningGroup = A;
unicode = 00C0;
},
{
glyphname = Ahookabove;
lastChange = "2015-08-02 14:20:19 +0000";
layers = (
{
layerId = "645D555E-8173-41F2-AA70-2E5F00C66FC5";
name = Light;
paths = (
{
closed = 1;
nodes = (
"231 0 LINE",
"231 45 LINE",
"173 45 LINE",
"232 209 LINE",
"492 209 LINE",
"551 45 LINE",
"493 45 LINE",
"493 0 LINE",
"679 0 LINE",
"679 45 LINE",
"644 45 LINE SMOOTH",
"619 45 OFFCURVE",
"599 56 OFFCURVE",
"590 81 CURVE SMOOTH",
"387 647 LINE",
"338 647 LINE",
"134 81 LINE SMOOTH",
"125 56 OFFCURVE",
"105 45 OFFCURVE",
"80 45 CURVE SMOOTH",
"45 45 LINE",
"45 0 LINE"
);
},
{
closed = 1;
nodes = (
"362 572 LINE",
"476 254 LINE",
"248 254 LINE"
);
},
{
closed = 1;
nodes = (
"379 703 LINE",
"379 741 LINE",
"425 751 OFFCURVE",
"450 777 OFFCURVE",
"450 819 CURVE SMOOTH",
"450 880 OFFCURVE",
"410 901 OFFCURVE",
"349 901 CURVE SMOOTH",
"329 901 OFFCURVE",
"307 897 OFFCURVE",
"294 892 CURVE",
"294 851 LINE",
"307 855 OFFCURVE",
"324 859 OFFCURVE",
"342 859 CURVE SMOOTH",
"387 859 OFFCURVE",
"407 851 OFFCURVE",
"407 819 CURVE SMOOTH",
"407 788 OFFCURVE",
"392 769 OFFCURVE",
"335 769 CURVE",
"335 703 LINE"
);
}
);
width = 724;
}
);
leftKerningGroup = A;
note = Ahookabove;
rightKerningGroup = A;
unicode = 1EA2;
},
{
glyphname = Amacron;
lastChange = "2015-08-02 14:20:19 +0000";
layers = (
{
layerId = "645D555E-8173-41F2-AA70-2E5F00C66FC5";
name = Light;
paths = (
{
closed = 1;
nodes = (
"231 0 LINE",
"231 45 LINE",
"173 45 LINE",
"232 209 LINE",
"492 209 LINE",
"551 45 LINE",
"493 45 LINE",
"493 0 LINE",
"679 0 LINE",
"679 45 LINE",
"644 45 LINE SMOOTH",
"619 45 OFFCURVE",
"599 56 OFFCURVE",
"590 81 CURVE SMOOTH",
"387 647 LINE",
"338 647 LINE",
"134 81 LINE SMOOTH",
"125 56 OFFCURVE",
"105 45 OFFCURVE",
"80 45 CURVE SMOOTH",
"45 45 LINE",
"45 0 LINE"
);
},
{
closed = 1;
nodes = (
"362 572 LINE",
"476 254 LINE",
"248 254 LINE"
);
},
{
closed = 1;
nodes = (
"498 723 LINE",
"498 768 LINE",
"227 768 LINE",
"227 723 LINE"
);
}
);
width = 724;
}
);
leftKerningGroup = A;
note = Amacron;
rightKerningGroup = A;
unicode = 0100;
},
{
glyphname = Aogonek;
lastChange = "2015-08-02 14:20:19 +0000";
layers = (
{
layerId = "645D555E-8173-41F2-AA70-2E5F00C66FC5";
name = Light;
paths = (
{
closed = 1;
nodes = (
"231 0 LINE",
"231 45 LINE",
"173 45 LINE",
"232 209 LINE",
"492 209 LINE",
"551 45 LINE",
"493 45 LINE",
"493 0 LINE",
"679 0 LINE",
"679 45 LINE",
"644 45 LINE SMOOTH",
"619 45 OFFCURVE",
"599 56 OFFCURVE",
"590 81 CURVE SMOOTH",
"387 647 LINE",
"338 647 LINE",
"134 81 LINE SMOOTH",
"125 56 OFFCURVE",
"105 45 OFFCURVE",
"80 45 CURVE SMOOTH",
"45 45 LINE",
"45 0 LINE"
);
},
{
closed = 1;
nodes = (
"634 -201 OFFCURVE",
"649 -198 OFFCURVE",
"663 -191 CURVE",
"663 -154 LINE",
"646 -159 OFFCURVE",
"629 -161 OFFCURVE",
"614 -161 CURVE SMOOTH",
"585 -161 OFFCURVE",
"571 -146 OFFCURVE",
"571 -106 CURVE SMOOTH",
"571 -65 OFFCURVE",
"589 -30 OFFCURVE",
"622 0 CURVE",
"577 0 LINE",
"546 -30 OFFCURVE",
"528 -64 OFFCURVE",
"528 -106 CURVE SMOOTH",
"528 -170 OFFCURVE",
"562 -201 OFFCURVE",
"614 -201 CURVE SMOOTH"
);
},
{
closed = 1;
nodes = (
"362 572 LINE",
"476 254 LINE",
"248 254 LINE"
);
}
);
width = 724;
}
);
leftKerningGroup = A;
note = Aogonek;
rightKerningGroup = A;
unicode = 0104;
},
{
glyphname = Aring;
lastChange = "2015-08-02 14:20:20 +0000";
layers = (
{
layerId = "645D555E-8173-41F2-AA70-2E5F00C66FC5";
name = Light;
paths = (
{
closed = 1;
nodes = (
"231 0 LINE",
"231 45 LINE",
"173 45 LINE",
"232 209 LINE",
"492 209 LINE",
"551 45 LINE",
"493 45 LINE",
"493 0 LINE",
"679 0 LINE",
"679 45 LINE",
"644 45 LINE SMOOTH",
"619 45 OFFCURVE",
"599 56 OFFCURVE",
"590 81 CURVE SMOOTH",
"387 647 LINE",
"338 647 LINE",
"134 81 LINE SMOOTH",
"125 56 OFFCURVE",
"105 45 OFFCURVE",
"80 45 CURVE SMOOTH",
"45 45 LINE",
"45 0 LINE"
);
},
{
closed = 1;
nodes = (
"362 572 LINE",
"476 254 LINE",
"248 254 LINE"
);
},
{
closed = 1;
nodes = (
"422 604 OFFCURVE",
"470 651 OFFCURVE",
"470 711 CURVE SMOOTH",
"470 771 OFFCURVE",
"422 819 OFFCURVE",
"362 819 CURVE SMOOTH",
"302 819 OFFCURVE",
"255 771 OFFCURVE",
"255 711 CURVE SMOOTH",
"255 651 OFFCURVE",
"302 604 OFFCURVE",
"362 604 CURVE SMOOTH"
);
},
{
closed = 1;
nodes = (
"325 647 OFFCURVE",
"298 674 OFFCURVE",
"298 711 CURVE SMOOTH",
"298 748 OFFCURVE",
"325 776 OFFCURVE",
"362 776 CURVE SMOOTH",
"399 776 OFFCURVE",
"427 748 OFFCURVE",
"427 711 CURVE SMOOTH",
"427 674 OFFCURVE",
"399 647 OFFCURVE",
"362 647 CURVE SMOOTH"
);
}
);
width = 724;
}
);
leftKerningGroup = A;
note = Aring;
rightKerningGroup = A;
unicode = 00C5;
},
{
glyphname = Aringacute;
lastChange = "2015-08-02 14:20:20 +0000";
layers = (
{
layerId = "645D555E-8173-41F2-AA70-2E5F00C66FC5";
name = Light;
paths = (
{
closed = 1;
nodes = (
"231 0 LINE",
"231 45 LINE",
"173 45 LINE",
"232 209 LINE",
"492 209 LINE",
"551 45 LINE",
"493 45 LINE",
"493 0 LINE",
"679 0 LINE",
"679 45 LINE",
"644 45 LINE SMOOTH",
"619 45 OFFCURVE",
"599 56 OFFCURVE",
"590 81 CURVE SMOOTH",
"387 647 LINE",
"338 647 LINE",
"134 81 LINE SMOOTH",
"125 56 OFFCURVE",
"105 45 OFFCURVE",
"80 45 CURVE SMOOTH",
"45 45 LINE",
"45 0 LINE"
);
},
{
closed = 1;
nodes = (
"362 572 LINE",
"476 254 LINE",
"248 254 LINE"
);
},
{
closed = 1;
nodes = (
"422 604 OFFCURVE",
"470 651 OFFCURVE",
"470 711 CURVE SMOOTH",
"470 771 OFFCURVE",
"422 819 OFFCURVE",
"362 819 CURVE SMOOTH",
"302 819 OFFCURVE",
"255 771 OFFCURVE",
"255 711 CURVE SMOOTH",
"255 651 OFFCURVE",
"302 604 OFFCURVE",
"362 604 CURVE SMOOTH"
);
},
{
closed = 1;
nodes = (
"325 647 OFFCURVE",
"298 674 OFFCURVE",
"298 711 CURVE SMOOTH",
"298 748 OFFCURVE",
"325 776 OFFCURVE",
"362 776 CURVE SMOOTH",
"399 776 OFFCURVE",
"427 748 OFFCURVE",
"427 711 CURVE SMOOTH",
"427 674 OFFCURVE",
"399 647 OFFCURVE",
"362 647 CURVE SMOOTH"
);
},
{
closed = 1;
nodes = (
"378 845 LINE",
"494 1023 LINE",
"415 1023 LINE",
"330 845 LINE"
);
}
);
width = 724;
}
);
leftKerningGroup = A;
note = Aringacute;
rightKerningGroup = A;
unicode = 01FA;
},
{
glyphname = Atilde;
lastChange = "2015-08-02 14:20:20 +0000";
layers = (
{
layerId = "645D555E-8173-41F2-AA70-2E5F00C66FC5";
name = Light;
paths = (
{
closed = 1;
nodes = (
"231 0 LINE",
"231 45 LINE",
"173 45 LINE",
"232 209 LINE",
"492 209 LINE",
"551 45 LINE",
"493 45 LINE",
"493 0 LINE",
"679 0 LINE",
"679 45 LINE",
"644 45 LINE SMOOTH",
"619 45 OFFCURVE",
"599 56 OFFCURVE",
"590 81 CURVE SMOOTH",
"387 647 LINE",
"338 647 LINE",
"134 81 LINE SMOOTH",
"125 56 OFFCURVE",
"105 45 OFFCURVE",
"80 45 CURVE SMOOTH",
"45 45 LINE",
"45 0 LINE"
);
},
{
closed = 1;
nodes = (
"362 572 LINE",
"476 254 LINE",
"248 254 LINE"
);
},
{
closed = 1;
nodes = (
"234 703 LINE",
"234 752 OFFCURVE",
"250 762 OFFCURVE",
"279 762 CURVE SMOOTH",
"339 762 OFFCURVE",
"380 703 OFFCURVE",
"446 703 CURVE SMOOTH",
"504 703 OFFCURVE",
"538 734 OFFCURVE",
"538 808 CURVE",
"491 808 LINE",
"491 759 OFFCURVE",
"475 749 OFFCURVE",
"446 749 CURVE SMOOTH",
"393 749 OFFCURVE",
"350 808 OFFCURVE",
"279 808 CURVE SMOOTH",
"221 808 OFFCURVE",
"187 777 OFFCURVE",
"187 703 CURVE"
);
}
);
width = 724;
}
);
leftKerningGroup = A;
note = Atilde;
rightKerningGroup = A;
unicode = 00C3;
},
{
glyphname = AE;
lastChange = "2015-08-02 14:20:19 +0000";
layers = (
{
layerId = "645D555E-8173-41F2-AA70-2E5F00C66FC5";
name = Light;
paths = (
{
closed = 1;
nodes = (
"231 0 LINE",
"231 45 LINE",
"173 45 LINE",
"237 209 LINE",
"431 209 LINE",
"431 81 LINE SMOOTH",
"431 56 OFFCURVE",
"424 45 OFFCURVE",
"393 45 CURVE SMOOTH",
"362 45 LINE",
"362 0 LINE",
"805 0 LINE",
"805 104 LINE",
"757 104 LINE",
"757 79 LINE SMOOTH",
"757 54 OFFCURVE",
"748 45 OFFCURVE",
"721 45 CURVE SMOOTH",
"484 45 LINE",
"484 302 LINE",
"685 302 LINE",
"685 347 LINE",
"484 347 LINE",
"484 602 LINE",
"721 602 LINE SMOOTH",
"748 602 OFFCURVE",
"757 593 OFFCURVE",
"757 568 CURVE SMOOTH",
"757 544 LINE",
"805 544 LINE",
"805 647 LINE",
"358 647 LINE",
"134 81 LINE SMOOTH",
"125 56 OFFCURVE",
"105 45 OFFCURVE",
"80 45 CURVE SMOOTH",
"45 45 LINE",
"45 0 LINE"
);
},
{
closed = 1;
nodes = (
"392 602 LINE",
"431 602 LINE",
"431 254 LINE",
"255 254 LINE"
);
}
);
width = 850;
}
);
leftKerningGroup = A;
note = AE;
rightKerningGroup = E;
unicode = 00C6;
},
{
glyphname = AEacute;
lastChange = "2015-08-02 14:20:19 +0000";
layers = (
{
layerId = "645D555E-8173-41F2-AA70-2E5F00C66FC5";
name = Light;
paths = (
{
closed = 1;
nodes = (
"231 0 LINE",
"231 45 LINE",
"173 45 LINE",
"237 209 LINE",
"431 209 LINE",
"431 81 LINE SMOOTH",
"431 56 OFFCURVE",
"424 45 OFFCURVE",
"393 45 CURVE SMOOTH",
"362 45 LINE",
"362 0 LINE",
"805 0 LINE",
"805 104 LINE",
"757 104 LINE",
"757 79 LINE SMOOTH",
"757 54 OFFCURVE",
"748 45 OFFCURVE",
"721 45 CURVE SMOOTH",
"484 45 LINE",
"484 302 LINE",
"685 302 LINE",
"685 347 LINE",
"484 347 LINE",
"484 602 LINE",
"721 602 LINE SMOOTH",
"748 602 OFFCURVE",
"757 593 OFFCURVE",
"757 568 CURVE SMOOTH",
"757 544 LINE",
"805 544 LINE",
"805 647 LINE",
"358 647 LINE",
"134 81 LINE SMOOTH",
"125 56 OFFCURVE",
"105 45 OFFCURVE",
"80 45 CURVE SMOOTH",
"45 45 LINE",
"45 0 LINE"
);
},
{
closed = 1;
nodes = (
"392 602 LINE",
"431 602 LINE",
"431 254 LINE",
"255 254 LINE"
);
},
{
closed = 1;
nodes = (
"545 703 LINE",
"661 881 LINE",
"582 881 LINE",
"497 703 LINE"
);
}
);
width = 850;
}
);
leftKerningGroup = A;
note = AEacute;
rightKerningGroup = E;
unicode = 01FC;
},
{
glyphname = B;
lastChange = "2015-08-02 14:20:19 +0000";
layers = (
{
layerId = "645D555E-8173-41F2-AA70-2E5F00C66FC5";
name = Light;
paths = (
{
closed = 1;
nodes = (
"368 0 LINE SMOOTH",
"479 0 OFFCURVE",
"530 84 OFFCURVE",
"530 175 CURVE SMOOTH",
"530 247 OFFCURVE",
"500 310 OFFCURVE",
"429 329 CURVE",
"491 354 OFFCURVE",
"518 412 OFFCURVE",
"518 479 CURVE SMOOTH",
"518 580 OFFCURVE",
"464 647 OFFCURVE",
"345 647 CURVE SMOOTH",
"45 647 LINE",
"45 602 LINE",
"80 602 LINE SMOOTH",
"105 602 OFFCURVE",
"114 593 OFFCURVE",
"114 566 CURVE SMOOTH",
"114 81 LINE SMOOTH",
"114 54 OFFCURVE",
"105 45 OFFCURVE",
"80 45 CURVE SMOOTH",
"45 45 LINE",
"45 0 LINE"
);
},
{
closed = 1;
nodes = (
"167 304 LINE",
"340 304 LINE SMOOTH",
"444 304 OFFCURVE",
"479 262 OFFCURVE",
"479 176 CURVE SMOOTH",
"479 88 OFFCURVE",
"437 45 OFFCURVE",
"364 45 CURVE SMOOTH",
"167 45 LINE"
);
},
{
closed = 1;
nodes = (
"167 602 LINE",
"341 602 LINE SMOOTH",
"435 602 OFFCURVE",
"467 565 OFFCURVE",
"467 479 CURVE SMOOTH",
"467 399 OFFCURVE",
"423 349 OFFCURVE",
"331 349 CURVE SMOOTH",
"167 349 LINE"
);
}
);
width = 575;
}
);
note = B;
unicode = 0042;
},
{
glyphname = C;
lastChange = "2015-08-02 14:20:19 +0000";
layers = (
{
layerId = "645D555E-8173-41F2-AA70-2E5F00C66FC5";
name = Light;
paths = (
{
closed = 1;
nodes = (
"429 -15 OFFCURVE",
"489 -4 OFFCURVE",
"540 27 CURVE",
"516 66 LINE",
"473 41 OFFCURVE",
"423 31 OFFCURVE",
"359 31 CURVE SMOOTH",
"207 31 OFFCURVE",
"96 140 OFFCURVE",
"96 321 CURVE SMOOTH",
"96 506 OFFCURVE",
"194 616 OFFCURVE",
"353 616 CURVE SMOOTH",
"414 616 OFFCURVE",
"461 607 OFFCURVE",
"497 588 CURVE",
"497 533 LINE",
"550 533 LINE",
"550 611 LINE",
"504 644 OFFCURVE",
"438 662 OFFCURVE",
"353 662 CURVE SMOOTH",
"145 662 OFFCURVE",
"45 515 OFFCURVE",
"45 321 CURVE SMOOTH",
"45 127 OFFCURVE",
"158 -15 OFFCURVE",
"359 -15 CURVE SMOOTH"
);
}
);
width = 595;
}
);
leftKerningGroup = C;
note = C;
unicode = 0043;
},
{
glyphname = Cacute;
lastChange = "2015-08-02 14:20:19 +0000";
layers = (
{
layerId = "645D555E-8173-41F2-AA70-2E5F00C66FC5";
name = Light;
paths = (
{
closed = 1;
nodes = (
"429 -15 OFFCURVE",
"489 -4 OFFCURVE",
"540 27 CURVE",
"516 66 LINE",
"473 41 OFFCURVE",
"423 31 OFFCURVE",
"359 31 CURVE SMOOTH",
"207 31 OFFCURVE",
"96 140 OFFCURVE",
"96 321 CURVE SMOOTH",
"96 506 OFFCURVE",
"194 616 OFFCURVE",
"353 616 CURVE SMOOTH",
"414 616 OFFCURVE",
"461 607 OFFCURVE",
"497 588 CURVE",
"497 533 LINE",
"550 533 LINE",
"550 611 LINE",
"504 644 OFFCURVE",
"438 662 OFFCURVE",
"353 662 CURVE SMOOTH",
"145 662 OFFCURVE",
"45 515 OFFCURVE",
"45 321 CURVE SMOOTH",
"45 127 OFFCURVE",
"158 -15 OFFCURVE",
"359 -15 CURVE SMOOTH"
);
},
{
closed = 1;
nodes = (
"356 703 LINE",
"472 881 LINE",
"393 881 LINE",
"308 703 LINE"
);
}
);
width = 595;
}
);
leftKerningGroup = C;
note = Cacute;
unicode = 0106;
},
{
glyphname = Ccaron;
lastChange = "2015-08-02 14:20:19 +0000";
layers = (
{
layerId = "645D555E-8173-41F2-AA70-2E5F00C66FC5";
name = Light;
paths = (
{
closed = 1;
nodes = (
"429 -15 OFFCURVE",
"489 -4 OFFCURVE",
"540 27 CURVE",
"516 66 LINE",
"473 41 OFFCURVE",
"423 31 OFFCURVE",
"359 31 CURVE SMOOTH",
"207 31 OFFCURVE",
"96 140 OFFCURVE",
"96 321 CURVE SMOOTH",
"96 506 OFFCURVE",
"194 616 OFFCURVE",
"353 616 CURVE SMOOTH",
"414 616 OFFCURVE",
"461 607 OFFCURVE",
"497 588 CURVE",
"497 533 LINE",
"550 533 LINE",
"550 611 LINE",
"504 644 OFFCURVE",
"438 662 OFFCURVE",
"353 662 CURVE SMOOTH",
"145 662 OFFCURVE",
"45 515 OFFCURVE",
"45 321 CURVE SMOOTH",
"45 127 OFFCURVE",
"158 -15 OFFCURVE",
"359 -15 CURVE SMOOTH"
);
},
{
closed = 1;
nodes = (
"385 703 LINE",
"500 881 LINE",
"442 881 LINE",
"350 742 LINE",
"259 881 LINE",
"201 881 LINE",
"316 703 LINE"
);
}
);
width = 595;
}
);
leftKerningGroup = C;
note = Ccaron;
unicode = 010C;
},
{
glyphname = Ccedilla;
lastChange = "2015-08-02 14:20:19 +0000";
layers = (
{
layerId = "645D555E-8173-41F2-AA70-2E5F00C66FC5";
name = Light;
paths = (
{
closed = 1;
nodes = (
"429 -15 OFFCURVE",
"489 -4 OFFCURVE",
"540 27 CURVE",
"516 66 LINE",
"473 41 OFFCURVE",
"423 31 OFFCURVE",
"359 31 CURVE SMOOTH",
"207 31 OFFCURVE",
"96 140 OFFCURVE",
"96 321 CURVE SMOOTH",
"96 506 OFFCURVE",
"194 616 OFFCURVE",
"353 616 CURVE SMOOTH",
"414 616 OFFCURVE",
"461 607 OFFCURVE",
"497 588 CURVE",
"497 533 LINE",
"550 533 LINE",
"550 611 LINE",
"504 644 OFFCURVE",
"438 662 OFFCURVE",
"353 662 CURVE SMOOTH",
"145 662 OFFCURVE",
"45 515 OFFCURVE",
"45 321 CURVE SMOOTH",
"45 127 OFFCURVE",
"158 -15 OFFCURVE",
"359 -15 CURVE SMOOTH"
);
},
{
closed = 1;
nodes = (
"409 -228 OFFCURVE",
"452 -198 OFFCURVE",
"452 -139 CURVE SMOOTH",
"452 -94 OFFCURVE",
"432 -62 OFFCURVE",
"367 -53 CURVE",
"375 0 LINE",
"330 0 LINE",
"317 -86 LINE",
"394 -86 OFFCURVE",
"409 -101 OFFCURVE",
"409 -141 CURVE SMOOTH",
"409 -174 OFFCURVE",
"383 -188 OFFCURVE",
"335 -188 CURVE SMOOTH",
"311 -188 OFFCURVE",
"293 -183 OFFCURVE",
"282 -180 CURVE",
"282 -219 LINE",
"298 -224 OFFCURVE",
"317 -228 OFFCURVE",
"336 -228 CURVE SMOOTH"
);
}
);
width = 595;
}
);
leftKerningGroup = C;
note = Ccedilla;
unicode = 00C7;
},
{
glyphname = Ccircumflex;
lastChange = "2015-08-02 14:20:19 +0000";
layers = (
{
layerId = "645D555E-8173-41F2-AA70-2E5F00C66FC5";
name = Light;
paths = (
{
closed = 1;
nodes = (
"429 -15 OFFCURVE",
"489 -4 OFFCURVE",
"540 27 CURVE",
"516 66 LINE",
"473 41 OFFCURVE",
"423 31 OFFCURVE",
"359 31 CURVE SMOOTH",
"207 31 OFFCURVE",
"96 140 OFFCURVE",
"96 321 CURVE SMOOTH",
"96 506 OFFCURVE",
"194 616 OFFCURVE",
"353 616 CURVE SMOOTH",
"414 616 OFFCURVE",
"461 607 OFFCURVE",
"497 588 CURVE",
"497 533 LINE",
"550 533 LINE",
"550 611 LINE",
"504 644 OFFCURVE",
"438 662 OFFCURVE",
"353 662 CURVE SMOOTH",
"145 662 OFFCURVE",
"45 515 OFFCURVE",
"45 321 CURVE SMOOTH",
"45 127 OFFCURVE",
"158 -15 OFFCURVE",
"359 -15 CURVE SMOOTH"
);
},
{
closed = 1;
nodes = (
"264 703 LINE",
"355 842 LINE",
"447 703 LINE",
"505 703 LINE",
"390 881 LINE",
"321 881 LINE",
"206 703 LINE"
);
}
);
width = 595;
}
);
leftKerningGroup = C;
note = Ccircumflex;
unicode = 0108;
},
{
glyphname = Cdotaccent;
lastChange = "2015-08-02 14:20:19 +0000";
layers = (
{
layerId = "645D555E-8173-41F2-AA70-2E5F00C66FC5";
name = Light;
paths = (
{
closed = 1;
nodes = (
"429 -15 OFFCURVE",
"489 -4 OFFCURVE",
"540 27 CURVE",
"516 66 LINE",
"473 41 OFFCURVE",
"423 31 OFFCURVE",
"359 31 CURVE SMOOTH",
"207 31 OFFCURVE",
"96 140 OFFCURVE",
"96 321 CURVE SMOOTH",
"96 506 OFFCURVE",
"194 616 OFFCURVE",
"353 616 CURVE SMOOTH",
"414 616 OFFCURVE",
"461 607 OFFCURVE",
"497 588 CURVE",
"497 533 LINE",
"550 533 LINE",
"550 611 LINE",
"504 644 OFFCURVE",
"438 662 OFFCURVE",
"353 662 CURVE SMOOTH",
"145 662 OFFCURVE",
"45 515 OFFCURVE",
"45 321 CURVE SMOOTH",
"45 127 OFFCURVE",
"158 -15 OFFCURVE",
"359 -15 CURVE SMOOTH"
);
},
{
closed = 1;
nodes = (
"395 723 LINE",
"395 791 LINE",
"327 791 LINE",
"327 723 LINE"
);
}
);
width = 595;
}
);
leftKerningGroup = C;
note = Cdotaccent;
unicode = 010A;
},
{
glyphname = D;
lastChange = "2015-08-02 14:20:19 +0000";
layers = (
{
layerId = "645D555E-8173-41F2-AA70-2E5F00C66FC5";
name = Light;
paths = (
{
closed = 1;
nodes = (
"309 0 LINE SMOOTH",
"490 0 OFFCURVE",
"575 127 OFFCURVE",
"575 321 CURVE SMOOTH",
"575 515 OFFCURVE",
"497 647 OFFCURVE",
"309 647 CURVE SMOOTH",
"45 647 LINE",
"45 604 LINE",
"70 604 LINE SMOOTH",
"95 604 OFFCURVE",
"104 595 OFFCURVE",
"104 568 CURVE SMOOTH",
"104 79 LINE SMOOTH",
"104 52 OFFCURVE",
"95 43 OFFCURVE",
"70 43 CURVE SMOOTH",
"45 43 LINE",
"45 0 LINE"
);
},
{
closed = 1;
nodes = (
"157 604 LINE",
"304 604 LINE SMOOTH",
"461 604 OFFCURVE",
"524 506 OFFCURVE",
"524 321 CURVE SMOOTH",
"524 140 OFFCURVE",
"459 43 OFFCURVE",
"304 43 CURVE SMOOTH",
"157 43 LINE"
);
}
);
width = 620;
}
);
note = D;
rightKerningGroup = D;
unicode = 0044;
},
{
glyphname = Eth;
lastChange = "2015-08-02 14:20:19 +0000";
layers = (
{
layerId = "645D555E-8173-41F2-AA70-2E5F00C66FC5";
name = Light;
paths = (
{
closed = 1;
nodes = (
"309 0 LINE SMOOTH",
"490 0 OFFCURVE",
"575 127 OFFCURVE",
"575 321 CURVE SMOOTH",
"575 515 OFFCURVE",
"497 647 OFFCURVE",
"309 647 CURVE SMOOTH",
"45 647 LINE",
"45 604 LINE",
"70 604 LINE SMOOTH",
"95 604 OFFCURVE",
"104 595 OFFCURVE",
"104 568 CURVE SMOOTH",
"104 347 LINE",
"45 347 LINE",
"45 302 LINE",
"104 302 LINE",
"104 79 LINE SMOOTH",
"104 52 OFFCURVE",
"95 43 OFFCURVE",
"70 43 CURVE SMOOTH",
"45 43 LINE",
"45 0 LINE"
);
},
{
closed = 1;
nodes = (
"157 302 LINE",
"316 302 LINE",
"316 347 LINE",
"157 347 LINE",
"157 604 LINE",
"304 604 LINE SMOOTH",
"461 604 OFFCURVE",
"524 506 OFFCURVE",
"524 321 CURVE SMOOTH",
"524 140 OFFCURVE",
"459 43 OFFCURVE",
"304 43 CURVE SMOOTH",
"157 43 LINE"
);
}
);
width = 620;
}
);
note = Eth;
rightKerningGroup = D;
unicode = 00D0;
},
{
glyphname = Dcaron;
lastChange = "2015-08-02 14:20:20 +0000";
layers = (
{
layerId = "645D555E-8173-41F2-AA70-2E5F00C66FC5";
name = Light;
paths = (
{
closed = 1;
nodes = (
"309 0 LINE SMOOTH",
"490 0 OFFCURVE",
"575 127 OFFCURVE",
"575 321 CURVE SMOOTH",
"575 515 OFFCURVE",
"497 647 OFFCURVE",
"309 647 CURVE SMOOTH",
"45 647 LINE",
"45 604 LINE",
"70 604 LINE SMOOTH",
"95 604 OFFCURVE",
"104 595 OFFCURVE",
"104 568 CURVE SMOOTH",
"104 79 LINE SMOOTH",
"104 52 OFFCURVE",
"95 43 OFFCURVE",
"70 43 CURVE SMOOTH",
"45 43 LINE",
"45 0 LINE"
);
},
{
closed = 1;
nodes = (
"157 604 LINE",
"304 604 LINE SMOOTH",
"461 604 OFFCURVE",
"524 506 OFFCURVE",
"524 321 CURVE SMOOTH",
"524 140 OFFCURVE",
"459 43 OFFCURVE",
"304 43 CURVE SMOOTH",
"157 43 LINE"
);
},
{
closed = 1;
nodes = (
"324 703 LINE",
"439 881 LINE",
"381 881 LINE",
"289 742 LINE",
"198 881 LINE",
"140 881 LINE",
"255 703 LINE"
);
}
);
width = 620;
}
);
note = Dcaron;
rightKerningGroup = D;
unicode = 010E;
},
{
glyphname = Dcroat;
lastChange = "2015-08-02 14:20:19 +0000";
layers = (
{
layerId = "645D555E-8173-41F2-AA70-2E5F00C66FC5";
name = Light;
paths = (
{
closed = 1;
nodes = (
"309 0 LINE SMOOTH",
"490 0 OFFCURVE",
"575 127 OFFCURVE",
"575 321 CURVE SMOOTH",
"575 515 OFFCURVE",
"497 647 OFFCURVE",
"309 647 CURVE SMOOTH",
"45 647 LINE",
"45 604 LINE",
"70 604 LINE SMOOTH",
"95 604 OFFCURVE",
"104 595 OFFCURVE",
"104 568 CURVE SMOOTH",
"104 347 LINE",
"45 347 LINE",
"45 302 LINE",
"104 302 LINE",
"104 79 LINE SMOOTH",
"104 52 OFFCURVE",
"95 43 OFFCURVE",
"70 43 CURVE SMOOTH",
"45 43 LINE",
"45 0 LINE"
);
},
{
closed = 1;
nodes = (
"157 302 LINE",
"316 302 LINE",
"316 347 LINE",
"157 347 LINE",
"157 604 LINE",
"304 604 LINE SMOOTH",
"461 604 OFFCURVE",
"524 506 OFFCURVE",
"524 321 CURVE SMOOTH",
"524 140 OFFCURVE",
"459 43 OFFCURVE",
"304 43 CURVE SMOOTH",
"157 43 LINE"
);
}
);
width = 620;
}
);
note = Dcroat;
rightKerningGroup = D;
unicode = 0110;
},
{
glyphname = Ddotbelow;
lastChange = "2015-08-02 14:20:19 +0000";
layers = (
{
layerId = "645D555E-8173-41F2-AA70-2E5F00C66FC5";
name = Light;
paths = (
{
closed = 1;
nodes = (
"309 0 LINE SMOOTH",
"490 0 OFFCURVE",
"575 127 OFFCURVE",
"575 321 CURVE SMOOTH",
"575 515 OFFCURVE",
"497 647 OFFCURVE",
"309 647 CURVE SMOOTH",
"45 647 LINE",
"45 604 LINE",
"70 604 LINE SMOOTH",
"95 604 OFFCURVE",
"104 595 OFFCURVE",
"104 568 CURVE SMOOTH",
"104 79 LINE SMOOTH",
"104 52 OFFCURVE",
"95 43 OFFCURVE",
"70 43 CURVE SMOOTH",
"45 43 LINE",
"45 0 LINE"
);
},
{
closed = 1;
nodes = (
"304 -132 LINE",
"304 -64 LINE",
"236 -64 LINE",
"236 -132 LINE"
);
},
{
closed = 1;
nodes = (
"157 604 LINE",
"304 604 LINE SMOOTH",
"461 604 OFFCURVE",
"524 506 OFFCURVE",
"524 321 CURVE SMOOTH",
"524 140 OFFCURVE",
"459 43 OFFCURVE",
"304 43 CURVE SMOOTH",
"157 43 LINE"
);
}
);
width = 620;
}
);
note = Ddotbelow;
rightKerningGroup = D;
unicode = 1E0C;
},
{
glyphname = Dlinebelow;
lastChange = "2015-08-02 14:20:19 +0000";
layers = (
{
layerId = "645D555E-8173-41F2-AA70-2E5F00C66FC5";
name = Light;
paths = (
{
closed = 1;
nodes = (
"309 0 LINE SMOOTH",
"490 0 OFFCURVE",
"575 127 OFFCURVE",
"575 321 CURVE SMOOTH",
"575 515 OFFCURVE",
"497 647 OFFCURVE",
"309 647 CURVE SMOOTH",
"45 647 LINE",
"45 604 LINE",
"70 604 LINE SMOOTH",
"95 604 OFFCURVE",
"104 595 OFFCURVE",
"104 568 CURVE SMOOTH",
"104 79 LINE SMOOTH",
"104 52 OFFCURVE",
"95 43 OFFCURVE",
"70 43 CURVE SMOOTH",
"45 43 LINE",
"45 0 LINE"
);
},
{
closed = 1;
nodes = (
"412 -121 LINE",
"412 -76 LINE",
"141 -76 LINE",
"141 -121 LINE"
);
},
{
closed = 1;
nodes = (
"157 604 LINE",
"304 604 LINE SMOOTH",
"461 604 OFFCURVE",
"524 506 OFFCURVE",
"524 321 CURVE SMOOTH",
"524 140 OFFCURVE",
"459 43 OFFCURVE",
"304 43 CURVE SMOOTH",
"157 43 LINE"
);
}
);
width = 620;
}
);
note = Dlinebelow;
rightKerningGroup = D;
unicode = 1E0E;
},
{
glyphname = E;
lastChange = "2015-08-02 14:20:20 +0000";
layers = (
{
layerId = "645D555E-8173-41F2-AA70-2E5F00C66FC5";
name = Light;
paths = (
{
closed = 1;
nodes = (
"498 0 LINE",
"498 104 LINE",
"450 104 LINE",
"450 79 LINE SMOOTH",
"450 54 OFFCURVE",
"441 45 OFFCURVE",
"414 45 CURVE SMOOTH",
"167 45 LINE",
"167 302 LINE",
"378 302 LINE",
"378 347 LINE",
"167 347 LINE",
"167 602 LINE",
"414 602 LINE SMOOTH",
"441 602 OFFCURVE",
"450 593 OFFCURVE",
"450 568 CURVE SMOOTH",
"450 544 LINE",
"498 544 LINE",
"498 647 LINE",
"45 647 LINE",
"45 602 LINE",
"80 602 LINE SMOOTH",
"105 602 OFFCURVE",
"114 593 OFFCURVE",
"114 566 CURVE SMOOTH",
"114 81 LINE SMOOTH",
"114 54 OFFCURVE",
"105 45 OFFCURVE",
"80 45 CURVE SMOOTH",
"45 45 LINE",
"45 0 LINE"
);
}
);
width = 543;
}
);
leftKerningGroup = E;
note = E;
rightKerningGroup = E;
unicode = 0045;
},
{
glyphname = Eacute;
lastChange = "2015-08-02 14:20:19 +0000";
layers = (
{
layerId = "645D555E-8173-41F2-AA70-2E5F00C66FC5";
name = Light;
paths = (
{
closed = 1;
nodes = (
"498 0 LINE",
"498 104 LINE",
"450 104 LINE",
"450 79 LINE SMOOTH",
"450 54 OFFCURVE",
"441 45 OFFCURVE",
"414 45 CURVE SMOOTH",
"167 45 LINE",
"167 302 LINE",
"378 302 LINE",
"378 347 LINE",
"167 347 LINE",
"167 602 LINE",
"414 602 LINE SMOOTH",
"441 602 OFFCURVE",
"450 593 OFFCURVE",
"450 568 CURVE SMOOTH",
"450 544 LINE",
"498 544 LINE",
"498 647 LINE",
"45 647 LINE",
"45 602 LINE",
"80 602 LINE SMOOTH",
"105 602 OFFCURVE",
"114 593 OFFCURVE",
"114 566 CURVE SMOOTH",
"114 81 LINE SMOOTH",
"114 54 OFFCURVE",
"105 45 OFFCURVE",
"80 45 CURVE SMOOTH",
"45 45 LINE",
"45 0 LINE"
);
},
{
closed = 1;
nodes = (
"292 703 LINE",
"408 881 LINE",
"329 881 LINE",
"244 703 LINE"
);
}
);
width = 543;
}
);
leftKerningGroup = E;
note = Eacute;
rightKerningGroup = E;
unicode = 00C9;
},
{
glyphname = Ebreve;
lastChange = "2015-08-02 14:20:20 +0000";
layers = (
{
layerId = "645D555E-8173-41F2-AA70-2E5F00C66FC5";
name = Light;
paths = (
{
closed = 1;
nodes = (
"498 0 LINE",
"498 104 LINE",
"450 104 LINE",
"450 79 LINE SMOOTH",
"450 54 OFFCURVE",
"441 45 OFFCURVE",
"414 45 CURVE SMOOTH",
"167 45 LINE",
"167 302 LINE",
"378 302 LINE",
"378 347 LINE",
"167 347 LINE",
"167 602 LINE",
"414 602 LINE SMOOTH",
"441 602 OFFCURVE",
"450 593 OFFCURVE",
"450 568 CURVE SMOOTH",
"450 544 LINE",
"498 544 LINE",
"498 647 LINE",
"45 647 LINE",
"45 602 LINE",
"80 602 LINE SMOOTH",
"105 602 OFFCURVE",
"114 593 OFFCURVE",
"114 566 CURVE SMOOTH",
"114 81 LINE SMOOTH",
"114 54 OFFCURVE",
"105 45 OFFCURVE",
"80 45 CURVE SMOOTH",
"45 45 LINE",
"45 0 LINE"
);
},
{
closed = 1;
nodes = (
"382 703 OFFCURVE",
"442 753 OFFCURVE",
"442 833 CURVE",
"399 833 LINE",
"399 776 OFFCURVE",
"359 746 OFFCURVE",
"302 746 CURVE SMOOTH",
"245 746 OFFCURVE",
"205 776 OFFCURVE",
"205 833 CURVE",
"162 833 LINE",
"162 753 OFFCURVE",
"222 703 OFFCURVE",
"302 703 CURVE SMOOTH"
);
}
);
width = 543;
}
);
leftKerningGroup = E;
note = Ebreve;
rightKerningGroup = E;
unicode = 0114;
},
{
glyphname = Ecaron;
lastChange = "2015-08-02 14:20:19 +0000";
layers = (
{
layerId = "645D555E-8173-41F2-AA70-2E5F00C66FC5";
name = Light;
paths = (
{
closed = 1;
nodes = (
"498 0 LINE",
"498 104 LINE",
"450 104 LINE",
"450 79 LINE SMOOTH",
"450 54 OFFCURVE",
"441 45 OFFCURVE",
"414 45 CURVE SMOOTH",
"167 45 LINE",
"167 302 LINE",
"378 302 LINE",
"378 347 LINE",
"167 347 LINE",
"167 602 LINE",
"414 602 LINE SMOOTH",
"441 602 OFFCURVE",
"450 593 OFFCURVE",
"450 568 CURVE SMOOTH",
"450 544 LINE",
"498 544 LINE",
"498 647 LINE",
"45 647 LINE",
"45 602 LINE",
"80 602 LINE SMOOTH",
"105 602 OFFCURVE",
"114 593 OFFCURVE",
"114 566 CURVE SMOOTH",
"114 81 LINE SMOOTH",
"114 54 OFFCURVE",
"105 45 OFFCURVE",
"80 45 CURVE SMOOTH",
"45 45 LINE",
"45 0 LINE"
);
},
{
closed = 1;
nodes = (
"327 703 LINE",
"442 881 LINE",
"384 881 LINE",
"292 742 LINE",
"201 881 LINE",
"143 881 LINE",
"258 703 LINE"
);
}
);
width = 543;
}
);
leftKerningGroup = E;
note = Ecaron;
rightKerningGroup = E;
unicode = 011A;
},
{
glyphname = Ecircumflex;
lastChange = "2015-08-02 14:20:20 +0000";
layers = (
{
layerId = "645D555E-8173-41F2-AA70-2E5F00C66FC5";
name = Light;
paths = (
{
closed = 1;
nodes = (
"498 0 LINE",
"498 104 LINE",
"450 104 LINE",
"450 79 LINE SMOOTH",
"450 54 OFFCURVE",
"441 45 OFFCURVE",
"414 45 CURVE SMOOTH",
"167 45 LINE",
"167 302 LINE",
"378 302 LINE",
"378 347 LINE",
"167 347 LINE",
"167 602 LINE",
"414 602 LINE SMOOTH",
"441 602 OFFCURVE",
"450 593 OFFCURVE",
"450 568 CURVE SMOOTH",
"450 544 LINE",
"498 544 LINE",
"498 647 LINE",
"45 647 LINE",
"45 602 LINE",
"80 602 LINE SMOOTH",
"105 602 OFFCURVE",
"114 593 OFFCURVE",
"114 566 CURVE SMOOTH",
"114 81 LINE SMOOTH",
"114 54 OFFCURVE",
"105 45 OFFCURVE",
"80 45 CURVE SMOOTH",
"45 45 LINE",
"45 0 LINE"
);
},
{
closed = 1;
nodes = (
"191 703 LINE",
"282 842 LINE",
"374 703 LINE",
"432 703 LINE",
"317 881 LINE",
"248 881 LINE",
"133 703 LINE"
);
}
);
width = 543;
}
);
leftKerningGroup = E;
note = Ecircumflex;
rightKerningGroup = E;
unicode = 00CA;
},
{
glyphname = Ecircumflexacute;
lastChange = "2015-11-23 14:03:35 +0000";
layers = (
{
layerId = "645D555E-8173-41F2-AA70-2E5F00C66FC5";
name = Light;
paths = (
{
closed = 1;
nodes = (
"498 0 LINE",
"498 104 LINE",
"450 104 LINE",
"450 79 LINE SMOOTH",
"450 54 OFFCURVE",
"441 45 OFFCURVE",
"414 45 CURVE SMOOTH",
"167 45 LINE",
"167 302 LINE",
"378 302 LINE",
"378 347 LINE",
"167 347 LINE",
"167 602 LINE",
"414 602 LINE SMOOTH",
"441 602 OFFCURVE",
"450 593 OFFCURVE",
"450 568 CURVE SMOOTH",
"450 544 LINE",
"498 544 LINE",
"498 647 LINE",
"45 647 LINE",
"45 602 LINE",
"80 602 LINE SMOOTH",
"105 602 OFFCURVE",
"114 593 OFFCURVE",
"114 566 CURVE SMOOTH",
"114 81 LINE SMOOTH",
"114 54 OFFCURVE",
"105 45 OFFCURVE",
"80 45 CURVE SMOOTH",
"45 45 LINE",
"45 0 LINE"
);
},
{
closed = 1;
nodes = (
"214 703 LINE",
"290 802 LINE",
"367 703 LINE",
"425 703 LINE",
"325 831 LINE",
"256 831 LINE",
"156 703 LINE"
);
},
{
closed = 1;
nodes = (
"428 808 LINE",
"522 923 LINE",
"443 923 LINE",
"380 808 LINE"
);
}
);
width = 543;
}
);
leftKerningGroup = E;
note = Ecircumflexacute;
rightKerningGroup = E;
unicode = 1EBE;
},
{
glyphname = Ecircumflexdotbelow;
lastChange = "2015-08-02 14:20:20 +0000";
layers = (
{
layerId = "645D555E-8173-41F2-AA70-2E5F00C66FC5";
name = Light;
paths = (
{
closed = 1;
nodes = (
"498 0 LINE",
"498 104 LINE",
"450 104 LINE",
"450 79 LINE SMOOTH",
"450 54 OFFCURVE",
"441 45 OFFCURVE",
"414 45 CURVE SMOOTH",
"167 45 LINE",
"167 302 LINE",
"378 302 LINE",
"378 347 LINE",
"167 347 LINE",
"167 602 LINE",
"414 602 LINE SMOOTH",
"441 602 OFFCURVE",
"450 593 OFFCURVE",
"450 568 CURVE SMOOTH",
"450 544 LINE",
"498 544 LINE",
"498 647 LINE",
"45 647 LINE",
"45 602 LINE",
"80 602 LINE SMOOTH",
"105 602 OFFCURVE",
"114 593 OFFCURVE",
"114 566 CURVE SMOOTH",
"114 81 LINE SMOOTH",
"114 54 OFFCURVE",
"105 45 OFFCURVE",
"80 45 CURVE SMOOTH",
"45 45 LINE",
"45 0 LINE"
);
},
{
closed = 1;
nodes = (
"316 -132 LINE",
"316 -64 LINE",
"248 -64 LINE",
"248 -132 LINE"
);
},
{
closed = 1;
nodes = (
"191 703 LINE",
"282 842 LINE",
"374 703 LINE",
"432 703 LINE",
"317 881 LINE",
"248 881 LINE",
"133 703 LINE"
);
}
);
width = 543;
}
);
leftKerningGroup = E;
note = Ecircumflexdotbelow;
rightKerningGroup = E;
unicode = 1EC6;
},
{
glyphname = Ecircumflexgrave;
lastChange = "2015-08-02 14:20:20 +0000";
layers = (
{
layerId = "645D555E-8173-41F2-AA70-2E5F00C66FC5";
name = Light;
paths = (
{
closed = 1;
nodes = (
"498 0 LINE",
"498 104 LINE",
"450 104 LINE",
"450 79 LINE SMOOTH",
"450 54 OFFCURVE",
"441 45 OFFCURVE",
"414 45 CURVE SMOOTH",
"167 45 LINE",
"167 302 LINE",
"378 302 LINE",
"378 347 LINE",
"167 347 LINE",
"167 602 LINE",
"414 602 LINE SMOOTH",
"441 602 OFFCURVE",
"450 593 OFFCURVE",
"450 568 CURVE SMOOTH",
"450 544 LINE",
"498 544 LINE",
"498 647 LINE",
"45 647 LINE",
"45 602 LINE",
"80 602 LINE SMOOTH",
"105 602 OFFCURVE",
"114 593 OFFCURVE",
"114 566 CURVE SMOOTH",
"114 81 LINE SMOOTH",
"114 54 OFFCURVE",
"105 45 OFFCURVE",
"80 45 CURVE SMOOTH",
"45 45 LINE",
"45 0 LINE"
);
},
{
closed = 1;
nodes = (
"209 808 LINE",
"146 923 LINE",
"67 923 LINE",
"161 808 LINE"
);
},
{
closed = 1;
nodes = (
"222 703 LINE",
"299 802 LINE",
"375 703 LINE",
"433 703 LINE",
"333 831 LINE",
"264 831 LINE",
"164 703 LINE"
);
}
);
width = 543;
}
);
leftKerningGroup = E;
note = Ecircumflexgrave;
rightKerningGroup = E;
unicode = 1EC0;
},
{
glyphname = Ecircumflexhookabove;
lastChange = "2015-08-02 14:20:20 +0000";
layers = (
{
layerId = "645D555E-8173-41F2-AA70-2E5F00C66FC5";
name = Light;
paths = (
{
closed = 1;
nodes = (
"498 0 LINE",
"498 104 LINE",
"450 104 LINE",
"450 79 LINE SMOOTH",
"450 54 OFFCURVE",
"441 45 OFFCURVE",
"414 45 CURVE SMOOTH",
"167 45 LINE",
"167 302 LINE",
"378 302 LINE",
"378 347 LINE",
"167 347 LINE",
"167 602 LINE",
"414 602 LINE SMOOTH",
"441 602 OFFCURVE",
"450 593 OFFCURVE",
"450 568 CURVE SMOOTH",
"450 544 LINE",
"498 544 LINE",
"498 647 LINE",
"45 647 LINE",
"45 602 LINE",
"80 602 LINE SMOOTH",
"105 602 OFFCURVE",
"114 593 OFFCURVE",
"114 566 CURVE SMOOTH",
"114 81 LINE SMOOTH",
"114 54 OFFCURVE",
"105 45 OFFCURVE",
"80 45 CURVE SMOOTH",
"45 45 LINE",
"45 0 LINE"
);
},
{
closed = 1;
nodes = (
"198 703 LINE",
"274 802 LINE",
"351 703 LINE",
"409 703 LINE",
"309 831 LINE",
"240 831 LINE",
"140 703 LINE"
);
},
{
closed = 1;
nodes = (
"388 817 LINE",
"388 841 LINE",
"438 847 OFFCURVE",
"459 866 OFFCURVE",
"459 908 CURVE SMOOTH",
"459 951 OFFCURVE",
"436 980 OFFCURVE",
"383 980 CURVE SMOOTH",
"363 980 OFFCURVE",
"341 976 OFFCURVE",
"328 971 CURVE",
"328 930 LINE",
"341 934 OFFCURVE",
"358 938 OFFCURVE",
"376 938 CURVE SMOOTH",
"399 938 OFFCURVE",
"416 930 OFFCURVE",
"416 908 CURVE SMOOTH",
"416 877 OFFCURVE",
"401 869 OFFCURVE",
"344 869 CURVE",
"344 817 LINE"
);
}
);
width = 543;
}
);
leftKerningGroup = E;
note = Ecircumflexhookabove;
rightKerningGroup = E;
unicode = 1EC2;
},
{
glyphname = Ecircumflextilde;
lastChange = "2015-08-02 14:20:20 +0000";
layers = (
{
layerId = "645D555E-8173-41F2-AA70-2E5F00C66FC5";
name = Light;
paths = (
{
closed = 1;
nodes = (
"498 0 LINE",
"498 104 LINE",
"450 104 LINE",
"450 79 LINE SMOOTH",
"450 54 OFFCURVE",
"441 45 OFFCURVE",
"414 45 CURVE SMOOTH",
"167 45 LINE",
"167 302 LINE",
"378 302 LINE",
"378 347 LINE",
"167 347 LINE",
"167 602 LINE",
"414 602 LINE SMOOTH",
"441 602 OFFCURVE",
"450 593 OFFCURVE",
"450 568 CURVE SMOOTH",
"450 544 LINE",
"498 544 LINE",
"498 647 LINE",
"45 647 LINE",
"45 602 LINE",
"80 602 LINE SMOOTH",
"105 602 OFFCURVE",
"114 593 OFFCURVE",
"114 566 CURVE SMOOTH",
"114 81 LINE SMOOTH",
"114 54 OFFCURVE",
"105 45 OFFCURVE",
"80 45 CURVE SMOOTH",
"45 45 LINE",
"45 0 LINE"
);
},
{
closed = 1;
nodes = (
"220 703 LINE",
"296 802 LINE",
"373 703 LINE",
"431 703 LINE",
"331 831 LINE",
"262 831 LINE",
"162 703 LINE"
);
},
{
closed = 1;
nodes = (
"201 853 LINE",
"201 884 OFFCURVE",
"207 902 OFFCURVE",
"231 902 CURVE SMOOTH",
"271 902 OFFCURVE",
"311 853 OFFCURVE",
"363 853 CURVE SMOOTH",
"411 853 OFFCURVE",
"440 874 OFFCURVE",
"440 948 CURVE",
"393 948 LINE",
"393 917 OFFCURVE",
"387 899 OFFCURVE",
"363 899 CURVE SMOOTH",
"324 899 OFFCURVE",
"282 948 OFFCURVE",
"231 948 CURVE SMOOTH",
"183 948 OFFCURVE",
"154 927 OFFCURVE",
"154 853 CURVE"
);
}
);
width = 543;
}
);
leftKerningGroup = E;
note = Ecircumflextilde;
rightKerningGroup = E;
unicode = 1EC4;
},
{
glyphname = Edieresis;
lastChange = "2015-08-02 14:20:19 +0000";
layers = (
{
layerId = "645D555E-8173-41F2-AA70-2E5F00C66FC5";
name = Light;
paths = (
{
closed = 1;
nodes = (
"498 0 LINE",
"498 104 LINE",
"450 104 LINE",
"450 79 LINE SMOOTH",
"450 54 OFFCURVE",
"441 45 OFFCURVE",
"414 45 CURVE SMOOTH",
"167 45 LINE",
"167 302 LINE",
"378 302 LINE",
"378 347 LINE",
"167 347 LINE",
"167 602 LINE",
"414 602 LINE SMOOTH",
"441 602 OFFCURVE",
"450 593 OFFCURVE",
"450 568 CURVE SMOOTH",
"450 544 LINE",
"498 544 LINE",
"498 647 LINE",
"45 647 LINE",
"45 602 LINE",
"80 602 LINE SMOOTH",
"105 602 OFFCURVE",
"114 593 OFFCURVE",
"114 566 CURVE SMOOTH",
"114 81 LINE SMOOTH",
"114 54 OFFCURVE",
"105 45 OFFCURVE",
"80 45 CURVE SMOOTH",
"45 45 LINE",
"45 0 LINE"
);
},
{
closed = 1;
nodes = (
"223 723 LINE",
"223 791 LINE",
"155 791 LINE",
"155 723 LINE"
);
},
{
closed = 1;
nodes = (
"412 723 LINE",
"412 791 LINE",
"344 791 LINE",
"344 723 LINE"
);
}
);
width = 543;
}
);
leftKerningGroup = E;
note = Edieresis;
rightKerningGroup = E;
unicode = 00CB;
},
{
glyphname = Edotaccent;
lastChange = "2015-08-02 14:20:19 +0000";
layers = (
{
layerId = "645D555E-8173-41F2-AA70-2E5F00C66FC5";
name = Light;
paths = (
{
closed = 1;
nodes = (
"498 0 LINE",
"498 104 LINE",
"450 104 LINE",
"450 79 LINE SMOOTH",
"450 54 OFFCURVE",
"441 45 OFFCURVE",
"414 45 CURVE SMOOTH",
"167 45 LINE",
"167 302 LINE",
"378 302 LINE",
"378 347 LINE",
"167 347 LINE",
"167 602 LINE",
"414 602 LINE SMOOTH",
"441 602 OFFCURVE",
"450 593 OFFCURVE",
"450 568 CURVE SMOOTH",
"450 544 LINE",
"498 544 LINE",
"498 647 LINE",
"45 647 LINE",
"45 602 LINE",
"80 602 LINE SMOOTH",
"105 602 OFFCURVE",
"114 593 OFFCURVE",
"114 566 CURVE SMOOTH",
"114 81 LINE SMOOTH",
"114 54 OFFCURVE",
"105 45 OFFCURVE",
"80 45 CURVE SMOOTH",
"45 45 LINE",
"45 0 LINE"
);
},
{
closed = 1;
nodes = (
"326 723 LINE",
"326 791 LINE",
"258 791 LINE",
"258 723 LINE"
);
}
);
width = 543;
}
);
leftKerningGroup = E;
note = Edotaccent;
rightKerningGroup = E;
unicode = 0116;
},
{
glyphname = Edotbelow;
lastChange = "2015-08-02 14:20:20 +0000";
layers = (
{
layerId = "645D555E-8173-41F2-AA70-2E5F00C66FC5";
name = Light;
paths = (
{
closed = 1;
nodes = (
"498 0 LINE",
"498 104 LINE",
"450 104 LINE",
"450 79 LINE SMOOTH",
"450 54 OFFCURVE",
"441 45 OFFCURVE",
"414 45 CURVE SMOOTH",
"167 45 LINE",
"167 302 LINE",
"378 302 LINE",
"378 347 LINE",
"167 347 LINE",
"167 602 LINE",
"414 602 LINE SMOOTH",
"441 602 OFFCURVE",
"450 593 OFFCURVE",
"450 568 CURVE SMOOTH",
"450 544 LINE",
"498 544 LINE",
"498 647 LINE",
"45 647 LINE",
"45 602 LINE",
"80 602 LINE SMOOTH",
"105 602 OFFCURVE",
"114 593 OFFCURVE",
"114 566 CURVE SMOOTH",
"114 81 LINE SMOOTH",
"114 54 OFFCURVE",
"105 45 OFFCURVE",
"80 45 CURVE SMOOTH",
"45 45 LINE",
"45 0 LINE"
);
},
{
closed = 1;
nodes = (
"316 -132 LINE",
"316 -64 LINE",
"248 -64 LINE",
"248 -132 LINE"
);
}
);
width = 543;
}
);
leftKerningGroup = E;
note = Edotbelow;
rightKerningGroup = E;
unicode = 1EB8;
},
{
glyphname = Egrave;
lastChange = "2015-08-02 14:20:19 +0000";
layers = (
{
layerId = "645D555E-8173-41F2-AA70-2E5F00C66FC5";
name = Light;
paths = (
{
closed = 1;
nodes = (
"498 0 LINE",
"498 104 LINE",
"450 104 LINE",
"450 79 LINE SMOOTH",
"450 54 OFFCURVE",
"441 45 OFFCURVE",
"414 45 CURVE SMOOTH",
"167 45 LINE",
"167 302 LINE",
"378 302 LINE",
"378 347 LINE",
"167 347 LINE",
"167 602 LINE",
"414 602 LINE SMOOTH",
"441 602 OFFCURVE",
"450 593 OFFCURVE",
"450 568 CURVE SMOOTH",
"450 544 LINE",
"498 544 LINE",
"498 647 LINE",
"45 647 LINE",
"45 602 LINE",
"80 602 LINE SMOOTH",
"105 602 OFFCURVE",
"114 593 OFFCURVE",
"114 566 CURVE SMOOTH",
"114 81 LINE SMOOTH",
"114 54 OFFCURVE",
"105 45 OFFCURVE",
"80 45 CURVE SMOOTH",
"45 45 LINE",
"45 0 LINE"
);
},
{
closed = 1;
nodes = (
"326 703 LINE",
"241 881 LINE",
"162 881 LINE",
"278 703 LINE"
);
}
);
width = 543;
}
);
leftKerningGroup = E;
note = Egrave;
rightKerningGroup = E;
unicode = 00C8;
},
{
glyphname = Ehookabove;
lastChange = "2015-08-02 14:20:20 +0000";
layers = (
{
layerId = "645D555E-8173-41F2-AA70-2E5F00C66FC5";
name = Light;
paths = (
{
closed = 1;
nodes = (
"498 0 LINE",
"498 104 LINE",
"450 104 LINE",
"450 79 LINE SMOOTH",
"450 54 OFFCURVE",
"441 45 OFFCURVE",
"414 45 CURVE SMOOTH",
"167 45 LINE",
"167 302 LINE",
"378 302 LINE",
"378 347 LINE",
"167 347 LINE",
"167 602 LINE",
"414 602 LINE SMOOTH",
"441 602 OFFCURVE",
"450 593 OFFCURVE",
"450 568 CURVE SMOOTH",
"450 544 LINE",
"498 544 LINE",
"498 647 LINE",
"45 647 LINE",
"45 602 LINE",
"80 602 LINE SMOOTH",
"105 602 OFFCURVE",
"114 593 OFFCURVE",
"114 566 CURVE SMOOTH",
"114 81 LINE SMOOTH",
"114 54 OFFCURVE",
"105 45 OFFCURVE",
"80 45 CURVE SMOOTH",
"45 45 LINE",
"45 0 LINE"
);
},
{
closed = 1;
nodes = (
"297 703 LINE",
"297 741 LINE",
"343 751 OFFCURVE",
"368 777 OFFCURVE",
"368 819 CURVE SMOOTH",
"368 880 OFFCURVE",
"328 901 OFFCURVE",
"267 901 CURVE SMOOTH",
"247 901 OFFCURVE",
"225 897 OFFCURVE",
"212 892 CURVE",
"212 851 LINE",
"225 855 OFFCURVE",
"242 859 OFFCURVE",
"260 859 CURVE SMOOTH",
"305 859 OFFCURVE",
"325 851 OFFCURVE",
"325 819 CURVE SMOOTH",
"325 788 OFFCURVE",
"310 769 OFFCURVE",
"253 769 CURVE",
"253 703 LINE"
);
}
);
width = 543;
}
);
leftKerningGroup = E;
note = Ehookabove;
rightKerningGroup = E;
unicode = 1EBA;
},
{
glyphname = Emacron;
lastChange = "2015-08-02 14:20:19 +0000";
layers = (
{
layerId = "645D555E-8173-41F2-AA70-2E5F00C66FC5";
name = Light;
paths = (
{
closed = 1;
nodes = (
"498 0 LINE",
"498 104 LINE",
"450 104 LINE",
"450 79 LINE SMOOTH",
"450 54 OFFCURVE",
"441 45 OFFCURVE",
"414 45 CURVE SMOOTH",
"167 45 LINE",
"167 302 LINE",
"378 302 LINE",
"378 347 LINE",
"167 347 LINE",
"167 602 LINE",
"414 602 LINE SMOOTH",
"441 602 OFFCURVE",
"450 593 OFFCURVE",
"450 568 CURVE SMOOTH",
"450 544 LINE",
"498 544 LINE",
"498 647 LINE",
"45 647 LINE",
"45 602 LINE",
"80 602 LINE SMOOTH",
"105 602 OFFCURVE",
"114 593 OFFCURVE",
"114 566 CURVE SMOOTH",
"114 81 LINE SMOOTH",
"114 54 OFFCURVE",
"105 45 OFFCURVE",
"80 45 CURVE SMOOTH",
"45 45 LINE",
"45 0 LINE"
);
},
{
closed = 1;
nodes = (
"419 723 LINE",
"419 768 LINE",
"148 768 LINE",
"148 723 LINE"
);
}
);
width = 543;
}
);
leftKerningGroup = E;
note = Emacron;
rightKerningGroup = E;
unicode = 0112;
},
{
glyphname = Eogonek;
lastChange = "2015-08-02 14:20:20 +0000";
layers = (
{
layerId = "645D555E-8173-41F2-AA70-2E5F00C66FC5";
name = Light;
paths = (
{
closed = 1;
nodes = (
"498 0 LINE",
"498 104 LINE",
"450 104 LINE",
"450 79 LINE SMOOTH",
"450 54 OFFCURVE",
"441 45 OFFCURVE",
"414 45 CURVE SMOOTH",
"167 45 LINE",
"167 302 LINE",
"378 302 LINE",
"378 347 LINE",
"167 347 LINE",
"167 602 LINE",
"414 602 LINE SMOOTH",
"441 602 OFFCURVE",
"450 593 OFFCURVE",
"450 568 CURVE SMOOTH",
"450 544 LINE",
"498 544 LINE",
"498 647 LINE",
"45 647 LINE",
"45 602 LINE",
"80 602 LINE SMOOTH",
"105 602 OFFCURVE",
"114 593 OFFCURVE",
"114 566 CURVE SMOOTH",
"114 81 LINE SMOOTH",
"114 54 OFFCURVE",
"105 45 OFFCURVE",
"80 45 CURVE SMOOTH",
"45 45 LINE",
"45 0 LINE"
);
},
{
closed = 1;
nodes = (
"469 -201 OFFCURVE",
"484 -198 OFFCURVE",
"498 -191 CURVE",
"498 -154 LINE",
"481 -159 OFFCURVE",
"464 -161 OFFCURVE",
"449 -161 CURVE SMOOTH",
"420 -161 OFFCURVE",
"406 -146 OFFCURVE",
"406 -106 CURVE SMOOTH",
"406 -65 OFFCURVE",
"424 -30 OFFCURVE",
"457 0 CURVE",
"412 0 LINE",
"381 -30 OFFCURVE",
"363 -64 OFFCURVE",
"363 -106 CURVE SMOOTH",
"363 -170 OFFCURVE",
"397 -201 OFFCURVE",
"449 -201 CURVE SMOOTH"
);
}
);
width = 543;
}
);
leftKerningGroup = E;
note = Eogonek;
rightKerningGroup = E;
unicode = 0118;
},
{
glyphname = Etilde;
lastChange = "2015-08-02 14:20:19 +0000";
layers = (
{
layerId = "645D555E-8173-41F2-AA70-2E5F00C66FC5";
name = Light;
paths = (
{
closed = 1;
nodes = (
"498 0 LINE",
"498 104 LINE",
"450 104 LINE",
"450 79 LINE SMOOTH",
"450 54 OFFCURVE",
"441 45 OFFCURVE",
"414 45 CURVE SMOOTH",
"167 45 LINE",
"167 302 LINE",
"378 302 LINE",
"378 347 LINE",
"167 347 LINE",
"167 602 LINE",
"414 602 LINE SMOOTH",
"441 602 OFFCURVE",
"450 593 OFFCURVE",
"450 568 CURVE SMOOTH",
"450 544 LINE",
"498 544 LINE",
"498 647 LINE",
"45 647 LINE",
"45 602 LINE",
"80 602 LINE SMOOTH",
"105 602 OFFCURVE",
"114 593 OFFCURVE",
"114 566 CURVE SMOOTH",
"114 81 LINE SMOOTH",
"114 54 OFFCURVE",
"105 45 OFFCURVE",
"80 45 CURVE SMOOTH",
"45 45 LINE",
"45 0 LINE"
);
},
{
closed = 1;
nodes = (
"151 703 LINE",
"151 752 OFFCURVE",
"167 762 OFFCURVE",
"196 762 CURVE SMOOTH",
"256 762 OFFCURVE",
"297 703 OFFCURVE",
"363 703 CURVE SMOOTH",
"421 703 OFFCURVE",
"455 734 OFFCURVE",
"455 808 CURVE",
"408 808 LINE",
"408 759 OFFCURVE",
"392 749 OFFCURVE",
"363 749 CURVE SMOOTH",
"310 749 OFFCURVE",
"267 808 OFFCURVE",
"196 808 CURVE SMOOTH",
"138 808 OFFCURVE",
"104 777 OFFCURVE",
"104 703 CURVE"
);
}
);
width = 543;
}
);
leftKerningGroup = E;
note = Etilde;
rightKerningGroup = E;
unicode = 1EBC;
},
{
glyphname = F;
lastChange = "2015-08-02 14:20:18 +0000";
layers = (
{
layerId = "645D555E-8173-41F2-AA70-2E5F00C66FC5";
name = Light;
paths = (
{
closed = 1;
nodes = (
"236 0 LINE",
"236 45 LINE",
"201 45 LINE SMOOTH",
"176 45 OFFCURVE",
"167 54 OFFCURVE",
"167 81 CURVE SMOOTH",
"167 302 LINE",
"378 302 LINE",
"378 347 LINE",
"167 347 LINE",
"167 602 LINE",
"414 602 LINE SMOOTH",
"441 602 OFFCURVE",
"450 593 OFFCURVE",
"450 568 CURVE SMOOTH",
"450 544 LINE",
"498 544 LINE",
"498 647 LINE",
"45 647 LINE",
"45 602 LINE",
"80 602 LINE SMOOTH",
"105 602 OFFCURVE",
"114 593 OFFCURVE",
"114 566 CURVE SMOOTH",
"114 81 LINE SMOOTH",
"114 54 OFFCURVE",
"105 45 OFFCURVE",
"80 45 CURVE SMOOTH",
"45 45 LINE",
"45 0 LINE"
);
}
);
width = 543;
}
);
note = F;
unicode = 0046;
},
{
glyphname = G;
lastChange = "2015-08-02 14:20:19 +0000";
layers = (
{
layerId = "645D555E-8173-41F2-AA70-2E5F00C66FC5";
name = Light;
paths = (
{
closed = 1;
nodes = (
"432 -15 OFFCURVE",
"497 0 OFFCURVE",
"559 40 CURVE",
"559 325 LINE",
"353 325 LINE",
"353 280 LINE",
"506 280 LINE",
"506 61 LINE",
"460 39 OFFCURVE",
"413 31 OFFCURVE",
"349 31 CURVE SMOOTH",
"192 31 OFFCURVE",
"96 140 OFFCURVE",
"96 321 CURVE SMOOTH",
"96 506 OFFCURVE",
"184 616 OFFCURVE",
"343 616 CURVE SMOOTH",
"404 616 OFFCURVE",
"451 607 OFFCURVE",
"487 588 CURVE",
"487 533 LINE",
"540 533 LINE",
"540 611 LINE",
"494 644 OFFCURVE",
"428 662 OFFCURVE",
"343 662 CURVE SMOOTH",
"135 662 OFFCURVE",
"45 515 OFFCURVE",
"45 321 CURVE SMOOTH",
"45 127 OFFCURVE",
"148 -15 OFFCURVE",
"349 -15 CURVE SMOOTH"
);
}
);
width = 604;
}
);
leftKerningGroup = C;
note = G;
unicode = 0047;
},
{
glyphname = Gbreve;
lastChange = "2015-08-02 14:20:19 +0000";
layers = (
{
layerId = "645D555E-8173-41F2-AA70-2E5F00C66FC5";
name = Light;
paths = (
{
closed = 1;
nodes = (
"432 -15 OFFCURVE",
"497 0 OFFCURVE",
"559 40 CURVE",
"559 325 LINE",
"353 325 LINE",
"353 280 LINE",
"506 280 LINE",
"506 61 LINE",
"460 39 OFFCURVE",
"413 31 OFFCURVE",
"349 31 CURVE SMOOTH",
"192 31 OFFCURVE",
"96 140 OFFCURVE",
"96 321 CURVE SMOOTH",
"96 506 OFFCURVE",
"184 616 OFFCURVE",
"343 616 CURVE SMOOTH",
"404 616 OFFCURVE",
"451 607 OFFCURVE",
"487 588 CURVE",
"487 533 LINE",
"540 533 LINE",
"540 611 LINE",
"494 644 OFFCURVE",
"428 662 OFFCURVE",
"343 662 CURVE SMOOTH",
"135 662 OFFCURVE",
"45 515 OFFCURVE",
"45 321 CURVE SMOOTH",
"45 127 OFFCURVE",
"148 -15 OFFCURVE",
"349 -15 CURVE SMOOTH"
);
},
{
closed = 1;
nodes = (
"423 703 OFFCURVE",
"483 753 OFFCURVE",
"483 833 CURVE",
"440 833 LINE",
"440 776 OFFCURVE",
"400 746 OFFCURVE",
"343 746 CURVE SMOOTH",
"286 746 OFFCURVE",
"246 776 OFFCURVE",
"246 833 CURVE",
"203 833 LINE",
"203 753 OFFCURVE",
"263 703 OFFCURVE",
"343 703 CURVE SMOOTH"
);
}
);
width = 604;
}
);
leftKerningGroup = C;
note = Gbreve;
unicode = 011E;
},
{
glyphname = Gcaron;
lastChange = "2015-08-02 14:20:19 +0000";
layers = (
{
layerId = "645D555E-8173-41F2-AA70-2E5F00C66FC5";
name = Light;
paths = (
{
closed = 1;
nodes = (
"432 -15 OFFCURVE",
"497 0 OFFCURVE",
"559 40 CURVE",
"559 325 LINE",
"353 325 LINE",
"353 280 LINE",
"506 280 LINE",
"506 61 LINE",
"460 39 OFFCURVE",
"413 31 OFFCURVE",
"349 31 CURVE SMOOTH",
"192 31 OFFCURVE",
"96 140 OFFCURVE",
"96 321 CURVE SMOOTH",
"96 506 OFFCURVE",
"184 616 OFFCURVE",
"343 616 CURVE SMOOTH",
"404 616 OFFCURVE",
"451 607 OFFCURVE",
"487 588 CURVE",
"487 533 LINE",
"540 533 LINE",
"540 611 LINE",
"494 644 OFFCURVE",
"428 662 OFFCURVE",
"343 662 CURVE SMOOTH",
"135 662 OFFCURVE",
"45 515 OFFCURVE",
"45 321 CURVE SMOOTH",
"45 127 OFFCURVE",
"148 -15 OFFCURVE",
"349 -15 CURVE SMOOTH"
);
},
{
closed = 1;
nodes = (
"383 703 LINE",
"498 881 LINE",
"440 881 LINE",
"348 742 LINE",
"257 881 LINE",
"199 881 LINE",
"314 703 LINE"
);
}
);
width = 604;
}
);
leftKerningGroup = C;
note = Gcaron;
unicode = 01E6;
},
{
glyphname = Gcircumflex;
lastChange = "2015-08-02 14:20:19 +0000";
layers = (
{
layerId = "645D555E-8173-41F2-AA70-2E5F00C66FC5";
name = Light;
paths = (
{
closed = 1;
nodes = (
"432 -15 OFFCURVE",
"497 0 OFFCURVE",
"559 40 CURVE",
"559 325 LINE",
"353 325 LINE",
"353 280 LINE",
"506 280 LINE",
"506 61 LINE",
"460 39 OFFCURVE",
"413 31 OFFCURVE",
"349 31 CURVE SMOOTH",
"192 31 OFFCURVE",
"96 140 OFFCURVE",
"96 321 CURVE SMOOTH",
"96 506 OFFCURVE",
"184 616 OFFCURVE",
"343 616 CURVE SMOOTH",
"404 616 OFFCURVE",
"451 607 OFFCURVE",
"487 588 CURVE",
"487 533 LINE",
"540 533 LINE",
"540 611 LINE",
"494 644 OFFCURVE",
"428 662 OFFCURVE",
"343 662 CURVE SMOOTH",
"135 662 OFFCURVE",
"45 515 OFFCURVE",
"45 321 CURVE SMOOTH",
"45 127 OFFCURVE",
"148 -15 OFFCURVE",
"349 -15 CURVE SMOOTH"
);
},
{
closed = 1;
nodes = (
"253 703 LINE",
"344 842 LINE",
"436 703 LINE",
"494 703 LINE",
"379 881 LINE",
"310 881 LINE",
"195 703 LINE"
);
}
);
width = 604;
}
);
leftKerningGroup = C;
note = Gcircumflex;
unicode = 011C;
},
{
glyphname = Gcommaaccent;
lastChange = "2015-08-02 14:20:19 +0000";
layers = (
{
layerId = "645D555E-8173-41F2-AA70-2E5F00C66FC5";
name = Light;
paths = (
{
closed = 1;
nodes = (
"432 -15 OFFCURVE",
"497 0 OFFCURVE",
"559 40 CURVE",
"559 325 LINE",
"353 325 LINE",
"353 280 LINE",
"506 280 LINE",
"506 61 LINE",
"460 39 OFFCURVE",
"413 31 OFFCURVE",
"349 31 CURVE SMOOTH",
"192 31 OFFCURVE",
"96 140 OFFCURVE",
"96 321 CURVE SMOOTH",
"96 506 OFFCURVE",
"184 616 OFFCURVE",
"343 616 CURVE SMOOTH",
"404 616 OFFCURVE",
"451 607 OFFCURVE",
"487 588 CURVE",
"487 533 LINE",
"540 533 LINE",
"540 611 LINE",
"494 644 OFFCURVE",
"428 662 OFFCURVE",
"343 662 CURVE SMOOTH",
"135 662 OFFCURVE",
"45 515 OFFCURVE",
"45 321 CURVE SMOOTH",
"45 127 OFFCURVE",
"148 -15 OFFCURVE",
"349 -15 CURVE SMOOTH"
);
},
{
closed = 1;
nodes = (
"345 -234 LINE",
"401 -49 LINE",
"334 -49 LINE",
"306 -234 LINE"
);
}
);
width = 604;
}
);
leftKerningGroup = C;
note = Gcommaaccent;
unicode = 0122;
},
{
glyphname = Gdotaccent;
lastChange = "2015-08-02 14:20:19 +0000";
layers = (
{
layerId = "645D555E-8173-41F2-AA70-2E5F00C66FC5";
name = Light;
paths = (
{
closed = 1;
nodes = (
"432 -15 OFFCURVE",
"497 0 OFFCURVE",
"559 40 CURVE",
"559 325 LINE",
"353 325 LINE",
"353 280 LINE",
"506 280 LINE",
"506 61 LINE",
"460 39 OFFCURVE",
"413 31 OFFCURVE",
"349 31 CURVE SMOOTH",
"192 31 OFFCURVE",
"96 140 OFFCURVE",
"96 321 CURVE SMOOTH",
"96 506 OFFCURVE",
"184 616 OFFCURVE",
"343 616 CURVE SMOOTH",
"404 616 OFFCURVE",
"451 607 OFFCURVE",
"487 588 CURVE",
"487 533 LINE",
"540 533 LINE",
"540 611 LINE",
"494 644 OFFCURVE",
"428 662 OFFCURVE",
"343 662 CURVE SMOOTH",
"135 662 OFFCURVE",
"45 515 OFFCURVE",
"45 321 CURVE SMOOTH",
"45 127 OFFCURVE",
"148 -15 OFFCURVE",
"349 -15 CURVE SMOOTH"
);
},
{
closed = 1;
nodes = (
"377 703 LINE",
"377 771 LINE",
"309 771 LINE",
"309 703 LINE"
);
}
);
width = 604;
}
);
leftKerningGroup = C;
note = Gdotaccent;
unicode = 0120;
},
{
glyphname = Gmacron;
lastChange = "2015-08-02 14:20:19 +0000";
layers = (
{
layerId = "645D555E-8173-41F2-AA70-2E5F00C66FC5";
name = Light;
paths = (
{
closed = 1;
nodes = (
"432 -15 OFFCURVE",
"497 0 OFFCURVE",
"559 40 CURVE",
"559 325 LINE",
"353 325 LINE",
"353 280 LINE",
"506 280 LINE",
"506 61 LINE",
"460 39 OFFCURVE",
"413 31 OFFCURVE",
"349 31 CURVE SMOOTH",
"192 31 OFFCURVE",
"96 140 OFFCURVE",
"96 321 CURVE SMOOTH",
"96 506 OFFCURVE",
"184 616 OFFCURVE",
"343 616 CURVE SMOOTH",
"404 616 OFFCURVE",
"451 607 OFFCURVE",
"487 588 CURVE",
"487 533 LINE",
"540 533 LINE",
"540 611 LINE",
"494 644 OFFCURVE",
"428 662 OFFCURVE",
"343 662 CURVE SMOOTH",
"135 662 OFFCURVE",
"45 515 OFFCURVE",
"45 321 CURVE SMOOTH",
"45 127 OFFCURVE",
"148 -15 OFFCURVE",
"349 -15 CURVE SMOOTH"
);
},
{
closed = 1;
nodes = (
"476 723 LINE",
"476 768 LINE",
"205 768 LINE",
"205 723 LINE"
);
}
);
width = 604;
}
);
leftKerningGroup = C;
note = Gmacron;
unicode = 1E20;
},
{
glyphname = H;
lastChange = "2015-08-02 14:20:18 +0000";
layers = (
{
layerId = "645D555E-8173-41F2-AA70-2E5F00C66FC5";
name = Light;
paths = (
{
closed = 1;
nodes = (
"236 0 LINE",
"236 45 LINE",
"201 45 LINE SMOOTH",
"176 45 OFFCURVE",
"167 54 OFFCURVE",
"167 81 CURVE SMOOTH",
"167 302 LINE",
"509 302 LINE",
"509 81 LINE SMOOTH",
"509 54 OFFCURVE",
"500 45 OFFCURVE",
"475 45 CURVE SMOOTH",
"440 45 LINE",
"440 0 LINE",
"631 0 LINE",
"631 45 LINE",
"596 45 LINE SMOOTH",
"571 45 OFFCURVE",
"562 54 OFFCURVE",
"562 81 CURVE SMOOTH",
"562 566 LINE SMOOTH",
"562 593 OFFCURVE",
"571 602 OFFCURVE",
"596 602 CURVE SMOOTH",
"631 602 LINE",
"631 647 LINE",
"440 647 LINE",
"440 602 LINE",
"475 602 LINE SMOOTH",
"500 602 OFFCURVE",
"509 593 OFFCURVE",
"509 566 CURVE SMOOTH",
"509 347 LINE",
"167 347 LINE",
"167 566 LINE SMOOTH",
"167 593 OFFCURVE",
"176 602 OFFCURVE",
"201 602 CURVE SMOOTH",
"236 602 LINE",
"236 647 LINE",
"45 647 LINE",
"45 602 LINE",
"80 602 LINE SMOOTH",
"105 602 OFFCURVE",
"114 593 OFFCURVE",
"114 566 CURVE SMOOTH",
"114 81 LINE SMOOTH",
"114 54 OFFCURVE",
"105 45 OFFCURVE",
"80 45 CURVE SMOOTH",
"45 45 LINE",
"45 0 LINE"
);
}
);
width = 676;
}
);
note = H;
unicode = 0048;
},
{
glyphname = Hbar;
lastChange = "2015-08-02 14:20:20 +0000";
layers = (
{
layerId = "645D555E-8173-41F2-AA70-2E5F00C66FC5";
name = Light;
paths = (
{
closed = 1;
nodes = (
"236 0 LINE",
"236 45 LINE",
"201 45 LINE SMOOTH",
"176 45 OFFCURVE",
"167 54 OFFCURVE",
"167 81 CURVE SMOOTH",
"167 302 LINE",
"509 302 LINE",
"509 81 LINE SMOOTH",
"509 54 OFFCURVE",
"500 45 OFFCURVE",
"475 45 CURVE SMOOTH",
"440 45 LINE",
"440 0 LINE",
"631 0 LINE",
"631 45 LINE",
"596 45 LINE SMOOTH",
"571 45 OFFCURVE",
"562 54 OFFCURVE",
"562 81 CURVE SMOOTH",
"562 566 LINE SMOOTH",
"562 593 OFFCURVE",
"571 602 OFFCURVE",
"596 602 CURVE SMOOTH",
"631 602 LINE",
"631 647 LINE",
"440 647 LINE",
"440 602 LINE",
"475 602 LINE SMOOTH",
"500 602 OFFCURVE",
"509 593 OFFCURVE",
"509 566 CURVE SMOOTH",
"509 347 LINE",
"167 347 LINE",
"167 566 LINE SMOOTH",
"167 593 OFFCURVE",
"176 602 OFFCURVE",
"201 602 CURVE SMOOTH",
"236 602 LINE",
"236 647 LINE",
"45 647 LINE",
"45 602 LINE",
"80 602 LINE SMOOTH",
"105 602 OFFCURVE",
"114 593 OFFCURVE",
"114 566 CURVE SMOOTH",
"114 81 LINE SMOOTH",
"114 54 OFFCURVE",
"105 45 OFFCURVE",
"80 45 CURVE SMOOTH",
"45 45 LINE",
"45 0 LINE"
);
},
{
closed = 1;
nodes = (
"631 435 LINE",
"631 480 LINE",
"46 480 LINE",
"46 435 LINE"
);
}
);
width = 676;
}
);
note = Hbar;
unicode = 0126;
},
{
glyphname = Hbrevebelow;
lastChange = "2015-11-23 14:03:57 +0000";
layers = (
{
layerId = "645D555E-8173-41F2-AA70-2E5F00C66FC5";
name = Light;
paths = (
{
closed = 1;
nodes = (
"236 0 LINE",
"236 45 LINE",
"201 45 LINE SMOOTH",
"176 45 OFFCURVE",
"167 54 OFFCURVE",
"167 81 CURVE SMOOTH",
"167 302 LINE",
"509 302 LINE",
"509 81 LINE SMOOTH",
"509 54 OFFCURVE",
"500 45 OFFCURVE",
"475 45 CURVE SMOOTH",
"440 45 LINE",
"440 0 LINE",
"631 0 LINE",
"631 45 LINE",
"596 45 LINE SMOOTH",
"571 45 OFFCURVE",
"562 54 OFFCURVE",
"562 81 CURVE SMOOTH",
"562 566 LINE SMOOTH",
"562 593 OFFCURVE",
"571 602 OFFCURVE",
"596 602 CURVE SMOOTH",
"631 602 LINE",
"631 647 LINE",
"440 647 LINE",
"440 602 LINE",
"475 602 LINE SMOOTH",
"500 602 OFFCURVE",
"509 593 OFFCURVE",
"509 566 CURVE SMOOTH",
"509 347 LINE",
"167 347 LINE",
"167 566 LINE SMOOTH",
"167 593 OFFCURVE",
"176 602 OFFCURVE",
"201 602 CURVE SMOOTH",
"236 602 LINE",
"236 647 LINE",
"45 647 LINE",
"45 602 LINE",
"80 602 LINE SMOOTH",
"105 602 OFFCURVE",
"114 593 OFFCURVE",
"114 566 CURVE SMOOTH",
"114 81 LINE SMOOTH",
"114 54 OFFCURVE",
"105 45 OFFCURVE",
"80 45 CURVE SMOOTH",
"45 45 LINE",
"45 0 LINE"
);
},
{
closed = 1;
nodes = (
"418 -180 OFFCURVE",
"478 -130 OFFCURVE",
"478 -50 CURVE",
"435 -50 LINE",
"435 -107 OFFCURVE",
"395 -137 OFFCURVE",
"338 -137 CURVE SMOOTH",
"281 -137 OFFCURVE",
"241 -107 OFFCURVE",
"241 -50 CURVE",
"198 -50 LINE",
"198 -130 OFFCURVE",
"258 -180 OFFCURVE",
"338 -180 CURVE SMOOTH"
);
}
);
width = 676;
}
);
note = Hbrevebelow;
unicode = 1E2A;
},
{
glyphname = Hcircumflex;
lastChange = "2015-08-02 14:20:20 +0000";
layers = (
{
layerId = "645D555E-8173-41F2-AA70-2E5F00C66FC5";
name = Light;
paths = (
{
closed = 1;
nodes = (
"236 0 LINE",
"236 45 LINE",
"201 45 LINE SMOOTH",
"176 45 OFFCURVE",
"167 54 OFFCURVE",
"167 81 CURVE SMOOTH",
"167 302 LINE",
"509 302 LINE",
"509 81 LINE SMOOTH",
"509 54 OFFCURVE",
"500 45 OFFCURVE",
"475 45 CURVE SMOOTH",
"440 45 LINE",
"440 0 LINE",
"631 0 LINE",
"631 45 LINE",
"596 45 LINE SMOOTH",
"571 45 OFFCURVE",
"562 54 OFFCURVE",
"562 81 CURVE SMOOTH",
"562 566 LINE SMOOTH",
"562 593 OFFCURVE",
"571 602 OFFCURVE",
"596 602 CURVE SMOOTH",
"631 602 LINE",
"631 647 LINE",
"440 647 LINE",
"440 602 LINE",
"475 602 LINE SMOOTH",
"500 602 OFFCURVE",
"509 593 OFFCURVE",
"509 566 CURVE SMOOTH",
"509 347 LINE",
"167 347 LINE",
"167 566 LINE SMOOTH",
"167 593 OFFCURVE",
"176 602 OFFCURVE",
"201 602 CURVE SMOOTH",
"236 602 LINE",
"236 647 LINE",
"45 647 LINE",
"45 602 LINE",
"80 602 LINE SMOOTH",
"105 602 OFFCURVE",
"114 593 OFFCURVE",
"114 566 CURVE SMOOTH",
"114 81 LINE SMOOTH",
"114 54 OFFCURVE",
"105 45 OFFCURVE",
"80 45 CURVE SMOOTH",
"45 45 LINE",
"45 0 LINE"
);
},
{
closed = 1;
nodes = (
"247 703 LINE",
"338 842 LINE",
"430 703 LINE",
"488 703 LINE",
"373 881 LINE",
"304 881 LINE",
"189 703 LINE"
);
}
);
width = 676;
}
);
note = Hcircumflex;
unicode = 0124;
},
{
glyphname = Hdotbelow;
lastChange = "2015-08-02 14:20:19 +0000";
layers = (
{
layerId = "645D555E-8173-41F2-AA70-2E5F00C66FC5";
name = Light;
paths = (
{
closed = 1;
nodes = (
"236 0 LINE",
"236 45 LINE",
"201 45 LINE SMOOTH",
"176 45 OFFCURVE",
"167 54 OFFCURVE",
"167 81 CURVE SMOOTH",
"167 302 LINE",
"509 302 LINE",
"509 81 LINE SMOOTH",
"509 54 OFFCURVE",
"500 45 OFFCURVE",
"475 45 CURVE SMOOTH",
"440 45 LINE",
"440 0 LINE",
"631 0 LINE",
"631 45 LINE",
"596 45 LINE SMOOTH",
"571 45 OFFCURVE",
"562 54 OFFCURVE",
"562 81 CURVE SMOOTH",
"562 566 LINE SMOOTH",
"562 593 OFFCURVE",
"571 602 OFFCURVE",
"596 602 CURVE SMOOTH",
"631 602 LINE",
"631 647 LINE",
"440 647 LINE",
"440 602 LINE",
"475 602 LINE SMOOTH",
"500 602 OFFCURVE",
"509 593 OFFCURVE",
"509 566 CURVE SMOOTH",
"509 347 LINE",
"167 347 LINE",
"167 566 LINE SMOOTH",
"167 593 OFFCURVE",
"176 602 OFFCURVE",
"201 602 CURVE SMOOTH",
"236 602 LINE",
"236 647 LINE",
"45 647 LINE",
"45 602 LINE",
"80 602 LINE SMOOTH",
"105 602 OFFCURVE",
"114 593 OFFCURVE",
"114 566 CURVE SMOOTH",
"114 81 LINE SMOOTH",
"114 54 OFFCURVE",
"105 45 OFFCURVE",
"80 45 CURVE SMOOTH",
"45 45 LINE",
"45 0 LINE"
);
},
{
closed = 1;
nodes = (
"372 -132 LINE",
"372 -64 LINE",
"304 -64 LINE",
"304 -132 LINE"
);
}
);
width = 676;
}
);
note = Hdotbelow;
unicode = 1E24;
},
{
glyphname = I;
lastChange = "2015-08-02 14:20:18 +0000";
layers = (
{
layerId = "645D555E-8173-41F2-AA70-2E5F00C66FC5";
name = Light;
paths = (
{
closed = 1;
nodes = (
"236 0 LINE",
"236 45 LINE",
"201 45 LINE SMOOTH",
"176 45 OFFCURVE",
"167 54 OFFCURVE",
"167 81 CURVE SMOOTH",
"167 566 LINE SMOOTH",
"167 593 OFFCURVE",
"176 602 OFFCURVE",
"201 602 CURVE SMOOTH",
"236 602 LINE",
"236 647 LINE",
"45 647 LINE",
"45 602 LINE",
"80 602 LINE SMOOTH",
"105 602 OFFCURVE",
"114 593 OFFCURVE",
"114 566 CURVE SMOOTH",
"114 81 LINE SMOOTH",
"114 54 OFFCURVE",
"105 45 OFFCURVE",
"80 45 CURVE SMOOTH",
"45 45 LINE",
"45 0 LINE"
);
}
);
width = 281;
}
);
note = I;
unicode = 0049;
},
{
glyphname = IJ;
lastChange = "2015-08-02 14:20:19 +0000";
layers = (
{
layerId = "645D555E-8173-41F2-AA70-2E5F00C66FC5";
name = Light;
paths = (
{
closed = 1;
nodes = (
"562 -15 OFFCURVE",
"623 57 OFFCURVE",
"623 174 CURVE SMOOTH",
"623 566 LINE SMOOTH",
"623 593 OFFCURVE",
"632 602 OFFCURVE",
"657 602 CURVE SMOOTH",
"692 602 LINE",
"692 647 LINE",
"501 647 LINE",
"501 602 LINE",
"536 602 LINE SMOOTH",
"561 602 OFFCURVE",
"570 593 OFFCURVE",
"570 566 CURVE SMOOTH",
"570 170 LINE SMOOTH",
"570 80 OFFCURVE",
"532 31 OFFCURVE",
"441 31 CURVE SMOOTH",
"391 31 OFFCURVE",
"349 44 OFFCURVE",
"321 74 CURVE",
"321 117 LINE",
"269 117 LINE",
"269 52 LINE",
"310 11 OFFCURVE",
"363 -15 OFFCURVE",
"445 -15 CURVE SMOOTH"
);
},
{
closed = 1;
nodes = (
"236 0 LINE",
"236 45 LINE",
"201 45 LINE SMOOTH",
"176 45 OFFCURVE",
"167 54 OFFCURVE",
"167 81 CURVE SMOOTH",
"167 566 LINE SMOOTH",
"167 593 OFFCURVE",
"176 602 OFFCURVE",
"201 602 CURVE SMOOTH",
"236 602 LINE",
"236 647 LINE",
"45 647 LINE",
"45 602 LINE",
"80 602 LINE SMOOTH",
"105 602 OFFCURVE",
"114 593 OFFCURVE",
"114 566 CURVE SMOOTH",
"114 81 LINE SMOOTH",
"114 54 OFFCURVE",
"105 45 OFFCURVE",
"80 45 CURVE SMOOTH",
"45 45 LINE",
"45 0 LINE"
);
}
);
width = 727;
}
);
note = IJ;
rightKerningGroup = J;
unicode = 0132;
},
{
glyphname = Iacute;
lastChange = "2015-08-02 14:20:19 +0000";
layers = (
{
layerId = "645D555E-8173-41F2-AA70-2E5F00C66FC5";
name = Light;
paths = (
{
closed = 1;
nodes = (
"236 0 LINE",
"236 45 LINE",
"201 45 LINE SMOOTH",
"176 45 OFFCURVE",
"167 54 OFFCURVE",
"167 81 CURVE SMOOTH",
"167 566 LINE SMOOTH",
"167 593 OFFCURVE",
"176 602 OFFCURVE",
"201 602 CURVE SMOOTH",
"236 602 LINE",
"236 647 LINE",
"45 647 LINE",
"45 602 LINE",
"80 602 LINE SMOOTH",
"105 602 OFFCURVE",
"114 593 OFFCURVE",
"114 566 CURVE SMOOTH",
"114 81 LINE SMOOTH",
"114 54 OFFCURVE",
"105 45 OFFCURVE",
"80 45 CURVE SMOOTH",
"45 45 LINE",
"45 0 LINE"
);
},
{
closed = 1;
nodes = (
"158 703 LINE",
"274 881 LINE",
"195 881 LINE",
"110 703 LINE"
);
}
);
width = 281;
}
);
note = Iacute;
unicode = 00CD;
},
{
glyphname = Ibreve;
lastChange = "2015-08-02 14:20:19 +0000";
layers = (
{
layerId = "645D555E-8173-41F2-AA70-2E5F00C66FC5";
name = Light;
paths = (
{
closed = 1;
nodes = (
"236 0 LINE",
"236 45 LINE",
"201 45 LINE SMOOTH",
"176 45 OFFCURVE",
"167 54 OFFCURVE",
"167 81 CURVE SMOOTH",
"167 566 LINE SMOOTH",
"167 593 OFFCURVE",
"176 602 OFFCURVE",
"201 602 CURVE SMOOTH",
"236 602 LINE",
"236 647 LINE",
"45 647 LINE",
"45 602 LINE",
"80 602 LINE SMOOTH",
"105 602 OFFCURVE",
"114 593 OFFCURVE",
"114 566 CURVE SMOOTH",
"114 81 LINE SMOOTH",
"114 54 OFFCURVE",
"105 45 OFFCURVE",
"80 45 CURVE SMOOTH",
"45 45 LINE",
"45 0 LINE"
);
},
{
closed = 1;
nodes = (
"220 703 OFFCURVE",
"280 753 OFFCURVE",
"280 833 CURVE",
"237 833 LINE",
"237 776 OFFCURVE",
"197 746 OFFCURVE",
"140 746 CURVE SMOOTH",
"83 746 OFFCURVE",
"43 776 OFFCURVE",
"43 833 CURVE",
"0 833 LINE",
"0 753 OFFCURVE",
"60 703 OFFCURVE",
"140 703 CURVE SMOOTH"
);
}
);
width = 281;
}
);
note = Ibreve;
unicode = 012C;
},
{
glyphname = Icaron;
lastChange = "2015-08-02 14:20:20 +0000";
layers = (
{
layerId = "645D555E-8173-41F2-AA70-2E5F00C66FC5";
name = Light;
paths = (
{
closed = 1;
nodes = (
"236 0 LINE",
"236 45 LINE",
"201 45 LINE SMOOTH",
"176 45 OFFCURVE",
"167 54 OFFCURVE",
"167 81 CURVE SMOOTH",
"167 566 LINE SMOOTH",
"167 593 OFFCURVE",
"176 602 OFFCURVE",
"201 602 CURVE SMOOTH",
"236 602 LINE",
"236 647 LINE",
"45 647 LINE",
"45 602 LINE",
"80 602 LINE SMOOTH",
"105 602 OFFCURVE",
"114 593 OFFCURVE",
"114 566 CURVE SMOOTH",
"114 81 LINE SMOOTH",
"114 54 OFFCURVE",
"105 45 OFFCURVE",
"80 45 CURVE SMOOTH",
"45 45 LINE",
"45 0 LINE"
);
},
{
closed = 1;
nodes = (
"175 703 LINE",
"290 881 LINE",
"232 881 LINE",
"140 742 LINE",
"49 881 LINE",
"-9 881 LINE",
"106 703 LINE"
);
}
);
width = 281;
}
);
note = Icaron;
unicode = 01CF;
},
{
glyphname = Icircumflex;
lastChange = "2015-08-02 14:20:19 +0000";
layers = (
{
layerId = "645D555E-8173-41F2-AA70-2E5F00C66FC5";
name = Light;
paths = (
{
closed = 1;
nodes = (
"236 0 LINE",
"236 45 LINE",
"201 45 LINE SMOOTH",
"176 45 OFFCURVE",
"167 54 OFFCURVE",
"167 81 CURVE SMOOTH",
"167 566 LINE SMOOTH",
"167 593 OFFCURVE",
"176 602 OFFCURVE",
"201 602 CURVE SMOOTH",
"236 602 LINE",
"236 647 LINE",
"45 647 LINE",
"45 602 LINE",
"80 602 LINE SMOOTH",
"105 602 OFFCURVE",
"114 593 OFFCURVE",
"114 566 CURVE SMOOTH",
"114 81 LINE SMOOTH",
"114 54 OFFCURVE",
"105 45 OFFCURVE",
"80 45 CURVE SMOOTH",
"45 45 LINE",
"45 0 LINE"
);
},
{
closed = 1;
nodes = (
"49 703 LINE",
"140 842 LINE",
"232 703 LINE",
"290 703 LINE",
"175 881 LINE",
"106 881 LINE",
"-9 703 LINE"
);
}
);
width = 281;
}
);
note = Icircumflex;
unicode = 00CE;
},
{
glyphname = Idieresis;
lastChange = "2015-08-02 14:20:20 +0000";
layers = (
{
layerId = "645D555E-8173-41F2-AA70-2E5F00C66FC5";
name = Light;
paths = (
{
closed = 1;
nodes = (
"236 0 LINE",
"236 45 LINE",
"201 45 LINE SMOOTH",
"176 45 OFFCURVE",
"167 54 OFFCURVE",
"167 81 CURVE SMOOTH",
"167 566 LINE SMOOTH",
"167 593 OFFCURVE",
"176 602 OFFCURVE",
"201 602 CURVE SMOOTH",
"236 602 LINE",
"236 647 LINE",
"45 647 LINE",
"45 602 LINE",
"80 602 LINE SMOOTH",
"105 602 OFFCURVE",
"114 593 OFFCURVE",
"114 566 CURVE SMOOTH",
"114 81 LINE SMOOTH",
"114 54 OFFCURVE",
"105 45 OFFCURVE",
"80 45 CURVE SMOOTH",
"45 45 LINE",
"45 0 LINE"
);
},
{
closed = 1;
nodes = (
"80 723 LINE",
"80 791 LINE",
"12 791 LINE",
"12 723 LINE"
);
},
{
closed = 1;
nodes = (
"269 723 LINE",
"269 791 LINE",
"201 791 LINE",
"201 723 LINE"
);
}
);
width = 281;
}
);
note = Idieresis;
unicode = 00CF;
},
{
glyphname = Idotaccent;
lastChange = "2015-11-23 14:04:19 +0000";
layers = (
{
layerId = "645D555E-8173-41F2-AA70-2E5F00C66FC5";
name = Light;
paths = (
{
closed = 1;
nodes = (
"236 0 LINE",
"236 45 LINE",
"201 45 LINE SMOOTH",
"176 45 OFFCURVE",
"167 54 OFFCURVE",
"167 81 CURVE SMOOTH",
"167 566 LINE SMOOTH",
"167 593 OFFCURVE",
"176 602 OFFCURVE",
"201 602 CURVE SMOOTH",
"236 602 LINE",
"236 647 LINE",
"45 647 LINE",
"45 602 LINE",
"80 602 LINE SMOOTH",
"105 602 OFFCURVE",
"114 593 OFFCURVE",
"114 566 CURVE SMOOTH",
"114 81 LINE SMOOTH",
"114 54 OFFCURVE",
"105 45 OFFCURVE",
"80 45 CURVE SMOOTH",
"45 45 LINE",
"45 0 LINE"
);
},
{
closed = 1;
nodes = (
"174 723 LINE",
"174 791 LINE",
"106 791 LINE",
"106 723 LINE"
);
}
);
width = 281;
}
);
note = Idotaccent;
unicode = 0130;
},
{
glyphname = Idotbelow;
lastChange = "2015-08-02 14:20:20 +0000";
layers = (
{
layerId = "645D555E-8173-41F2-AA70-2E5F00C66FC5";
name = Light;
paths = (
{
closed = 1;
nodes = (
"236 0 LINE",
"236 45 LINE",
"201 45 LINE SMOOTH",
"176 45 OFFCURVE",
"167 54 OFFCURVE",
"167 81 CURVE SMOOTH",
"167 566 LINE SMOOTH",
"167 593 OFFCURVE",
"176 602 OFFCURVE",
"201 602 CURVE SMOOTH",
"236 602 LINE",
"236 647 LINE",
"45 647 LINE",
"45 602 LINE",
"80 602 LINE SMOOTH",
"105 602 OFFCURVE",
"114 593 OFFCURVE",
"114 566 CURVE SMOOTH",
"114 81 LINE SMOOTH",
"114 54 OFFCURVE",
"105 45 OFFCURVE",
"80 45 CURVE SMOOTH",
"45 45 LINE",
"45 0 LINE"
);
},
{
closed = 1;
nodes = (
"174 -132 LINE",
"174 -64 LINE",
"106 -64 LINE",
"106 -132 LINE"
);
}
);
width = 281;
}
);
note = Idotbelow;
unicode = 1ECA;
},
{
glyphname = Igrave;
lastChange = "2015-08-02 14:20:19 +0000";
layers = (
{
layerId = "645D555E-8173-41F2-AA70-2E5F00C66FC5";
name = Light;
paths = (
{
closed = 1;
nodes = (
"236 0 LINE",
"236 45 LINE",
"201 45 LINE SMOOTH",
"176 45 OFFCURVE",
"167 54 OFFCURVE",
"167 81 CURVE SMOOTH",
"167 566 LINE SMOOTH",
"167 593 OFFCURVE",
"176 602 OFFCURVE",
"201 602 CURVE SMOOTH",
"236 602 LINE",
"236 647 LINE",
"45 647 LINE",
"45 602 LINE",
"80 602 LINE SMOOTH",
"105 602 OFFCURVE",
"114 593 OFFCURVE",
"114 566 CURVE SMOOTH",
"114 81 LINE SMOOTH",
"114 54 OFFCURVE",
"105 45 OFFCURVE",
"80 45 CURVE SMOOTH",
"45 45 LINE",
"45 0 LINE"
);
},
{
closed = 1;
nodes = (
"164 703 LINE",
"79 881 LINE",
"0 881 LINE",
"116 703 LINE"
);
}
);
width = 281;
}
);
note = Igrave;
unicode = 00CC;
},
{
glyphname = Ihookabove;
lastChange = "2015-08-02 14:20:20 +0000";
layers = (
{
layerId = "645D555E-8173-41F2-AA70-2E5F00C66FC5";
name = Light;
paths = (
{
closed = 1;
nodes = (
"236 0 LINE",
"236 45 LINE",
"201 45 LINE SMOOTH",
"176 45 OFFCURVE",
"167 54 OFFCURVE",
"167 81 CURVE SMOOTH",
"167 566 LINE SMOOTH",
"167 593 OFFCURVE",
"176 602 OFFCURVE",
"201 602 CURVE SMOOTH",
"236 602 LINE",
"236 647 LINE",
"45 647 LINE",
"45 602 LINE",
"80 602 LINE SMOOTH",
"105 602 OFFCURVE",
"114 593 OFFCURVE",
"114 566 CURVE SMOOTH",
"114 81 LINE SMOOTH",
"114 54 OFFCURVE",
"105 45 OFFCURVE",
"80 45 CURVE SMOOTH",
"45 45 LINE",
"45 0 LINE"
);
},
{
closed = 1;
nodes = (
"159 703 LINE",
"159 741 LINE",
"205 751 OFFCURVE",
"230 777 OFFCURVE",
"230 819 CURVE SMOOTH",
"230 880 OFFCURVE",
"190 901 OFFCURVE",
"129 901 CURVE SMOOTH",
"109 901 OFFCURVE",
"87 897 OFFCURVE",
"74 892 CURVE",
"74 851 LINE",
"87 855 OFFCURVE",
"104 859 OFFCURVE",
"122 859 CURVE SMOOTH",
"167 859 OFFCURVE",
"187 851 OFFCURVE",
"187 819 CURVE SMOOTH",
"187 788 OFFCURVE",
"172 769 OFFCURVE",
"115 769 CURVE",
"115 703 LINE"
);
}
);
width = 281;
}
);
note = Ihookabove;
unicode = 1EC8;
},
{
glyphname = Imacron;
lastChange = "2015-08-02 14:20:19 +0000";
layers = (
{
layerId = "645D555E-8173-41F2-AA70-2E5F00C66FC5";
name = Light;
paths = (
{
closed = 1;
nodes = (
"236 0 LINE",
"236 45 LINE",
"201 45 LINE SMOOTH",
"176 45 OFFCURVE",
"167 54 OFFCURVE",
"167 81 CURVE SMOOTH",
"167 566 LINE SMOOTH",
"167 593 OFFCURVE",
"176 602 OFFCURVE",
"201 602 CURVE SMOOTH",
"236 602 LINE",
"236 647 LINE",
"45 647 LINE",
"45 602 LINE",
"80 602 LINE SMOOTH",
"105 602 OFFCURVE",
"114 593 OFFCURVE",
"114 566 CURVE SMOOTH",
"114 81 LINE SMOOTH",
"114 54 OFFCURVE",
"105 45 OFFCURVE",
"80 45 CURVE SMOOTH",
"45 45 LINE",
"45 0 LINE"
);
},
{
closed = 1;
nodes = (
"276 723 LINE",
"276 768 LINE",
"5 768 LINE",
"5 723 LINE"
);
}
);
width = 281;
}
);
note = Imacron;
unicode = 012A;
},
{
glyphname = Iogonek;
lastChange = "2015-08-02 14:20:19 +0000";
layers = (
{
layerId = "645D555E-8173-41F2-AA70-2E5F00C66FC5";
name = Light;
paths = (
{
closed = 1;
nodes = (
"236 0 LINE",
"236 45 LINE",
"201 45 LINE SMOOTH",
"176 45 OFFCURVE",
"167 54 OFFCURVE",
"167 81 CURVE SMOOTH",
"167 566 LINE SMOOTH",
"167 593 OFFCURVE",
"176 602 OFFCURVE",
"201 602 CURVE SMOOTH",
"236 602 LINE",
"236 647 LINE",
"45 647 LINE",
"45 602 LINE",
"80 602 LINE SMOOTH",
"105 602 OFFCURVE",
"114 593 OFFCURVE",
"114 566 CURVE SMOOTH",
"114 81 LINE SMOOTH",
"114 54 OFFCURVE",
"105 45 OFFCURVE",
"80 45 CURVE SMOOTH",
"45 45 LINE",
"45 0 LINE"
);
},
{
closed = 1;
nodes = (
"179 -201 OFFCURVE",
"194 -198 OFFCURVE",
"208 -191 CURVE",
"208 -154 LINE",
"191 -159 OFFCURVE",
"174 -161 OFFCURVE",
"159 -161 CURVE SMOOTH",
"130 -161 OFFCURVE",
"116 -146 OFFCURVE",
"116 -106 CURVE SMOOTH",
"116 -65 OFFCURVE",
"134 -30 OFFCURVE",
"167 0 CURVE",
"122 0 LINE",
"91 -30 OFFCURVE",
"73 -64 OFFCURVE",
"73 -106 CURVE SMOOTH",
"73 -170 OFFCURVE",
"107 -201 OFFCURVE",
"159 -201 CURVE SMOOTH"
);
}
);
width = 281;
}
);
note = Iogonek;
unicode = 012E;
},
{
glyphname = Itilde;
lastChange = "2015-08-02 14:20:19 +0000";
layers = (
{
layerId = "645D555E-8173-41F2-AA70-2E5F00C66FC5";
name = Light;
paths = (
{
closed = 1;
nodes = (
"236 0 LINE",
"236 45 LINE",
"201 45 LINE SMOOTH",
"176 45 OFFCURVE",
"167 54 OFFCURVE",
"167 81 CURVE SMOOTH",
"167 566 LINE SMOOTH",
"167 593 OFFCURVE",
"176 602 OFFCURVE",
"201 602 CURVE SMOOTH",
"236 602 LINE",
"236 647 LINE",
"45 647 LINE",
"45 602 LINE",
"80 602 LINE SMOOTH",
"105 602 OFFCURVE",
"114 593 OFFCURVE",
"114 566 CURVE SMOOTH",
"114 81 LINE SMOOTH",
"114 54 OFFCURVE",
"105 45 OFFCURVE",
"80 45 CURVE SMOOTH",
"45 45 LINE",
"45 0 LINE"
);
},
{
closed = 1;
nodes = (
"11 703 LINE",
"11 752 OFFCURVE",
"27 762 OFFCURVE",
"56 762 CURVE SMOOTH",
"116 762 OFFCURVE",
"157 703 OFFCURVE",
"223 703 CURVE SMOOTH",
"281 703 OFFCURVE",
"315 734 OFFCURVE",
"315 808 CURVE",
"268 808 LINE",
"268 759 OFFCURVE",
"252 749 OFFCURVE",
"223 749 CURVE SMOOTH",
"170 749 OFFCURVE",
"127 808 OFFCURVE",
"56 808 CURVE SMOOTH",
"-2 808 OFFCURVE",
"-36 777 OFFCURVE",
"-36 703 CURVE"
);
}
);
width = 281;
}
);
note = Itilde;
unicode = 0128;
},
{
glyphname = J;
lastChange = "2015-08-02 14:20:19 +0000";
layers = (
{
layerId = "645D555E-8173-41F2-AA70-2E5F00C66FC5";
name = Light;
paths = (
{
closed = 1;
nodes = (
"308 -15 OFFCURVE",
"369 57 OFFCURVE",
"369 174 CURVE SMOOTH",
"369 566 LINE SMOOTH",
"369 593 OFFCURVE",
"378 602 OFFCURVE",
"403 602 CURVE SMOOTH",
"438 602 LINE",
"438 647 LINE",
"247 647 LINE",
"247 602 LINE",
"282 602 LINE SMOOTH",
"307 602 OFFCURVE",
"316 593 OFFCURVE",
"316 566 CURVE SMOOTH",
"316 170 LINE SMOOTH",
"316 80 OFFCURVE",
"278 31 OFFCURVE",
"187 31 CURVE SMOOTH",
"137 31 OFFCURVE",
"95 44 OFFCURVE",
"67 74 CURVE",
"67 117 LINE",
"15 117 LINE",
"15 52 LINE",
"56 11 OFFCURVE",
"109 -15 OFFCURVE",
"191 -15 CURVE SMOOTH"
);
}
);
width = 483;
}
);
leftKerningGroup = J;
note = J;
rightKerningGroup = J;
unicode = 004A;
},
{
glyphname = Jcircumflex;
lastChange = "2015-11-23 14:04:35 +0000";
layers = (
{
layerId = "645D555E-8173-41F2-AA70-2E5F00C66FC5";
name = Light;
paths = (
{
closed = 1;
nodes = (
"308 -15 OFFCURVE",
"369 57 OFFCURVE",
"369 174 CURVE SMOOTH",
"369 566 LINE SMOOTH",
"369 593 OFFCURVE",
"378 602 OFFCURVE",
"403 602 CURVE SMOOTH",
"438 602 LINE",
"438 647 LINE",
"247 647 LINE",
"247 602 LINE",
"282 602 LINE SMOOTH",
"307 602 OFFCURVE",
"316 593 OFFCURVE",
"316 566 CURVE SMOOTH",
"316 170 LINE SMOOTH",
"316 80 OFFCURVE",
"278 31 OFFCURVE",
"187 31 CURVE SMOOTH",
"137 31 OFFCURVE",
"95 44 OFFCURVE",
"67 74 CURVE",
"67 117 LINE",
"15 117 LINE",
"15 52 LINE",
"56 11 OFFCURVE",
"109 -15 OFFCURVE",
"191 -15 CURVE SMOOTH"
);
},
{
closed = 1;
nodes = (
"249 703 LINE",
"340 842 LINE",
"432 703 LINE",
"490 703 LINE",
"375 881 LINE",
"306 881 LINE",
"191 703 LINE"
);
}
);
width = 483;
}
);
leftKerningGroup = J;
note = Jcircumflex;
rightKerningGroup = J;
unicode = 0134;
},
{
glyphname = K;
lastChange = "2015-08-02 14:20:20 +0000";
layers = (
{
layerId = "645D555E-8173-41F2-AA70-2E5F00C66FC5";
name = Light;
paths = (
{
closed = 1;
nodes = (
"236 0 LINE",
"236 45 LINE",
"205 45 LINE SMOOTH",
"174 45 OFFCURVE",
"167 56 OFFCURVE",
"167 81 CURVE SMOOTH",
"167 231 LINE",
"264 336 LINE",
"457 45 LINE",
"399 45 LINE",
"399 0 LINE",
"589 0 LINE",
"589 45 LINE",
"554 45 LINE SMOOTH",
"527 45 OFFCURVE",
"512 55 OFFCURVE",
"495 80 CURVE SMOOTH",
"300 375 LINE",
"479 569 LINE SMOOTH",
"500 591 OFFCURVE",
"510 602 OFFCURVE",
"537 602 CURVE SMOOTH",
"577 602 LINE",
"577 647 LINE",
"391 647 LINE",
"391 602 LINE",
"449 602 LINE",
"167 296 LINE",
"167 568 LINE SMOOTH",
"167 595 OFFCURVE",
"176 604 OFFCURVE",
"201 604 CURVE SMOOTH",
"226 604 LINE",
"226 647 LINE",
"55 647 LINE",
"55 604 LINE",
"80 604 LINE SMOOTH",
"105 604 OFFCURVE",
"114 595 OFFCURVE",
"114 568 CURVE SMOOTH",
"114 81 LINE SMOOTH",
"114 56 OFFCURVE",
"107 45 OFFCURVE",
"76 45 CURVE SMOOTH",
"45 45 LINE",
"45 0 LINE"
);
}
);
width = 634;
}
);
note = K;
rightKerningGroup = K;
unicode = 004B;
},
{
glyphname = Kcommaaccent;
lastChange = "2015-08-02 14:20:20 +0000";
layers = (
{
layerId = "645D555E-8173-41F2-AA70-2E5F00C66FC5";
name = Light;
paths = (
{
closed = 1;
nodes = (
"236 0 LINE",
"236 45 LINE",
"205 45 LINE SMOOTH",
"174 45 OFFCURVE",
"167 56 OFFCURVE",
"167 81 CURVE SMOOTH",
"167 231 LINE",
"264 336 LINE",
"457 45 LINE",
"399 45 LINE",
"399 0 LINE",
"589 0 LINE",
"589 45 LINE",
"554 45 LINE SMOOTH",
"527 45 OFFCURVE",
"512 55 OFFCURVE",
"495 80 CURVE SMOOTH",
"300 375 LINE",
"479 569 LINE SMOOTH",
"500 591 OFFCURVE",
"510 602 OFFCURVE",
"537 602 CURVE SMOOTH",
"577 602 LINE",
"577 647 LINE",
"391 647 LINE",
"391 602 LINE",
"449 602 LINE",
"167 296 LINE",
"167 568 LINE SMOOTH",
"167 595 OFFCURVE",
"176 604 OFFCURVE",
"201 604 CURVE SMOOTH",
"226 604 LINE",
"226 647 LINE",
"55 647 LINE",
"55 604 LINE",
"80 604 LINE SMOOTH",
"105 604 OFFCURVE",
"114 595 OFFCURVE",
"114 568 CURVE SMOOTH",
"114 81 LINE SMOOTH",
"114 56 OFFCURVE",
"107 45 OFFCURVE",
"76 45 CURVE SMOOTH",
"45 45 LINE",
"45 0 LINE"
);
},
{
closed = 1;
nodes = (
"294 -234 LINE",
"350 -49 LINE",
"283 -49 LINE",
"255 -234 LINE"
);
}
);
width = 634;
}
);
note = Kcommaaccent;
rightKerningGroup = K;
unicode = 0136;
},
{
glyphname = L;
lastChange = "2015-08-02 14:20:19 +0000";
layers = (
{
layerId = "645D555E-8173-41F2-AA70-2E5F00C66FC5";
name = Light;
paths = (
{
closed = 1;
nodes = (
"488 0 LINE",
"488 102 LINE",
"440 102 LINE",
"440 77 LINE SMOOTH",
"440 52 OFFCURVE",
"431 43 OFFCURVE",
"404 43 CURVE SMOOTH",
"157 43 LINE",
"157 568 LINE SMOOTH",
"157 595 OFFCURVE",
"166 604 OFFCURVE",
"191 604 CURVE SMOOTH",
"216 604 LINE",
"216 647 LINE",
"45 647 LINE",
"45 604 LINE",
"70 604 LINE SMOOTH",
"95 604 OFFCURVE",
"104 595 OFFCURVE",
"104 568 CURVE SMOOTH",
"104 79 LINE SMOOTH",
"104 54 OFFCURVE",
"97 43 OFFCURVE",
"66 43 CURVE SMOOTH",
"45 43 LINE",
"45 0 LINE"
);
}
);
width = 503;
}
);
note = L;
rightKerningGroup = L;
unicode = 004C;
},
{
glyphname = Lacute;
lastChange = "2015-08-02 14:20:19 +0000";
layers = (
{
layerId = "645D555E-8173-41F2-AA70-2E5F00C66FC5";
name = Light;
paths = (
{
closed = 1;
nodes = (
"488 0 LINE",
"488 102 LINE",
"440 102 LINE",
"440 77 LINE SMOOTH",
"440 52 OFFCURVE",
"431 43 OFFCURVE",
"404 43 CURVE SMOOTH",
"157 43 LINE",
"157 568 LINE SMOOTH",
"157 595 OFFCURVE",
"166 604 OFFCURVE",
"191 604 CURVE SMOOTH",
"216 604 LINE",
"216 647 LINE",
"45 647 LINE",
"45 604 LINE",
"70 604 LINE SMOOTH",
"95 604 OFFCURVE",
"104 595 OFFCURVE",
"104 568 CURVE SMOOTH",
"104 79 LINE SMOOTH",
"104 54 OFFCURVE",
"97 43 OFFCURVE",
"66 43 CURVE SMOOTH",
"45 43 LINE",
"45 0 LINE"
);
},
{
closed = 1;
nodes = (
"152 703 LINE",
"268 881 LINE",
"189 881 LINE",
"104 703 LINE"
);
}
);
width = 503;
}
);
note = Lacute;
rightKerningGroup = L;
unicode = 0139;
},
{
glyphname = Lcaron;
lastChange = "2015-08-02 14:20:19 +0000";
layers = (
{
layerId = "645D555E-8173-41F2-AA70-2E5F00C66FC5";
name = Light;
paths = (
{
closed = 1;
nodes = (
"488 0 LINE",
"488 102 LINE",
"440 102 LINE",
"440 77 LINE SMOOTH",
"440 52 OFFCURVE",
"431 43 OFFCURVE",
"404 43 CURVE SMOOTH",
"157 43 LINE",
"157 568 LINE SMOOTH",
"157 595 OFFCURVE",
"166 604 OFFCURVE",
"191 604 CURVE SMOOTH",
"216 604 LINE",
"216 647 LINE",
"45 647 LINE",
"45 604 LINE",
"70 604 LINE SMOOTH",
"95 604 OFFCURVE",
"104 595 OFFCURVE",
"104 568 CURVE SMOOTH",
"104 79 LINE SMOOTH",
"104 54 OFFCURVE",
"97 43 OFFCURVE",
"66 43 CURVE SMOOTH",
"45 43 LINE",
"45 0 LINE"
);
},
{
closed = 1;
nodes = (
"358 529 LINE",
"414 714 LINE",
"347 714 LINE",
"319 529 LINE"
);
}
);
width = 503;
}
);
note = Lcaron;
rightKerningGroup = L;
unicode = 013D;
},
{
glyphname = Lcommaaccent;
lastChange = "2015-08-02 14:20:19 +0000";
layers = (
{
layerId = "645D555E-8173-41F2-AA70-2E5F00C66FC5";
name = Light;
paths = (
{
closed = 1;
nodes = (
"488 0 LINE",
"488 102 LINE",
"440 102 LINE",
"440 77 LINE SMOOTH",
"440 52 OFFCURVE",
"431 43 OFFCURVE",
"404 43 CURVE SMOOTH",
"157 43 LINE",
"157 568 LINE SMOOTH",
"157 595 OFFCURVE",
"166 604 OFFCURVE",
"191 604 CURVE SMOOTH",
"216 604 LINE",
"216 647 LINE",
"45 647 LINE",
"45 604 LINE",
"70 604 LINE SMOOTH",
"95 604 OFFCURVE",
"104 595 OFFCURVE",
"104 568 CURVE SMOOTH",
"104 79 LINE SMOOTH",
"104 54 OFFCURVE",
"97 43 OFFCURVE",
"66 43 CURVE SMOOTH",
"45 43 LINE",
"45 0 LINE"
);
},
{
closed = 1;
nodes = (
"247 -234 LINE",
"303 -49 LINE",
"236 -49 LINE",
"208 -234 LINE"
);
}
);
width = 503;
}
);
note = Lcommaaccent;
rightKerningGroup = L;
unicode = 013B;
},
{
glyphname = Ldot;
lastChange = "2015-08-02 14:20:19 +0000";
layers = (
{
layerId = "645D555E-8173-41F2-AA70-2E5F00C66FC5";
name = Light;
paths = (
{
closed = 1;
nodes = (
"488 0 LINE",
"488 102 LINE",
"440 102 LINE",
"440 77 LINE SMOOTH",
"440 52 OFFCURVE",
"431 43 OFFCURVE",
"404 43 CURVE SMOOTH",
"157 43 LINE",
"157 568 LINE SMOOTH",
"157 595 OFFCURVE",
"166 604 OFFCURVE",
"191 604 CURVE SMOOTH",
"216 604 LINE",
"216 647 LINE",
"45 647 LINE",
"45 604 LINE",
"70 604 LINE SMOOTH",
"95 604 OFFCURVE",
"104 595 OFFCURVE",
"104 568 CURVE SMOOTH",
"104 79 LINE SMOOTH",
"104 54 OFFCURVE",
"97 43 OFFCURVE",
"66 43 CURVE SMOOTH",
"45 43 LINE",
"45 0 LINE"
);
},
{
closed = 1;
nodes = (
"357 272 LINE",
"357 340 LINE",
"289 340 LINE",
"289 272 LINE"
);
}
);
width = 503;
}
);
note = Ldot;
rightKerningGroup = L;
unicode = 013F;
},
{
glyphname = Ldotbelow;
lastChange = "2015-08-02 14:20:19 +0000";
layers = (
{
layerId = "645D555E-8173-41F2-AA70-2E5F00C66FC5";
name = Light;
paths = (
{
closed = 1;
nodes = (
"488 0 LINE",
"488 102 LINE",
"440 102 LINE",
"440 77 LINE SMOOTH",
"440 52 OFFCURVE",
"431 43 OFFCURVE",
"404 43 CURVE SMOOTH",
"157 43 LINE",
"157 568 LINE SMOOTH",
"157 595 OFFCURVE",
"166 604 OFFCURVE",
"191 604 CURVE SMOOTH",
"216 604 LINE",
"216 647 LINE",
"45 647 LINE",
"45 604 LINE",
"70 604 LINE SMOOTH",
"95 604 OFFCURVE",
"104 595 OFFCURVE",
"104 568 CURVE SMOOTH",
"104 79 LINE SMOOTH",
"104 54 OFFCURVE",
"97 43 OFFCURVE",
"66 43 CURVE SMOOTH",
"45 43 LINE",
"45 0 LINE"
);
},
{
closed = 1;
nodes = (
"301 -132 LINE",
"301 -64 LINE",
"233 -64 LINE",
"233 -132 LINE"
);
}
);
width = 503;
}
);
note = Ldotbelow;
rightKerningGroup = L;
unicode = 1E36;
},
{
glyphname = Ldotbelowmacron;
lastChange = "2015-11-23 15:46:35 +0000";
layers = (
{
layerId = "645D555E-8173-41F2-AA70-2E5F00C66FC5";
name = Light;
paths = (
{
closed = 1;
nodes = (
"488 0 LINE",
"488 102 LINE",
"440 102 LINE",
"440 77 LINE SMOOTH",
"440 52 OFFCURVE",
"431 43 OFFCURVE",
"404 43 CURVE SMOOTH",
"157 43 LINE",
"157 568 LINE SMOOTH",
"157 595 OFFCURVE",
"166 604 OFFCURVE",
"191 604 CURVE SMOOTH",
"216 604 LINE",
"216 647 LINE",
"45 647 LINE",
"45 604 LINE",
"70 604 LINE SMOOTH",
"95 604 OFFCURVE",
"104 595 OFFCURVE",
"104 568 CURVE SMOOTH",
"104 79 LINE SMOOTH",
"104 54 OFFCURVE",
"97 43 OFFCURVE",
"66 43 CURVE SMOOTH",
"45 43 LINE",
"45 0 LINE"
);
},
{
closed = 1;
nodes = (
"301 -132 LINE",
"301 -64 LINE",
"233 -64 LINE",
"233 -132 LINE"
);
},
{
closed = 1;
nodes = (
"308 723 LINE",
"308 768 LINE",
"37 768 LINE",
"37 723 LINE"
);
}
);
width = 503;
}
);
note = Ldotbelowmacron;
rightKerningGroup = L;
unicode = 1E38;
},
{
glyphname = Llinebelow;
lastChange = "2015-08-02 14:20:20 +0000";
layers = (
{
layerId = "645D555E-8173-41F2-AA70-2E5F00C66FC5";
name = Light;
paths = (
{
closed = 1;
nodes = (
"488 0 LINE",
"488 102 LINE",
"440 102 LINE",
"440 77 LINE SMOOTH",
"440 52 OFFCURVE",
"431 43 OFFCURVE",
"404 43 CURVE SMOOTH",
"157 43 LINE",
"157 568 LINE SMOOTH",
"157 595 OFFCURVE",
"166 604 OFFCURVE",
"191 604 CURVE SMOOTH",
"216 604 LINE",
"216 647 LINE",
"45 647 LINE",
"45 604 LINE",
"70 604 LINE SMOOTH",
"95 604 OFFCURVE",
"104 595 OFFCURVE",
"104 568 CURVE SMOOTH",
"104 79 LINE SMOOTH",
"104 54 OFFCURVE",
"97 43 OFFCURVE",
"66 43 CURVE SMOOTH",
"45 43 LINE",
"45 0 LINE"
);
},
{
closed = 1;
nodes = (
"403 -121 LINE",
"403 -76 LINE",
"132 -76 LINE",
"132 -121 LINE"
);
}
);
width = 503;
}
);
note = Llinebelow;
rightKerningGroup = L;
unicode = 1E3A;
},
{
glyphname = Lslash;
lastChange = "2015-08-02 14:20:19 +0000";
layers = (
{
layerId = "645D555E-8173-41F2-AA70-2E5F00C66FC5";
name = Light;
paths = (
{
closed = 1;
nodes = (
"490 0 LINE",
"490 102 LINE",
"442 102 LINE",
"442 77 LINE SMOOTH",
"442 52 OFFCURVE",
"433 43 OFFCURVE",
"406 43 CURVE SMOOTH",
"159 43 LINE",
"159 568 LINE SMOOTH",
"159 595 OFFCURVE",
"168 604 OFFCURVE",
"193 604 CURVE SMOOTH",
"218 604 LINE",
"218 647 LINE",
"47 647 LINE",
"47 604 LINE",
"72 604 LINE SMOOTH",
"97 604 OFFCURVE",
"106 595 OFFCURVE",
"106 568 CURVE SMOOTH",
"106 79 LINE SMOOTH",
"106 54 OFFCURVE",
"99 43 OFFCURVE",
"68 43 CURVE SMOOTH",
"47 43 LINE",
"47 0 LINE"
);
},
{
closed = 1;
nodes = (
"292 350 LINE",
"292 402 LINE",
"45 260 LINE",
"45 208 LINE"
);
}
);
width = 505;
}
);
note = Lslash;
rightKerningGroup = L;
unicode = 0141;
},
{
glyphname = M;
lastChange = "2015-08-02 14:20:18 +0000";
layers = (
{
layerId = "645D555E-8173-41F2-AA70-2E5F00C66FC5";
name = Light;
paths = (
{
closed = 1;
nodes = (
"236 0 LINE",
"236 45 LINE",
"201 45 LINE SMOOTH",
"176 45 OFFCURVE",
"167 54 OFFCURVE",
"167 81 CURVE SMOOTH",
"167 564 LINE",
"364 100 LINE",
"412 100 LINE",
"609 564 LINE",
"609 81 LINE SMOOTH",
"609 54 OFFCURVE",
"600 45 OFFCURVE",
"575 45 CURVE SMOOTH",
"540 45 LINE",
"540 0 LINE",
"731 0 LINE",
"731 45 LINE",
"696 45 LINE SMOOTH",
"671 45 OFFCURVE",
"662 54 OFFCURVE",
"662 81 CURVE SMOOTH",
"662 566 LINE SMOOTH",
"662 593 OFFCURVE",
"671 602 OFFCURVE",
"696 602 CURVE SMOOTH",
"731 602 LINE",
"731 647 LINE",
"594 647 LINE",
"388 161 LINE",
"182 647 LINE",
"45 647 LINE",
"45 602 LINE",
"80 602 LINE SMOOTH",
"105 602 OFFCURVE",
"114 593 OFFCURVE",
"114 566 CURVE SMOOTH",
"114 81 LINE SMOOTH",
"114 54 OFFCURVE",
"105 45 OFFCURVE",
"80 45 CURVE SMOOTH",
"45 45 LINE",
"45 0 LINE"
);
}
);
width = 776;
}
);
note = M;
unicode = 004D;
},
{
glyphname = Mdotbelow;
lastChange = "2015-08-02 14:20:20 +0000";
layers = (
{
layerId = "645D555E-8173-41F2-AA70-2E5F00C66FC5";
name = Light;
paths = (
{
closed = 1;
nodes = (
"236 0 LINE",
"236 45 LINE",
"201 45 LINE SMOOTH",
"176 45 OFFCURVE",
"167 54 OFFCURVE",
"167 81 CURVE SMOOTH",
"167 564 LINE",
"364 100 LINE",
"412 100 LINE",
"609 564 LINE",
"609 81 LINE SMOOTH",
"609 54 OFFCURVE",
"600 45 OFFCURVE",
"575 45 CURVE SMOOTH",
"540 45 LINE",
"540 0 LINE",
"731 0 LINE",
"731 45 LINE",
"696 45 LINE SMOOTH",
"671 45 OFFCURVE",
"662 54 OFFCURVE",
"662 81 CURVE SMOOTH",
"662 566 LINE SMOOTH",
"662 593 OFFCURVE",
"671 602 OFFCURVE",
"696 602 CURVE SMOOTH",
"731 602 LINE",
"731 647 LINE",
"594 647 LINE",
"388 161 LINE",
"182 647 LINE",
"45 647 LINE",
"45 602 LINE",
"80 602 LINE SMOOTH",
"105 602 OFFCURVE",
"114 593 OFFCURVE",
"114 566 CURVE SMOOTH",
"114 81 LINE SMOOTH",
"114 54 OFFCURVE",
"105 45 OFFCURVE",
"80 45 CURVE SMOOTH",
"45 45 LINE",
"45 0 LINE"
);
},
{
closed = 1;
nodes = (
"422 -132 LINE",
"422 -64 LINE",
"354 -64 LINE",
"354 -132 LINE"
);
}
);
width = 776;
}
);
note = Mdotbelow;
unicode = 1E42;
},
{
glyphname = N;
lastChange = "2015-08-02 14:20:18 +0000";
layers = (
{
layerId = "645D555E-8173-41F2-AA70-2E5F00C66FC5";
name = Light;
paths = (
{
closed = 1;
nodes = (
"236 0 LINE",
"236 45 LINE",
"201 45 LINE SMOOTH",
"176 45 OFFCURVE",
"167 54 OFFCURVE",
"167 81 CURVE SMOOTH",
"167 553 LINE",
"524 0 LINE",
"572 0 LINE",
"572 566 LINE SMOOTH",
"572 593 OFFCURVE",
"581 602 OFFCURVE",
"606 602 CURVE SMOOTH",
"641 602 LINE",
"641 647 LINE",
"450 647 LINE",
"450 602 LINE",
"485 602 LINE SMOOTH",
"510 602 OFFCURVE",
"519 593 OFFCURVE",
"519 566 CURVE SMOOTH",
"519 94 LINE",
"162 647 LINE",
"45 647 LINE",
"45 602 LINE",
"80 602 LINE SMOOTH",
"105 602 OFFCURVE",
"114 593 OFFCURVE",
"114 566 CURVE SMOOTH",
"114 81 LINE SMOOTH",
"114 54 OFFCURVE",
"105 45 OFFCURVE",
"80 45 CURVE SMOOTH",
"45 45 LINE",
"45 0 LINE"
);
}
);
width = 686;
}
);
note = N;
unicode = 004E;
},
{
glyphname = Nacute;
lastChange = "2015-08-02 14:20:20 +0000";
layers = (
{
layerId = "645D555E-8173-41F2-AA70-2E5F00C66FC5";
name = Light;
paths = (
{
closed = 1;
nodes = (
"236 0 LINE",
"236 45 LINE",
"201 45 LINE SMOOTH",
"176 45 OFFCURVE",
"167 54 OFFCURVE",
"167 81 CURVE SMOOTH",
"167 553 LINE",
"524 0 LINE",
"572 0 LINE",
"572 566 LINE SMOOTH",
"572 593 OFFCURVE",
"581 602 OFFCURVE",
"606 602 CURVE SMOOTH",
"641 602 LINE",
"641 647 LINE",
"450 647 LINE",
"450 602 LINE",
"485 602 LINE SMOOTH",
"510 602 OFFCURVE",
"519 593 OFFCURVE",
"519 566 CURVE SMOOTH",
"519 94 LINE",
"162 647 LINE",
"45 647 LINE",
"45 602 LINE",
"80 602 LINE SMOOTH",
"105 602 OFFCURVE",
"114 593 OFFCURVE",
"114 566 CURVE SMOOTH",
"114 81 LINE SMOOTH",
"114 54 OFFCURVE",
"105 45 OFFCURVE",
"80 45 CURVE SMOOTH",
"45 45 LINE",
"45 0 LINE"
);
},
{
closed = 1;
nodes = (
"347 703 LINE",
"463 881 LINE",
"384 881 LINE",
"299 703 LINE"
);
}
);
width = 686;
}
);
note = Nacute;
unicode = 0143;
},
{
glyphname = Ncaron;
lastChange = "2015-08-02 14:20:19 +0000";
layers = (
{
layerId = "645D555E-8173-41F2-AA70-2E5F00C66FC5";
name = Light;
paths = (
{
closed = 1;
nodes = (
"236 0 LINE",
"236 45 LINE",
"201 45 LINE SMOOTH",
"176 45 OFFCURVE",
"167 54 OFFCURVE",
"167 81 CURVE SMOOTH",
"167 553 LINE",
"524 0 LINE",
"572 0 LINE",
"572 566 LINE SMOOTH",
"572 593 OFFCURVE",
"581 602 OFFCURVE",
"606 602 CURVE SMOOTH",
"641 602 LINE",
"641 647 LINE",
"450 647 LINE",
"450 602 LINE",
"485 602 LINE SMOOTH",
"510 602 OFFCURVE",
"519 593 OFFCURVE",
"519 566 CURVE SMOOTH",
"519 94 LINE",
"162 647 LINE",
"45 647 LINE",
"45 602 LINE",
"80 602 LINE SMOOTH",
"105 602 OFFCURVE",
"114 593 OFFCURVE",
"114 566 CURVE SMOOTH",
"114 81 LINE SMOOTH",
"114 54 OFFCURVE",
"105 45 OFFCURVE",
"80 45 CURVE SMOOTH",
"45 45 LINE",
"45 0 LINE"
);
},
{
closed = 1;
nodes = (
"372 703 LINE",
"487 881 LINE",
"429 881 LINE",
"337 742 LINE",
"246 881 LINE",
"188 881 LINE",
"303 703 LINE"
);
}
);
width = 686;
}
);
note = Ncaron;
unicode = 0147;
},
{
glyphname = Ncommaaccent;
lastChange = "2015-08-02 14:20:19 +0000";
layers = (
{
layerId = "645D555E-8173-41F2-AA70-2E5F00C66FC5";
name = Light;
paths = (
{
closed = 1;
nodes = (
"236 0 LINE",
"236 45 LINE",
"201 45 LINE SMOOTH",
"176 45 OFFCURVE",
"167 54 OFFCURVE",
"167 81 CURVE SMOOTH",
"167 553 LINE",
"524 0 LINE",
"572 0 LINE",
"572 566 LINE SMOOTH",
"572 593 OFFCURVE",
"581 602 OFFCURVE",
"606 602 CURVE SMOOTH",
"641 602 LINE",
"641 647 LINE",
"450 647 LINE",
"450 602 LINE",
"485 602 LINE SMOOTH",
"510 602 OFFCURVE",
"519 593 OFFCURVE",
"519 566 CURVE SMOOTH",
"519 94 LINE",
"162 647 LINE",
"45 647 LINE",
"45 602 LINE",
"80 602 LINE SMOOTH",
"105 602 OFFCURVE",
"114 593 OFFCURVE",
"114 566 CURVE SMOOTH",
"114 81 LINE SMOOTH",
"114 54 OFFCURVE",
"105 45 OFFCURVE",
"80 45 CURVE SMOOTH",
"45 45 LINE",
"45 0 LINE"
);
},
{
closed = 1;
nodes = (
"340 -234 LINE",
"396 -49 LINE",
"329 -49 LINE",
"301 -234 LINE"
);
}
);
width = 686;
}
);
note = Ncommaaccent;
unicode = 0145;
},
{
glyphname = Ndotaccent;
lastChange = "2015-08-02 14:20:19 +0000";
layers = (
{
layerId = "645D555E-8173-41F2-AA70-2E5F00C66FC5";
name = Light;
paths = (
{
closed = 1;
nodes = (
"236 0 LINE",
"236 45 LINE",
"201 45 LINE SMOOTH",
"176 45 OFFCURVE",
"167 54 OFFCURVE",
"167 81 CURVE SMOOTH",
"167 553 LINE",
"524 0 LINE",
"572 0 LINE",
"572 566 LINE SMOOTH",
"572 593 OFFCURVE",
"581 602 OFFCURVE",
"606 602 CURVE SMOOTH",
"641 602 LINE",
"641 647 LINE",
"450 647 LINE",
"450 602 LINE",
"485 602 LINE SMOOTH",
"510 602 OFFCURVE",
"519 593 OFFCURVE",
"519 566 CURVE SMOOTH",
"519 94 LINE",
"162 647 LINE",
"45 647 LINE",
"45 602 LINE",
"80 602 LINE SMOOTH",
"105 602 OFFCURVE",
"114 593 OFFCURVE",
"114 566 CURVE SMOOTH",
"114 81 LINE SMOOTH",
"114 54 OFFCURVE",
"105 45 OFFCURVE",
"80 45 CURVE SMOOTH",
"45 45 LINE",
"45 0 LINE"
);
},
{
closed = 1;
nodes = (
"377 723 LINE",
"377 791 LINE",
"309 791 LINE",
"309 723 LINE"
);
}
);
width = 686;
}
);
note = Ndotaccent;
unicode = 1E44;
},
{
glyphname = Ndotbelow;
lastChange = "2015-08-02 14:20:20 +0000";
layers = (
{
layerId = "645D555E-8173-41F2-AA70-2E5F00C66FC5";
name = Light;
paths = (
{
closed = 1;
nodes = (
"236 0 LINE",
"236 45 LINE",
"201 45 LINE SMOOTH",
"176 45 OFFCURVE",
"167 54 OFFCURVE",
"167 81 CURVE SMOOTH",
"167 553 LINE",
"524 0 LINE",
"572 0 LINE",
"572 566 LINE SMOOTH",
"572 593 OFFCURVE",
"581 602 OFFCURVE",
"606 602 CURVE SMOOTH",
"641 602 LINE",
"641 647 LINE",
"450 647 LINE",
"450 602 LINE",
"485 602 LINE SMOOTH",
"510 602 OFFCURVE",
"519 593 OFFCURVE",
"519 566 CURVE SMOOTH",
"519 94 LINE",
"162 647 LINE",
"45 647 LINE",
"45 602 LINE",
"80 602 LINE SMOOTH",
"105 602 OFFCURVE",
"114 593 OFFCURVE",
"114 566 CURVE SMOOTH",
"114 81 LINE SMOOTH",
"114 54 OFFCURVE",
"105 45 OFFCURVE",
"80 45 CURVE SMOOTH",
"45 45 LINE",
"45 0 LINE"
);
},
{
closed = 1;
nodes = (
"382 -132 LINE",
"382 -64 LINE",
"314 -64 LINE",
"314 -132 LINE"
);
}
);
width = 686;
}
);
note = Ndotbelow;
unicode = 1E46;
},
{
glyphname = Eng;
lastChange = "2015-08-02 14:20:18 +0000";
layers = (
{
layerId = "645D555E-8173-41F2-AA70-2E5F00C66FC5";
name = Light;
paths = (
{
closed = 1;
nodes = (
"511 -285 OFFCURVE",
"572 -213 OFFCURVE",
"572 -96 CURVE SMOOTH",
"572 566 LINE SMOOTH",
"572 593 OFFCURVE",
"581 602 OFFCURVE",
"606 602 CURVE SMOOTH",
"641 602 LINE",
"641 647 LINE",
"450 647 LINE",
"450 602 LINE",
"485 602 LINE SMOOTH",
"510 602 OFFCURVE",
"519 593 OFFCURVE",
"519 566 CURVE SMOOTH",
"519 94 LINE",
"162 647 LINE",
"45 647 LINE",
"45 602 LINE",
"80 602 LINE SMOOTH",
"105 602 OFFCURVE",
"114 593 OFFCURVE",
"114 566 CURVE SMOOTH",
"114 81 LINE SMOOTH",
"114 54 OFFCURVE",
"105 45 OFFCURVE",
"80 45 CURVE SMOOTH",
"45 45 LINE",
"45 0 LINE",
"236 0 LINE",
"236 45 LINE",
"201 45 LINE SMOOTH",
"176 45 OFFCURVE",
"167 54 OFFCURVE",
"167 81 CURVE SMOOTH",
"167 553 LINE",
"519 7 LINE",
"519 -100 LINE SMOOTH",
"519 -190 OFFCURVE",
"481 -239 OFFCURVE",
"390 -239 CURVE SMOOTH",
"340 -239 OFFCURVE",
"298 -226 OFFCURVE",
"270 -196 CURVE",
"270 -153 LINE",
"218 -153 LINE",
"218 -218 LINE",
"259 -259 OFFCURVE",
"312 -285 OFFCURVE",
"394 -285 CURVE SMOOTH"
);
}
);
width = 686;
}
);
note = Eng;
unicode = 014A;
},
{
glyphname = Nlinebelow;
lastChange = "2015-08-02 14:20:20 +0000";
layers = (
{
layerId = "645D555E-8173-41F2-AA70-2E5F00C66FC5";
name = Light;
paths = (
{
closed = 1;
nodes = (
"236 0 LINE",
"236 45 LINE",
"201 45 LINE SMOOTH",
"176 45 OFFCURVE",
"167 54 OFFCURVE",
"167 81 CURVE SMOOTH",
"167 553 LINE",
"524 0 LINE",
"572 0 LINE",
"572 566 LINE SMOOTH",
"572 593 OFFCURVE",
"581 602 OFFCURVE",
"606 602 CURVE SMOOTH",
"641 602 LINE",
"641 647 LINE",
"450 647 LINE",
"450 602 LINE",
"485 602 LINE SMOOTH",
"510 602 OFFCURVE",
"519 593 OFFCURVE",
"519 566 CURVE SMOOTH",
"519 94 LINE",
"162 647 LINE",
"45 647 LINE",
"45 602 LINE",
"80 602 LINE SMOOTH",
"105 602 OFFCURVE",
"114 593 OFFCURVE",
"114 566 CURVE SMOOTH",
"114 81 LINE SMOOTH",
"114 54 OFFCURVE",
"105 45 OFFCURVE",
"80 45 CURVE SMOOTH",
"45 45 LINE",
"45 0 LINE"
);
},
{
closed = 1;
nodes = (
"474 -121 LINE",
"474 -76 LINE",
"203 -76 LINE",
"203 -121 LINE"
);
}
);
width = 686;
}
);
note = Nlinebelow;
unicode = 1E48;
},
{
glyphname = Ntilde;
lastChange = "2015-08-02 14:20:19 +0000";
layers = (
{
layerId = "645D555E-8173-41F2-AA70-2E5F00C66FC5";
name = Light;
paths = (
{
closed = 1;
nodes = (
"236 0 LINE",
"236 45 LINE",
"201 45 LINE SMOOTH",
"176 45 OFFCURVE",
"167 54 OFFCURVE",
"167 81 CURVE SMOOTH",
"167 553 LINE",
"524 0 LINE",
"572 0 LINE",
"572 566 LINE SMOOTH",
"572 593 OFFCURVE",
"581 602 OFFCURVE",
"606 602 CURVE SMOOTH",
"641 602 LINE",
"641 647 LINE",
"450 647 LINE",
"450 602 LINE",
"485 602 LINE SMOOTH",
"510 602 OFFCURVE",
"519 593 OFFCURVE",
"519 566 CURVE SMOOTH",
"519 94 LINE",
"162 647 LINE",
"45 647 LINE",
"45 602 LINE",
"80 602 LINE SMOOTH",
"105 602 OFFCURVE",
"114 593 OFFCURVE",
"114 566 CURVE SMOOTH",
"114 81 LINE SMOOTH",
"114 54 OFFCURVE",
"105 45 OFFCURVE",
"80 45 CURVE SMOOTH",
"45 45 LINE",
"45 0 LINE"
);
},
{
closed = 1;
nodes = (
"214 703 LINE",
"214 752 OFFCURVE",
"230 762 OFFCURVE",
"259 762 CURVE SMOOTH",
"319 762 OFFCURVE",
"360 703 OFFCURVE",
"426 703 CURVE SMOOTH",
"484 703 OFFCURVE",
"518 734 OFFCURVE",
"518 808 CURVE",
"471 808 LINE",
"471 759 OFFCURVE",
"455 749 OFFCURVE",
"426 749 CURVE SMOOTH",
"373 749 OFFCURVE",
"330 808 OFFCURVE",
"259 808 CURVE SMOOTH",
"201 808 OFFCURVE",
"167 777 OFFCURVE",
"167 703 CURVE"
);
}
);
width = 686;
}
);
note = Ntilde;
unicode = 00D1;
},
{
glyphname = O;
lastChange = "2015-08-02 14:20:19 +0000";
layers = (
{
layerId = "645D555E-8173-41F2-AA70-2E5F00C66FC5";
name = Light;
paths = (
{
closed = 1;
nodes = (
"517 -15 OFFCURVE",
"607 97 OFFCURVE",
"607 321 CURVE SMOOTH",
"607 545 OFFCURVE",
"524 662 OFFCURVE",
"326 662 CURVE SMOOTH",
"128 662 OFFCURVE",
"45 545 OFFCURVE",
"45 321 CURVE SMOOTH",
"45 97 OFFCURVE",
"135 -15 OFFCURVE",
"326 -15 CURVE SMOOTH"
);
},
{
closed = 1;
nodes = (
"179 31 OFFCURVE",
"96 110 OFFCURVE",
"96 321 CURVE SMOOTH",
"96 536 OFFCURVE",
"177 616 OFFCURVE",
"326 616 CURVE SMOOTH",
"475 616 OFFCURVE",
"556 536 OFFCURVE",
"556 321 CURVE SMOOTH",
"556 110 OFFCURVE",
"473 31 OFFCURVE",
"326 31 CURVE SMOOTH"
);
}
);
width = 652;
}
);
leftKerningGroup = O;
note = O;
rightKerningGroup = O;
unicode = 004F;
},
{
glyphname = Oacute;
lastChange = "2015-08-02 14:20:19 +0000";
layers = (
{
layerId = "645D555E-8173-41F2-AA70-2E5F00C66FC5";
name = Light;
paths = (
{
closed = 1;
nodes = (
"517 -15 OFFCURVE",
"607 97 OFFCURVE",
"607 321 CURVE SMOOTH",
"607 545 OFFCURVE",
"524 662 OFFCURVE",
"326 662 CURVE SMOOTH",
"128 662 OFFCURVE",
"45 545 OFFCURVE",
"45 321 CURVE SMOOTH",
"45 97 OFFCURVE",
"135 -15 OFFCURVE",
"326 -15 CURVE SMOOTH"
);
},
{
closed = 1;
nodes = (
"179 31 OFFCURVE",
"96 110 OFFCURVE",
"96 321 CURVE SMOOTH",
"96 536 OFFCURVE",
"177 616 OFFCURVE",
"326 616 CURVE SMOOTH",
"475 616 OFFCURVE",
"556 536 OFFCURVE",
"556 321 CURVE SMOOTH",
"556 110 OFFCURVE",
"473 31 OFFCURVE",
"326 31 CURVE SMOOTH"
);
},
{
closed = 1;
nodes = (
"336 703 LINE",
"452 881 LINE",
"373 881 LINE",
"288 703 LINE"
);
}
);
width = 652;
}
);
leftKerningGroup = O;
note = Oacute;
rightKerningGroup = O;
unicode = 00D3;
},
{
glyphname = Obreve;
lastChange = "2015-08-02 14:20:20 +0000";
layers = (
{
layerId = "645D555E-8173-41F2-AA70-2E5F00C66FC5";
name = Light;
paths = (
{
closed = 1;
nodes = (
"517 -15 OFFCURVE",
"607 97 OFFCURVE",
"607 321 CURVE SMOOTH",
"607 545 OFFCURVE",
"524 662 OFFCURVE",
"326 662 CURVE SMOOTH",
"128 662 OFFCURVE",
"45 545 OFFCURVE",
"45 321 CURVE SMOOTH",
"45 97 OFFCURVE",
"135 -15 OFFCURVE",
"326 -15 CURVE SMOOTH"
);
},
{
closed = 1;
nodes = (
"179 31 OFFCURVE",
"96 110 OFFCURVE",
"96 321 CURVE SMOOTH",
"96 536 OFFCURVE",
"177 616 OFFCURVE",
"326 616 CURVE SMOOTH",
"475 616 OFFCURVE",
"556 536 OFFCURVE",
"556 321 CURVE SMOOTH",
"556 110 OFFCURVE",
"473 31 OFFCURVE",
"326 31 CURVE SMOOTH"
);
},
{
closed = 1;
nodes = (
"406 703 OFFCURVE",
"466 753 OFFCURVE",
"466 833 CURVE",
"423 833 LINE",
"423 776 OFFCURVE",
"383 746 OFFCURVE",
"326 746 CURVE SMOOTH",
"269 746 OFFCURVE",
"229 776 OFFCURVE",
"229 833 CURVE",
"186 833 LINE",
"186 753 OFFCURVE",
"246 703 OFFCURVE",
"326 703 CURVE SMOOTH"
);
}
);
width = 652;
}
);
leftKerningGroup = O;
note = Obreve;
rightKerningGroup = O;
unicode = 014E;
},
{
glyphname = Ocaron;
lastChange = "2015-08-02 14:20:19 +0000";
layers = (
{
layerId = "645D555E-8173-41F2-AA70-2E5F00C66FC5";
name = Light;
paths = (
{
closed = 1;
nodes = (
"517 -15 OFFCURVE",
"607 97 OFFCURVE",
"607 321 CURVE SMOOTH",
"607 545 OFFCURVE",
"524 662 OFFCURVE",
"326 662 CURVE SMOOTH",
"128 662 OFFCURVE",
"45 545 OFFCURVE",
"45 321 CURVE SMOOTH",
"45 97 OFFCURVE",
"135 -15 OFFCURVE",
"326 -15 CURVE SMOOTH"
);
},
{
closed = 1;
nodes = (
"179 31 OFFCURVE",
"96 110 OFFCURVE",
"96 321 CURVE SMOOTH",
"96 536 OFFCURVE",
"177 616 OFFCURVE",
"326 616 CURVE SMOOTH",
"475 616 OFFCURVE",
"556 536 OFFCURVE",
"556 321 CURVE SMOOTH",
"556 110 OFFCURVE",
"473 31 OFFCURVE",
"326 31 CURVE SMOOTH"
);
},
{
closed = 1;
nodes = (
"361 703 LINE",
"476 881 LINE",
"418 881 LINE",
"326 742 LINE",
"235 881 LINE",
"177 881 LINE",
"292 703 LINE"
);
}
);
width = 652;
}
);
leftKerningGroup = O;
note = Ocaron;
rightKerningGroup = O;
unicode = 01D1;
},
{
glyphname = Ocircumflex;
lastChange = "2015-08-02 14:20:19 +0000";
layers = (
{
layerId = "645D555E-8173-41F2-AA70-2E5F00C66FC5";
name = Light;
paths = (
{
closed = 1;
nodes = (
"517 -15 OFFCURVE",
"607 97 OFFCURVE",
"607 321 CURVE SMOOTH",
"607 545 OFFCURVE",
"524 662 OFFCURVE",
"326 662 CURVE SMOOTH",
"128 662 OFFCURVE",
"45 545 OFFCURVE",
"45 321 CURVE SMOOTH",
"45 97 OFFCURVE",
"135 -15 OFFCURVE",
"326 -15 CURVE SMOOTH"
);
},
{
closed = 1;
nodes = (
"179 31 OFFCURVE",
"96 110 OFFCURVE",
"96 321 CURVE SMOOTH",
"96 536 OFFCURVE",
"177 616 OFFCURVE",
"326 616 CURVE SMOOTH",
"475 616 OFFCURVE",
"556 536 OFFCURVE",
"556 321 CURVE SMOOTH",
"556 110 OFFCURVE",
"473 31 OFFCURVE",
"326 31 CURVE SMOOTH"
);
},
{
closed = 1;
nodes = (
"235 703 LINE",
"326 842 LINE",
"418 703 LINE",
"476 703 LINE",
"361 881 LINE",
"292 881 LINE",
"177 703 LINE"
);
}
);
width = 652;
}
);
leftKerningGroup = O;
note = Ocircumflex;
rightKerningGroup = O;
unicode = 00D4;
},
{
glyphname = Ocircumflexacute;
lastChange = "2015-08-02 14:20:19 +0000";
layers = (
{
layerId = "645D555E-8173-41F2-AA70-2E5F00C66FC5";
name = Light;
paths = (
{
closed = 1;
nodes = (
"517 -15 OFFCURVE",
"607 97 OFFCURVE",
"607 321 CURVE SMOOTH",
"607 545 OFFCURVE",
"524 662 OFFCURVE",
"326 662 CURVE SMOOTH",
"128 662 OFFCURVE",
"45 545 OFFCURVE",
"45 321 CURVE SMOOTH",
"45 97 OFFCURVE",
"135 -15 OFFCURVE",
"326 -15 CURVE SMOOTH"
);
},
{
closed = 1;
nodes = (
"179 31 OFFCURVE",
"96 110 OFFCURVE",
"96 321 CURVE SMOOTH",
"96 536 OFFCURVE",
"177 616 OFFCURVE",
"326 616 CURVE SMOOTH",
"475 616 OFFCURVE",
"556 536 OFFCURVE",
"556 321 CURVE SMOOTH",
"556 110 OFFCURVE",
"473 31 OFFCURVE",
"326 31 CURVE SMOOTH"
);
},
{
closed = 1;
nodes = (
"250 703 LINE",
"326 802 LINE",
"403 703 LINE",
"461 703 LINE",
"361 831 LINE",
"292 831 LINE",
"192 703 LINE"
);
},
{
closed = 1;
nodes = (
"464 808 LINE",
"558 923 LINE",
"479 923 LINE",
"416 808 LINE"
);
}
);
width = 652;
}
);
leftKerningGroup = O;
note = Ocircumflexacute;
rightKerningGroup = O;
unicode = 1ED0;
},
{
glyphname = Ocircumflexdotbelow;
lastChange = "2015-08-02 14:20:19 +0000";
layers = (
{
layerId = "645D555E-8173-41F2-AA70-2E5F00C66FC5";
name = Light;
paths = (
{
closed = 1;
nodes = (
"517 -15 OFFCURVE",
"607 97 OFFCURVE",
"607 321 CURVE SMOOTH",
"607 545 OFFCURVE",
"524 662 OFFCURVE",
"326 662 CURVE SMOOTH",
"128 662 OFFCURVE",
"45 545 OFFCURVE",
"45 321 CURVE SMOOTH",
"45 97 OFFCURVE",
"135 -15 OFFCURVE",
"326 -15 CURVE SMOOTH"
);
},
{
closed = 1;
nodes = (
"360 -132 LINE",
"360 -64 LINE",
"292 -64 LINE",
"292 -132 LINE"
);
},
{
closed = 1;
nodes = (
"179 31 OFFCURVE",
"96 110 OFFCURVE",
"96 321 CURVE SMOOTH",
"96 536 OFFCURVE",
"177 616 OFFCURVE",
"326 616 CURVE SMOOTH",
"475 616 OFFCURVE",
"556 536 OFFCURVE",
"556 321 CURVE SMOOTH",
"556 110 OFFCURVE",
"473 31 OFFCURVE",
"326 31 CURVE SMOOTH"
);
},
{
closed = 1;
nodes = (
"235 703 LINE",
"326 842 LINE",
"418 703 LINE",
"476 703 LINE",
"361 881 LINE",
"292 881 LINE",
"177 703 LINE"
);
}
);
width = 652;
}
);
leftKerningGroup = O;
note = Ocircumflexdotbelow;
rightKerningGroup = O;
unicode = 1ED8;
},
{
glyphname = Ocircumflexgrave;
lastChange = "2015-08-02 14:20:20 +0000";
layers = (
{
layerId = "645D555E-8173-41F2-AA70-2E5F00C66FC5";
name = Light;
paths = (
{
closed = 1;
nodes = (
"517 -15 OFFCURVE",
"607 97 OFFCURVE",
"607 321 CURVE SMOOTH",
"607 545 OFFCURVE",
"524 662 OFFCURVE",
"326 662 CURVE SMOOTH",
"128 662 OFFCURVE",
"45 545 OFFCURVE",
"45 321 CURVE SMOOTH",
"45 97 OFFCURVE",
"135 -15 OFFCURVE",
"326 -15 CURVE SMOOTH"
);
},
{
closed = 1;
nodes = (
"179 31 OFFCURVE",
"96 110 OFFCURVE",
"96 321 CURVE SMOOTH",
"96 536 OFFCURVE",
"177 616 OFFCURVE",
"326 616 CURVE SMOOTH",
"475 616 OFFCURVE",
"556 536 OFFCURVE",
"556 321 CURVE SMOOTH",
"556 110 OFFCURVE",
"473 31 OFFCURVE",
"326 31 CURVE SMOOTH"
);
},
{
closed = 1;
nodes = (
"236 808 LINE",
"173 923 LINE",
"94 923 LINE",
"188 808 LINE"
);
},
{
closed = 1;
nodes = (
"249 703 LINE",
"326 802 LINE",
"402 703 LINE",
"460 703 LINE",
"360 831 LINE",
"291 831 LINE",
"191 703 LINE"
);
}
);
width = 652;
}
);
leftKerningGroup = O;
note = Ocircumflexgrave;
rightKerningGroup = O;
unicode = 1ED2;
},
{
glyphname = Ocircumflexhookabove;
lastChange = "2015-08-02 14:20:20 +0000";
layers = (
{
layerId = "645D555E-8173-41F2-AA70-2E5F00C66FC5";
name = Light;
paths = (
{
closed = 1;
nodes = (
"517 -15 OFFCURVE",
"607 97 OFFCURVE",
"607 321 CURVE SMOOTH",
"607 545 OFFCURVE",
"524 662 OFFCURVE",
"326 662 CURVE SMOOTH",
"128 662 OFFCURVE",
"45 545 OFFCURVE",
"45 321 CURVE SMOOTH",
"45 97 OFFCURVE",
"135 -15 OFFCURVE",
"326 -15 CURVE SMOOTH"
);
},
{
closed = 1;
nodes = (
"179 31 OFFCURVE",
"96 110 OFFCURVE",
"96 321 CURVE SMOOTH",
"96 536 OFFCURVE",
"177 616 OFFCURVE",
"326 616 CURVE SMOOTH",
"475 616 OFFCURVE",
"556 536 OFFCURVE",
"556 321 CURVE SMOOTH",
"556 110 OFFCURVE",
"473 31 OFFCURVE",
"326 31 CURVE SMOOTH"
);
},
{
closed = 1;
nodes = (
"251 703 LINE",
"327 802 LINE",
"404 703 LINE",
"462 703 LINE",
"362 831 LINE",
"293 831 LINE",
"193 703 LINE"
);
},
{
closed = 1;
nodes = (
"441 817 LINE",
"441 841 LINE",
"491 847 OFFCURVE",
"512 866 OFFCURVE",
"512 908 CURVE SMOOTH",
"512 951 OFFCURVE",
"489 980 OFFCURVE",
"436 980 CURVE SMOOTH",
"416 980 OFFCURVE",
"394 976 OFFCURVE",
"381 971 CURVE",
"381 930 LINE",
"394 934 OFFCURVE",
"411 938 OFFCURVE",
"429 938 CURVE SMOOTH",
"452 938 OFFCURVE",
"469 930 OFFCURVE",
"469 908 CURVE SMOOTH",
"469 877 OFFCURVE",
"454 869 OFFCURVE",
"397 869 CURVE",
"397 817 LINE"
);
}
);
width = 652;
}
);
leftKerningGroup = O;
note = Ocircumflexhookabove;
rightKerningGroup = O;
unicode = 1ED4;
},
{
glyphname = Ocircumflextilde;
lastChange = "2015-08-02 14:20:19 +0000";
layers = (
{
layerId = "645D555E-8173-41F2-AA70-2E5F00C66FC5";
name = Light;
paths = (
{
closed = 1;
nodes = (
"517 -15 OFFCURVE",
"607 97 OFFCURVE",
"607 321 CURVE SMOOTH",
"607 545 OFFCURVE",
"524 662 OFFCURVE",
"326 662 CURVE SMOOTH",
"128 662 OFFCURVE",
"45 545 OFFCURVE",
"45 321 CURVE SMOOTH",
"45 97 OFFCURVE",
"135 -15 OFFCURVE",
"326 -15 CURVE SMOOTH"
);
},
{
closed = 1;
nodes = (
"179 31 OFFCURVE",
"96 110 OFFCURVE",
"96 321 CURVE SMOOTH",
"96 536 OFFCURVE",
"177 616 OFFCURVE",
"326 616 CURVE SMOOTH",
"475 616 OFFCURVE",
"556 536 OFFCURVE",
"556 321 CURVE SMOOTH",
"556 110 OFFCURVE",
"473 31 OFFCURVE",
"326 31 CURVE SMOOTH"
);
},
{
closed = 1;
nodes = (
"408 703 OFFCURVE",
"468 753 OFFCURVE",
"468 833 CURVE",
"425 833 LINE",
"425 776 OFFCURVE",
"385 746 OFFCURVE",
"328 746 CURVE SMOOTH",
"271 746 OFFCURVE",
"231 776 OFFCURVE",
"231 833 CURVE",
"188 833 LINE",
"188 753 OFFCURVE",
"248 703 OFFCURVE",
"328 703 CURVE SMOOTH"
);
},
{
closed = 1;
nodes = (
"231 875 LINE",
"231 906 OFFCURVE",
"237 924 OFFCURVE",
"261 924 CURVE SMOOTH",
"301 924 OFFCURVE",
"341 875 OFFCURVE",
"393 875 CURVE SMOOTH",
"441 875 OFFCURVE",
"470 896 OFFCURVE",
"470 970 CURVE",
"423 970 LINE",
"423 939 OFFCURVE",
"417 921 OFFCURVE",
"393 921 CURVE SMOOTH",
"354 921 OFFCURVE",
"312 970 OFFCURVE",
"261 970 CURVE SMOOTH",
"213 970 OFFCURVE",
"184 949 OFFCURVE",
"184 875 CURVE"
);
}
);
width = 652;
}
);
leftKerningGroup = O;
note = Ocircumflextilde;
rightKerningGroup = O;
unicode = 1ED6;
},
{
glyphname = Odieresis;
lastChange = "2015-08-02 14:20:20 +0000";
layers = (
{
layerId = "645D555E-8173-41F2-AA70-2E5F00C66FC5";
name = Light;
paths = (
{
closed = 1;
nodes = (
"517 -15 OFFCURVE",
"607 97 OFFCURVE",
"607 321 CURVE SMOOTH",
"607 545 OFFCURVE",
"524 662 OFFCURVE",
"326 662 CURVE SMOOTH",
"128 662 OFFCURVE",
"45 545 OFFCURVE",
"45 321 CURVE SMOOTH",
"45 97 OFFCURVE",
"135 -15 OFFCURVE",
"326 -15 CURVE SMOOTH"
);
},
{
closed = 1;
nodes = (
"179 31 OFFCURVE",
"96 110 OFFCURVE",
"96 321 CURVE SMOOTH",
"96 536 OFFCURVE",
"177 616 OFFCURVE",
"326 616 CURVE SMOOTH",
"475 616 OFFCURVE",
"556 536 OFFCURVE",
"556 321 CURVE SMOOTH",
"556 110 OFFCURVE",
"473 31 OFFCURVE",
"326 31 CURVE SMOOTH"
);
},
{
closed = 1;
nodes = (
"266 723 LINE",
"266 791 LINE",
"198 791 LINE",
"198 723 LINE"
);
},
{
closed = 1;
nodes = (
"455 723 LINE",
"455 791 LINE",
"387 791 LINE",
"387 723 LINE"
);
}
);
width = 652;
}
);
leftKerningGroup = O;
note = Odieresis;
rightKerningGroup = O;
unicode = 00D6;
},
{
glyphname = Odotbelow;
lastChange = "2015-08-02 14:20:20 +0000";
layers = (
{
layerId = "645D555E-8173-41F2-AA70-2E5F00C66FC5";
name = Light;
paths = (
{
closed = 1;
nodes = (
"517 -15 OFFCURVE",
"607 97 OFFCURVE",
"607 321 CURVE SMOOTH",
"607 545 OFFCURVE",
"524 662 OFFCURVE",
"326 662 CURVE SMOOTH",
"128 662 OFFCURVE",
"45 545 OFFCURVE",
"45 321 CURVE SMOOTH",
"45 97 OFFCURVE",
"135 -15 OFFCURVE",
"326 -15 CURVE SMOOTH"
);
},
{
closed = 1;
nodes = (
"360 -132 LINE",
"360 -64 LINE",
"292 -64 LINE",
"292 -132 LINE"
);
},
{
closed = 1;
nodes = (
"179 31 OFFCURVE",
"96 110 OFFCURVE",
"96 321 CURVE SMOOTH",
"96 536 OFFCURVE",
"177 616 OFFCURVE",
"326 616 CURVE SMOOTH",
"475 616 OFFCURVE",
"556 536 OFFCURVE",
"556 321 CURVE SMOOTH",
"556 110 OFFCURVE",
"473 31 OFFCURVE",
"326 31 CURVE SMOOTH"
);
}
);
width = 652;
}
);
leftKerningGroup = O;
note = Odotbelow;
rightKerningGroup = O;
unicode = 1ECC;
},
{
glyphname = Ograve;
lastChange = "2015-08-02 14:20:20 +0000";
layers = (
{
layerId = "645D555E-8173-41F2-AA70-2E5F00C66FC5";
name = Light;
paths = (
{
closed = 1;
nodes = (
"517 -15 OFFCURVE",
"607 97 OFFCURVE",
"607 321 CURVE SMOOTH",
"607 545 OFFCURVE",
"524 662 OFFCURVE",
"326 662 CURVE SMOOTH",
"128 662 OFFCURVE",
"45 545 OFFCURVE",
"45 321 CURVE SMOOTH",
"45 97 OFFCURVE",
"135 -15 OFFCURVE",
"326 -15 CURVE SMOOTH"
);
},
{
closed = 1;
nodes = (
"179 31 OFFCURVE",
"96 110 OFFCURVE",
"96 321 CURVE SMOOTH",
"96 536 OFFCURVE",
"177 616 OFFCURVE",
"326 616 CURVE SMOOTH",
"475 616 OFFCURVE",
"556 536 OFFCURVE",
"556 321 CURVE SMOOTH",
"556 110 OFFCURVE",
"473 31 OFFCURVE",
"326 31 CURVE SMOOTH"
);
},
{
closed = 1;
nodes = (
"354 703 LINE",
"269 881 LINE",
"190 881 LINE",
"306 703 LINE"
);
}
);
width = 652;
}
);
leftKerningGroup = O;
note = Ograve;
rightKerningGroup = O;
unicode = 00D2;
},
{
glyphname = Ohookabove;
lastChange = "2015-08-02 14:20:20 +0000";
layers = (
{
layerId = "645D555E-8173-41F2-AA70-2E5F00C66FC5";
name = Light;
paths = (
{
closed = 1;
nodes = (
"517 -15 OFFCURVE",
"607 97 OFFCURVE",
"607 321 CURVE SMOOTH",
"607 545 OFFCURVE",
"524 662 OFFCURVE",
"326 662 CURVE SMOOTH",
"128 662 OFFCURVE",
"45 545 OFFCURVE",
"45 321 CURVE SMOOTH",
"45 97 OFFCURVE",
"135 -15 OFFCURVE",
"326 -15 CURVE SMOOTH"
);
},
{
closed = 1;
nodes = (
"179 31 OFFCURVE",
"96 110 OFFCURVE",
"96 321 CURVE SMOOTH",
"96 536 OFFCURVE",
"177 616 OFFCURVE",
"326 616 CURVE SMOOTH",
"475 616 OFFCURVE",
"556 536 OFFCURVE",
"556 321 CURVE SMOOTH",
"556 110 OFFCURVE",
"473 31 OFFCURVE",
"326 31 CURVE SMOOTH"
);
},
{
closed = 1;
nodes = (
"352 703 LINE",
"352 741 LINE",
"398 751 OFFCURVE",
"423 777 OFFCURVE",
"423 819 CURVE SMOOTH",
"423 880 OFFCURVE",
"383 901 OFFCURVE",
"322 901 CURVE SMOOTH",
"302 901 OFFCURVE",
"280 897 OFFCURVE",
"267 892 CURVE",
"267 851 LINE",
"280 855 OFFCURVE",
"297 859 OFFCURVE",
"315 859 CURVE SMOOTH",
"360 859 OFFCURVE",
"380 851 OFFCURVE",
"380 819 CURVE SMOOTH",
"380 788 OFFCURVE",
"365 769 OFFCURVE",
"308 769 CURVE",
"308 703 LINE"
);
}
);
width = 652;
}
);
leftKerningGroup = O;
note = Ohookabove;
rightKerningGroup = O;
unicode = 1ECE;
},
{
glyphname = Ohorn;
lastChange = "2015-08-02 14:20:19 +0000";
layers = (
{
layerId = "645D555E-8173-41F2-AA70-2E5F00C66FC5";
name = Light;
paths = (
{
closed = 1;
nodes = (
"517 -15 OFFCURVE",
"607 97 OFFCURVE",
"607 321 CURVE SMOOTH",
"607 405 OFFCURVE",
"595 474 OFFCURVE",
"570 527 CURVE",
"648 535 OFFCURVE",
"680 583 OFFCURVE",
"680 656 CURVE SMOOTH",
"680 689 LINE",
"627 689 LINE",
"627 656 LINE SMOOTH",
"627 599 OFFCURVE",
"612 568 OFFCURVE",
"546 568 CURVE",
"501 630 OFFCURVE",
"429 662 OFFCURVE",
"326 662 CURVE SMOOTH",
"128 662 OFFCURVE",
"45 545 OFFCURVE",
"45 321 CURVE SMOOTH",
"45 97 OFFCURVE",
"135 -15 OFFCURVE",
"326 -15 CURVE SMOOTH"
);
},
{
closed = 1;
nodes = (
"179 31 OFFCURVE",
"96 110 OFFCURVE",
"96 321 CURVE SMOOTH",
"96 536 OFFCURVE",
"177 616 OFFCURVE",
"326 616 CURVE SMOOTH",
"475 616 OFFCURVE",
"556 536 OFFCURVE",
"556 321 CURVE SMOOTH",
"556 110 OFFCURVE",
"473 31 OFFCURVE",
"326 31 CURVE SMOOTH"
);
}
);
width = 690;
}
);
leftKerningGroup = O;
note = Ohorn;
rightKerningGroup = O;
unicode = 01A0;
},
{
glyphname = Ohornacute;
lastChange = "2015-08-02 14:20:19 +0000";
layers = (
{
layerId = "645D555E-8173-41F2-AA70-2E5F00C66FC5";
name = Light;
paths = (
{
closed = 1;
nodes = (
"517 -15 OFFCURVE",
"607 97 OFFCURVE",
"607 321 CURVE SMOOTH",
"607 405 OFFCURVE",
"595 474 OFFCURVE",
"570 527 CURVE",
"648 535 OFFCURVE",
"680 583 OFFCURVE",
"680 656 CURVE SMOOTH",
"680 689 LINE",
"627 689 LINE",
"627 656 LINE SMOOTH",
"627 599 OFFCURVE",
"612 568 OFFCURVE",
"546 568 CURVE",
"501 630 OFFCURVE",
"429 662 OFFCURVE",
"326 662 CURVE SMOOTH",
"128 662 OFFCURVE",
"45 545 OFFCURVE",
"45 321 CURVE SMOOTH",
"45 97 OFFCURVE",
"135 -15 OFFCURVE",
"326 -15 CURVE SMOOTH"
);
},
{
closed = 1;
nodes = (
"179 31 OFFCURVE",
"96 110 OFFCURVE",
"96 321 CURVE SMOOTH",
"96 536 OFFCURVE",
"177 616 OFFCURVE",
"326 616 CURVE SMOOTH",
"475 616 OFFCURVE",
"556 536 OFFCURVE",
"556 321 CURVE SMOOTH",
"556 110 OFFCURVE",
"473 31 OFFCURVE",
"326 31 CURVE SMOOTH"
);
},
{
closed = 1;
nodes = (
"341 703 LINE",
"457 881 LINE",
"378 881 LINE",
"293 703 LINE"
);
}
);
width = 690;
}
);
leftKerningGroup = O;
note = Ohornacute;
rightKerningGroup = O;
unicode = 1EDA;
},
{
glyphname = Ohorndotbelow;
lastChange = "2015-08-02 14:20:19 +0000";
layers = (
{
layerId = "645D555E-8173-41F2-AA70-2E5F00C66FC5";
name = Light;
paths = (
{
closed = 1;
nodes = (
"517 -15 OFFCURVE",
"607 97 OFFCURVE",
"607 321 CURVE SMOOTH",
"607 405 OFFCURVE",
"595 474 OFFCURVE",
"570 527 CURVE",
"648 535 OFFCURVE",
"680 583 OFFCURVE",
"680 656 CURVE SMOOTH",
"680 689 LINE",
"627 689 LINE",
"627 656 LINE SMOOTH",
"627 599 OFFCURVE",
"612 568 OFFCURVE",
"546 568 CURVE",
"501 630 OFFCURVE",
"429 662 OFFCURVE",
"326 662 CURVE SMOOTH",
"128 662 OFFCURVE",
"45 545 OFFCURVE",
"45 321 CURVE SMOOTH",
"45 97 OFFCURVE",
"135 -15 OFFCURVE",
"326 -15 CURVE SMOOTH"
);
},
{
closed = 1;
nodes = (
"358 -132 LINE",
"358 -64 LINE",
"290 -64 LINE",
"290 -132 LINE"
);
},
{
closed = 1;
nodes = (
"179 31 OFFCURVE",
"96 110 OFFCURVE",
"96 321 CURVE SMOOTH",
"96 536 OFFCURVE",
"177 616 OFFCURVE",
"326 616 CURVE SMOOTH",
"475 616 OFFCURVE",
"556 536 OFFCURVE",
"556 321 CURVE SMOOTH",
"556 110 OFFCURVE",
"473 31 OFFCURVE",
"326 31 CURVE SMOOTH"
);
}
);
width = 690;
}
);
leftKerningGroup = O;
note = Ohorndotbelow;
rightKerningGroup = O;
unicode = 1EE2;
},
{
glyphname = Ohorngrave;
lastChange = "2015-08-02 14:20:19 +0000";
layers = (
{
layerId = "645D555E-8173-41F2-AA70-2E5F00C66FC5";
name = Light;
paths = (
{
closed = 1;
nodes = (
"517 -15 OFFCURVE",
"607 97 OFFCURVE",
"607 321 CURVE SMOOTH",
"607 405 OFFCURVE",
"595 474 OFFCURVE",
"570 527 CURVE",
"648 535 OFFCURVE",
"680 583 OFFCURVE",
"680 656 CURVE SMOOTH",
"680 689 LINE",
"627 689 LINE",
"627 656 LINE SMOOTH",
"627 599 OFFCURVE",
"612 568 OFFCURVE",
"546 568 CURVE",
"501 630 OFFCURVE",
"429 662 OFFCURVE",
"326 662 CURVE SMOOTH",
"128 662 OFFCURVE",
"45 545 OFFCURVE",
"45 321 CURVE SMOOTH",
"45 97 OFFCURVE",
"135 -15 OFFCURVE",
"326 -15 CURVE SMOOTH"
);
},
{
closed = 1;
nodes = (
"179 31 OFFCURVE",
"96 110 OFFCURVE",
"96 321 CURVE SMOOTH",
"96 536 OFFCURVE",
"177 616 OFFCURVE",
"326 616 CURVE SMOOTH",
"475 616 OFFCURVE",
"556 536 OFFCURVE",
"556 321 CURVE SMOOTH",
"556 110 OFFCURVE",
"473 31 OFFCURVE",
"326 31 CURVE SMOOTH"
);
},
{
closed = 1;
nodes = (
"349 703 LINE",
"264 881 LINE",
"185 881 LINE",
"301 703 LINE"
);
}
);
width = 690;
}
);
leftKerningGroup = O;
note = Ohorngrave;
rightKerningGroup = O;
unicode = 1EDC;
},
{
glyphname = Ohornhookabove;
lastChange = "2015-08-02 14:20:20 +0000";
layers = (
{
layerId = "645D555E-8173-41F2-AA70-2E5F00C66FC5";
name = Light;
paths = (
{
closed = 1;
nodes = (
"517 -15 OFFCURVE",
"607 97 OFFCURVE",
"607 321 CURVE SMOOTH",
"607 405 OFFCURVE",
"595 474 OFFCURVE",
"570 527 CURVE",
"648 535 OFFCURVE",
"680 583 OFFCURVE",
"680 656 CURVE SMOOTH",
"680 689 LINE",
"627 689 LINE",
"627 656 LINE SMOOTH",
"627 599 OFFCURVE",
"612 568 OFFCURVE",
"546 568 CURVE",
"501 630 OFFCURVE",
"429 662 OFFCURVE",
"326 662 CURVE SMOOTH",
"128 662 OFFCURVE",
"45 545 OFFCURVE",
"45 321 CURVE SMOOTH",
"45 97 OFFCURVE",
"135 -15 OFFCURVE",
"326 -15 CURVE SMOOTH"
);
},
{
closed = 1;
nodes = (
"179 31 OFFCURVE",
"96 110 OFFCURVE",
"96 321 CURVE SMOOTH",
"96 536 OFFCURVE",
"177 616 OFFCURVE",
"326 616 CURVE SMOOTH",
"475 616 OFFCURVE",
"556 536 OFFCURVE",
"556 321 CURVE SMOOTH",
"556 110 OFFCURVE",
"473 31 OFFCURVE",
"326 31 CURVE SMOOTH"
);
},
{
closed = 1;
nodes = (
"346 703 LINE",
"346 741 LINE",
"392 751 OFFCURVE",
"417 777 OFFCURVE",
"417 819 CURVE SMOOTH",
"417 880 OFFCURVE",
"377 901 OFFCURVE",
"316 901 CURVE SMOOTH",
"296 901 OFFCURVE",
"274 897 OFFCURVE",
"261 892 CURVE",
"261 851 LINE",
"274 855 OFFCURVE",
"291 859 OFFCURVE",
"309 859 CURVE SMOOTH",
"354 859 OFFCURVE",
"374 851 OFFCURVE",
"374 819 CURVE SMOOTH",
"374 788 OFFCURVE",
"359 769 OFFCURVE",
"302 769 CURVE",
"302 703 LINE"
);
}
);
width = 690;
}
);
leftKerningGroup = O;
note = Ohornhookabove;
rightKerningGroup = O;
unicode = 1EDE;
},
{
glyphname = Ohorntilde;
lastChange = "2015-08-02 14:20:20 +0000";
layers = (
{
layerId = "645D555E-8173-41F2-AA70-2E5F00C66FC5";
name = Light;
paths = (
{
closed = 1;
nodes = (
"517 -15 OFFCURVE",
"607 97 OFFCURVE",
"607 321 CURVE SMOOTH",
"607 405 OFFCURVE",
"595 474 OFFCURVE",
"570 527 CURVE",
"648 535 OFFCURVE",
"680 583 OFFCURVE",
"680 656 CURVE SMOOTH",
"680 689 LINE",
"627 689 LINE",
"627 656 LINE SMOOTH",
"627 599 OFFCURVE",
"612 568 OFFCURVE",
"546 568 CURVE",
"501 630 OFFCURVE",
"429 662 OFFCURVE",
"326 662 CURVE SMOOTH",
"128 662 OFFCURVE",
"45 545 OFFCURVE",
"45 321 CURVE SMOOTH",
"45 97 OFFCURVE",
"135 -15 OFFCURVE",
"326 -15 CURVE SMOOTH"
);
},
{
closed = 1;
nodes = (
"179 31 OFFCURVE",
"96 110 OFFCURVE",
"96 321 CURVE SMOOTH",
"96 536 OFFCURVE",
"177 616 OFFCURVE",
"326 616 CURVE SMOOTH",
"475 616 OFFCURVE",
"556 536 OFFCURVE",
"556 321 CURVE SMOOTH",
"556 110 OFFCURVE",
"473 31 OFFCURVE",
"326 31 CURVE SMOOTH"
);
},
{
closed = 1;
nodes = (
"214 703 LINE",
"214 752 OFFCURVE",
"230 762 OFFCURVE",
"259 762 CURVE SMOOTH",
"319 762 OFFCURVE",
"360 703 OFFCURVE",
"426 703 CURVE SMOOTH",
"484 703 OFFCURVE",
"518 734 OFFCURVE",
"518 808 CURVE",
"471 808 LINE",
"471 759 OFFCURVE",
"455 749 OFFCURVE",
"426 749 CURVE SMOOTH",
"373 749 OFFCURVE",
"330 808 OFFCURVE",
"259 808 CURVE SMOOTH",
"201 808 OFFCURVE",
"167 777 OFFCURVE",
"167 703 CURVE"
);
}
);
width = 690;
}
);
leftKerningGroup = O;
note = Ohorntilde;
rightKerningGroup = O;
unicode = 1EE0;
},
{
glyphname = Ohungarumlaut;
lastChange = "2015-08-02 14:20:20 +0000";
layers = (
{
layerId = "645D555E-8173-41F2-AA70-2E5F00C66FC5";
name = Light;
paths = (
{
closed = 1;
nodes = (
"517 -15 OFFCURVE",
"607 97 OFFCURVE",
"607 321 CURVE SMOOTH",
"607 545 OFFCURVE",
"524 662 OFFCURVE",
"326 662 CURVE SMOOTH",
"128 662 OFFCURVE",
"45 545 OFFCURVE",
"45 321 CURVE SMOOTH",
"45 97 OFFCURVE",
"135 -15 OFFCURVE",
"326 -15 CURVE SMOOTH"
);
},
{
closed = 1;
nodes = (
"179 31 OFFCURVE",
"96 110 OFFCURVE",
"96 321 CURVE SMOOTH",
"96 536 OFFCURVE",
"177 616 OFFCURVE",
"326 616 CURVE SMOOTH",
"475 616 OFFCURVE",
"556 536 OFFCURVE",
"556 321 CURVE SMOOTH",
"556 110 OFFCURVE",
"473 31 OFFCURVE",
"326 31 CURVE SMOOTH"
);
},
{
closed = 1;
nodes = (
"243 703 LINE",
"359 881 LINE",
"280 881 LINE",
"195 703 LINE"
);
},
{
closed = 1;
nodes = (
"409 703 LINE",
"525 881 LINE",
"446 881 LINE",
"361 703 LINE"
);
}
);
width = 652;
}
);
leftKerningGroup = O;
note = Ohungarumlaut;
rightKerningGroup = O;
unicode = 0150;
},
{
glyphname = Omacron;
lastChange = "2015-08-02 14:20:19 +0000";
layers = (
{
layerId = "645D555E-8173-41F2-AA70-2E5F00C66FC5";
name = Light;
paths = (
{
closed = 1;
nodes = (
"517 -15 OFFCURVE",
"607 97 OFFCURVE",
"607 321 CURVE SMOOTH",
"607 545 OFFCURVE",
"524 662 OFFCURVE",
"326 662 CURVE SMOOTH",
"128 662 OFFCURVE",
"45 545 OFFCURVE",
"45 321 CURVE SMOOTH",
"45 97 OFFCURVE",
"135 -15 OFFCURVE",
"326 -15 CURVE SMOOTH"
);
},
{
closed = 1;
nodes = (
"179 31 OFFCURVE",
"96 110 OFFCURVE",
"96 321 CURVE SMOOTH",
"96 536 OFFCURVE",
"177 616 OFFCURVE",
"326 616 CURVE SMOOTH",
"475 616 OFFCURVE",
"556 536 OFFCURVE",
"556 321 CURVE SMOOTH",
"556 110 OFFCURVE",
"473 31 OFFCURVE",
"326 31 CURVE SMOOTH"
);
},
{
closed = 1;
nodes = (
"462 723 LINE",
"462 768 LINE",
"191 768 LINE",
"191 723 LINE"
);
}
);
width = 652;
}
);
leftKerningGroup = O;
note = Omacron;
rightKerningGroup = O;
unicode = 014C;
},
{
glyphname = Oslash;
lastChange = "2015-08-02 14:20:19 +0000";
layers = (
{
layerId = "645D555E-8173-41F2-AA70-2E5F00C66FC5";
name = Light;
paths = (
{
closed = 1;
nodes = (
"210 -43 LINE",
"225 -2 LINE",
"255 -10 OFFCURVE",
"288 -15 OFFCURVE",
"326 -15 CURVE SMOOTH",
"517 -15 OFFCURVE",
"607 97 OFFCURVE",
"607 321 CURVE SMOOTH",
"607 484 OFFCURVE",
"562 591 OFFCURVE",
"461 636 CURVE",
"481 689 LINE",
"428 689 LINE",
"414 652 LINE",
"388 659 OFFCURVE",
"358 662 OFFCURVE",
"326 662 CURVE SMOOTH",
"128 662 OFFCURVE",
"45 545 OFFCURVE",
"45 321 CURVE SMOOTH",
"45 165 OFFCURVE",
"88 63 OFFCURVE",
"179 16 CURVE",
"157 -43 LINE"
);
},
{
closed = 1;
nodes = (
"131 102 OFFCURVE",
"96 184 OFFCURVE",
"96 321 CURVE SMOOTH",
"96 536 OFFCURVE",
"177 616 OFFCURVE",
"326 616 CURVE SMOOTH",
"352 616 OFFCURVE",
"376 613 OFFCURVE",
"398 608 CURVE",
"196 62 LINE"
);
},
{
closed = 1;
nodes = (
"295 31 OFFCURVE",
"266 34 OFFCURVE",
"241 42 CURVE",
"445 591 LINE",
"517 553 OFFCURVE",
"556 469 OFFCURVE",
"556 321 CURVE SMOOTH",
"556 110 OFFCURVE",
"473 31 OFFCURVE",
"326 31 CURVE SMOOTH"
);
}
);
width = 652;
}
);
leftKerningGroup = O;
note = Oslash;
rightKerningGroup = O;
unicode = 00D8;
},
{
glyphname = Oslashacute;
lastChange = "2015-08-02 14:20:19 +0000";
layers = (
{
layerId = "645D555E-8173-41F2-AA70-2E5F00C66FC5";
name = Light;
paths = (
{
closed = 1;
nodes = (
"210 -43 LINE",
"225 -2 LINE",
"255 -10 OFFCURVE",
"288 -15 OFFCURVE",
"326 -15 CURVE SMOOTH",
"517 -15 OFFCURVE",
"607 97 OFFCURVE",
"607 321 CURVE SMOOTH",
"607 484 OFFCURVE",
"562 591 OFFCURVE",
"461 636 CURVE",
"481 689 LINE",
"428 689 LINE",
"414 652 LINE",
"388 659 OFFCURVE",
"358 662 OFFCURVE",
"326 662 CURVE SMOOTH",
"128 662 OFFCURVE",
"45 545 OFFCURVE",
"45 321 CURVE SMOOTH",
"45 165 OFFCURVE",
"88 63 OFFCURVE",
"179 16 CURVE",
"157 -43 LINE"
);
},
{
closed = 1;
nodes = (
"131 102 OFFCURVE",
"96 184 OFFCURVE",
"96 321 CURVE SMOOTH",
"96 536 OFFCURVE",
"177 616 OFFCURVE",
"326 616 CURVE SMOOTH",
"352 616 OFFCURVE",
"376 613 OFFCURVE",
"398 608 CURVE",
"196 62 LINE"
);
},
{
closed = 1;
nodes = (
"295 31 OFFCURVE",
"266 34 OFFCURVE",
"241 42 CURVE",
"445 591 LINE",
"517 553 OFFCURVE",
"556 469 OFFCURVE",
"556 321 CURVE SMOOTH",
"556 110 OFFCURVE",
"473 31 OFFCURVE",
"326 31 CURVE SMOOTH"
);
},
{
closed = 1;
nodes = (
"333 694 LINE",
"449 872 LINE",
"370 872 LINE",
"285 694 LINE"
);
}
);
width = 652;
}
);
leftKerningGroup = O;
note = Oslashacute;
rightKerningGroup = O;
unicode = 01FE;
},
{
glyphname = Otilde;
lastChange = "2015-08-02 14:20:19 +0000";
layers = (
{
layerId = "645D555E-8173-41F2-AA70-2E5F00C66FC5";
name = Light;
paths = (
{
closed = 1;
nodes = (
"517 -15 OFFCURVE",
"607 97 OFFCURVE",
"607 321 CURVE SMOOTH",
"607 545 OFFCURVE",
"524 662 OFFCURVE",
"326 662 CURVE SMOOTH",
"128 662 OFFCURVE",
"45 545 OFFCURVE",
"45 321 CURVE SMOOTH",
"45 97 OFFCURVE",
"135 -15 OFFCURVE",
"326 -15 CURVE SMOOTH"
);
},
{
closed = 1;
nodes = (
"179 31 OFFCURVE",
"96 110 OFFCURVE",
"96 321 CURVE SMOOTH",
"96 536 OFFCURVE",
"177 616 OFFCURVE",
"326 616 CURVE SMOOTH",
"475 616 OFFCURVE",
"556 536 OFFCURVE",
"556 321 CURVE SMOOTH",
"556 110 OFFCURVE",
"473 31 OFFCURVE",
"326 31 CURVE SMOOTH"
);
},
{
closed = 1;
nodes = (
"198 703 LINE",
"198 752 OFFCURVE",
"214 762 OFFCURVE",
"243 762 CURVE SMOOTH",
"303 762 OFFCURVE",
"344 703 OFFCURVE",
"410 703 CURVE SMOOTH",
"468 703 OFFCURVE",
"502 734 OFFCURVE",
"502 808 CURVE",
"455 808 LINE",
"455 759 OFFCURVE",
"439 749 OFFCURVE",
"410 749 CURVE SMOOTH",
"357 749 OFFCURVE",
"314 808 OFFCURVE",
"243 808 CURVE SMOOTH",
"185 808 OFFCURVE",
"151 777 OFFCURVE",
"151 703 CURVE"
);
}
);
width = 652;
}
);
leftKerningGroup = O;
note = Otilde;
rightKerningGroup = O;
unicode = 00D5;
},
{
glyphname = OE;
lastChange = "2015-08-02 14:20:20 +0000";
layers = (
{
layerId = "645D555E-8173-41F2-AA70-2E5F00C66FC5";
name = Light;
paths = (
{
closed = 1;
nodes = (
"769 0 LINE",
"769 104 LINE",
"721 104 LINE",
"721 79 LINE SMOOTH",
"721 54 OFFCURVE",
"712 45 OFFCURVE",
"685 45 CURVE SMOOTH",
"458 45 LINE",
"458 302 LINE",
"649 302 LINE",
"649 347 LINE",
"458 347 LINE",
"458 602 LINE",
"685 602 LINE SMOOTH",
"712 602 OFFCURVE",
"721 593 OFFCURVE",
"721 568 CURVE SMOOTH",
"721 544 LINE",
"769 544 LINE",
"769 647 LINE",
"336 647 LINE SMOOTH",
"138 647 OFFCURVE",
"45 545 OFFCURVE",
"45 321 CURVE SMOOTH",
"45 97 OFFCURVE",
"145 0 OFFCURVE",
"336 0 CURVE SMOOTH"
);
},
{
closed = 1;
nodes = (
"189 45 OFFCURVE",
"96 110 OFFCURVE",
"96 321 CURVE SMOOTH",
"96 536 OFFCURVE",
"187 601 OFFCURVE",
"336 601 CURVE SMOOTH",
"405 601 LINE",
"405 45 LINE",
"336 45 LINE SMOOTH"
);
}
);
width = 814;
}
);
leftKerningGroup = C;
note = OE;
unicode = 0152;
},
{
glyphname = P;
lastChange = "2015-08-02 14:20:19 +0000";
layers = (
{
layerId = "645D555E-8173-41F2-AA70-2E5F00C66FC5";
name = Light;
paths = (
{
closed = 1;
nodes = (
"236 0 LINE",
"236 45 LINE",
"205 45 LINE SMOOTH",
"174 45 OFFCURVE",
"167 56 OFFCURVE",
"167 81 CURVE SMOOTH",
"167 255 LINE",
"376 255 LINE SMOOTH",
"496 255 OFFCURVE",
"570 335 OFFCURVE",
"570 455 CURVE SMOOTH",
"570 576 OFFCURVE",
"496 647 OFFCURVE",
"377 647 CURVE SMOOTH",
"45 647 LINE",
"45 602 LINE",
"76 602 LINE SMOOTH",
"107 602 OFFCURVE",
"114 591 OFFCURVE",
"114 566 CURVE SMOOTH",
"114 81 LINE SMOOTH",
"114 56 OFFCURVE",
"107 45 OFFCURVE",
"76 45 CURVE SMOOTH",
"45 45 LINE",
"45 0 LINE"
);
},
{
closed = 1;
nodes = (
"167 602 LINE",
"369 602 LINE SMOOTH",
"470 602 OFFCURVE",
"519 567 OFFCURVE",
"519 455 CURVE SMOOTH",
"519 349 OFFCURVE",
"466 300 OFFCURVE",
"369 300 CURVE SMOOTH",
"167 300 LINE"
);
}
);
width = 615;
}
);
note = P;
unicode = 0050;
},
{
glyphname = Thorn;
lastChange = "2015-08-02 14:20:19 +0000";
layers = (
{
layerId = "645D555E-8173-41F2-AA70-2E5F00C66FC5";
name = Light;
paths = (
{
closed = 1;
nodes = (
"236 0 LINE",
"236 45 LINE",
"205 45 LINE SMOOTH",
"174 45 OFFCURVE",
"167 56 OFFCURVE",
"167 81 CURVE SMOOTH",
"167 128 LINE",
"376 128 LINE SMOOTH",
"496 128 OFFCURVE",
"570 207 OFFCURVE",
"570 327 CURVE SMOOTH",
"570 448 OFFCURVE",
"496 519 OFFCURVE",
"377 519 CURVE SMOOTH",
"167 519 LINE",
"167 647 LINE",
"45 647 LINE",
"45 602 LINE",
"76 602 LINE SMOOTH",
"107 602 OFFCURVE",
"114 591 OFFCURVE",
"114 566 CURVE SMOOTH",
"114 81 LINE SMOOTH",
"114 56 OFFCURVE",
"107 45 OFFCURVE",
"76 45 CURVE SMOOTH",
"45 45 LINE",
"45 0 LINE"
);
},
{
closed = 1;
nodes = (
"167 474 LINE",
"369 474 LINE SMOOTH",
"470 474 OFFCURVE",
"519 439 OFFCURVE",
"519 327 CURVE SMOOTH",
"519 221 OFFCURVE",
"466 173 OFFCURVE",
"369 173 CURVE SMOOTH",
"167 173 LINE"
);
}
);
width = 615;
}
);
note = Thorn;
unicode = 00DE;
},
{
glyphname = Q;
lastChange = "2015-08-02 14:20:19 +0000";
layers = (
{
layerId = "645D555E-8173-41F2-AA70-2E5F00C66FC5";
name = Light;
paths = (
{
closed = 1;
nodes = (
"503 -145 OFFCURVE",
"544 -126 OFFCURVE",
"571 -87 CURVE",
"571 -32 LINE",
"518 -32 LINE",
"518 -73 LINE",
"506 -91 OFFCURVE",
"482 -101 OFFCURVE",
"442 -101 CURVE SMOOTH",
"389 -101 OFFCURVE",
"360 -69 OFFCURVE",
"356 -14 CURVE",
"526 -1 OFFCURVE",
"607 137 OFFCURVE",
"607 321 CURVE SMOOTH",
"607 515 OFFCURVE",
"524 662 OFFCURVE",
"326 662 CURVE SMOOTH",
"128 662 OFFCURVE",
"45 515 OFFCURVE",
"45 321 CURVE SMOOTH",
"45 135 OFFCURVE",
"127 -4 OFFCURVE",
"302 -14 CURVE",
"306 -77 OFFCURVE",
"350 -145 OFFCURVE",
"442 -145 CURVE SMOOTH"
);
},
{
closed = 1;
nodes = (
"179 31 OFFCURVE",
"96 140 OFFCURVE",
"96 321 CURVE SMOOTH",
"96 506 OFFCURVE",
"177 616 OFFCURVE",
"326 616 CURVE SMOOTH",
"475 616 OFFCURVE",
"556 506 OFFCURVE",
"556 321 CURVE SMOOTH",
"556 140 OFFCURVE",
"473 31 OFFCURVE",
"326 31 CURVE SMOOTH"
);
}
);
width = 652;
}
);
leftKerningGroup = O;
note = Q;
rightKerningGroup = O;
unicode = 0051;
},
{
glyphname = R;
lastChange = "2015-08-02 14:20:19 +0000";
layers = (
{
layerId = "645D555E-8173-41F2-AA70-2E5F00C66FC5";
name = Light;
paths = (
{
closed = 1;
nodes = (
"236 0 LINE",
"236 45 LINE",
"205 45 LINE SMOOTH",
"174 45 OFFCURVE",
"167 56 OFFCURVE",
"167 81 CURVE SMOOTH",
"167 285 LINE",
"306 285 LINE",
"432 45 LINE",
"374 45 LINE",
"374 0 LINE",
"564 0 LINE",
"564 45 LINE",
"529 45 LINE SMOOTH",
"502 45 OFFCURVE",
"484 53 OFFCURVE",
"470 80 CURVE SMOOTH",
"363 285 LINE",
"477 291 OFFCURVE",
"543 364 OFFCURVE",
"543 470 CURVE SMOOTH",
"543 581 OFFCURVE",
"472 647 OFFCURVE",
"350 647 CURVE SMOOTH",
"45 647 LINE",
"45 602 LINE",
"76 602 LINE SMOOTH",
"107 602 OFFCURVE",
"114 591 OFFCURVE",
"114 566 CURVE SMOOTH",
"114 81 LINE SMOOTH",
"114 56 OFFCURVE",
"107 45 OFFCURVE",
"76 45 CURVE SMOOTH",
"45 45 LINE",
"45 0 LINE"
);
},
{
closed = 1;
nodes = (
"167 602 LINE",
"342 602 LINE SMOOTH",
"446 602 OFFCURVE",
"492 562 OFFCURVE",
"492 470 CURVE SMOOTH",
"492 384 OFFCURVE",
"442 330 OFFCURVE",
"342 330 CURVE SMOOTH",
"167 330 LINE"
);
}
);
width = 609;
}
);
note = R;
rightKerningGroup = R;
unicode = 0052;
},
{
glyphname = Racute;
lastChange = "2015-08-02 14:20:19 +0000";
layers = (
{
layerId = "645D555E-8173-41F2-AA70-2E5F00C66FC5";
name = Light;
paths = (
{
closed = 1;
nodes = (
"236 0 LINE",
"236 45 LINE",
"205 45 LINE SMOOTH",
"174 45 OFFCURVE",
"167 56 OFFCURVE",
"167 81 CURVE SMOOTH",
"167 285 LINE",
"306 285 LINE",
"432 45 LINE",
"374 45 LINE",
"374 0 LINE",
"564 0 LINE",
"564 45 LINE",
"529 45 LINE SMOOTH",
"502 45 OFFCURVE",
"484 53 OFFCURVE",
"470 80 CURVE SMOOTH",
"363 285 LINE",
"477 291 OFFCURVE",
"543 364 OFFCURVE",
"543 470 CURVE SMOOTH",
"543 581 OFFCURVE",
"472 647 OFFCURVE",
"350 647 CURVE SMOOTH",
"45 647 LINE",
"45 602 LINE",
"76 602 LINE SMOOTH",
"107 602 OFFCURVE",
"114 591 OFFCURVE",
"114 566 CURVE SMOOTH",
"114 81 LINE SMOOTH",
"114 56 OFFCURVE",
"107 45 OFFCURVE",
"76 45 CURVE SMOOTH",
"45 45 LINE",
"45 0 LINE"
);
},
{
closed = 1;
nodes = (
"167 602 LINE",
"342 602 LINE SMOOTH",
"446 602 OFFCURVE",
"492 562 OFFCURVE",
"492 470 CURVE SMOOTH",
"492 384 OFFCURVE",
"442 330 OFFCURVE",
"342 330 CURVE SMOOTH",
"167 330 LINE"
);
},
{
closed = 1;
nodes = (
"301 703 LINE",
"417 881 LINE",
"338 881 LINE",
"253 703 LINE"
);
}
);
width = 609;
}
);
note = Racute;
rightKerningGroup = R;
unicode = 0154;
},
{
glyphname = Rcaron;
lastChange = "2015-08-02 14:20:20 +0000";
layers = (
{
layerId = "645D555E-8173-41F2-AA70-2E5F00C66FC5";
name = Light;
paths = (
{
closed = 1;
nodes = (
"236 0 LINE",
"236 45 LINE",
"205 45 LINE SMOOTH",
"174 45 OFFCURVE",
"167 56 OFFCURVE",
"167 81 CURVE SMOOTH",
"167 285 LINE",
"306 285 LINE",
"432 45 LINE",
"374 45 LINE",
"374 0 LINE",
"564 0 LINE",
"564 45 LINE",
"529 45 LINE SMOOTH",
"502 45 OFFCURVE",
"484 53 OFFCURVE",
"470 80 CURVE SMOOTH",
"363 285 LINE",
"477 291 OFFCURVE",
"543 364 OFFCURVE",
"543 470 CURVE SMOOTH",
"543 581 OFFCURVE",
"472 647 OFFCURVE",
"350 647 CURVE SMOOTH",
"45 647 LINE",
"45 602 LINE",
"76 602 LINE SMOOTH",
"107 602 OFFCURVE",
"114 591 OFFCURVE",
"114 566 CURVE SMOOTH",
"114 81 LINE SMOOTH",
"114 56 OFFCURVE",
"107 45 OFFCURVE",
"76 45 CURVE SMOOTH",
"45 45 LINE",
"45 0 LINE"
);
},
{
closed = 1;
nodes = (
"167 602 LINE",
"342 602 LINE SMOOTH",
"446 602 OFFCURVE",
"492 562 OFFCURVE",
"492 470 CURVE SMOOTH",
"492 384 OFFCURVE",
"442 330 OFFCURVE",
"342 330 CURVE SMOOTH",
"167 330 LINE"
);
},
{
closed = 1;
nodes = (
"340 703 LINE",
"455 881 LINE",
"397 881 LINE",
"305 742 LINE",
"214 881 LINE",
"156 881 LINE",
"271 703 LINE"
);
}
);
width = 609;
}
);
note = Rcaron;
rightKerningGroup = R;
unicode = 0158;
},
{
glyphname = Rcommaaccent;
lastChange = "2015-08-02 14:20:20 +0000";
layers = (
{
layerId = "645D555E-8173-41F2-AA70-2E5F00C66FC5";
name = Light;
paths = (
{
closed = 1;
nodes = (
"236 0 LINE",
"236 45 LINE",
"205 45 LINE SMOOTH",
"174 45 OFFCURVE",
"167 56 OFFCURVE",
"167 81 CURVE SMOOTH",
"167 285 LINE",
"306 285 LINE",
"432 45 LINE",
"374 45 LINE",
"374 0 LINE",
"564 0 LINE",
"564 45 LINE",
"529 45 LINE SMOOTH",
"502 45 OFFCURVE",
"484 53 OFFCURVE",
"470 80 CURVE SMOOTH",
"363 285 LINE",
"477 291 OFFCURVE",
"543 364 OFFCURVE",
"543 470 CURVE SMOOTH",
"543 581 OFFCURVE",
"472 647 OFFCURVE",
"350 647 CURVE SMOOTH",
"45 647 LINE",
"45 602 LINE",
"76 602 LINE SMOOTH",
"107 602 OFFCURVE",
"114 591 OFFCURVE",
"114 566 CURVE SMOOTH",
"114 81 LINE SMOOTH",
"114 56 OFFCURVE",
"107 45 OFFCURVE",
"76 45 CURVE SMOOTH",
"45 45 LINE",
"45 0 LINE"
);
},
{
closed = 1;
nodes = (
"296 -234 LINE",
"352 -49 LINE",
"285 -49 LINE",
"257 -234 LINE"
);
},
{
closed = 1;
nodes = (
"167 602 LINE",
"342 602 LINE SMOOTH",
"446 602 OFFCURVE",
"492 562 OFFCURVE",
"492 470 CURVE SMOOTH",
"492 384 OFFCURVE",
"442 330 OFFCURVE",
"342 330 CURVE SMOOTH",
"167 330 LINE"
);
}
);
width = 609;
}
);
note = Rcommaaccent;
rightKerningGroup = R;
unicode = 0156;
},
{
glyphname = Rdotbelow;
lastChange = "2015-08-02 14:20:20 +0000";
layers = (
{
layerId = "645D555E-8173-41F2-AA70-2E5F00C66FC5";
name = Light;
paths = (
{
closed = 1;
nodes = (
"236 0 LINE",
"236 45 LINE",
"205 45 LINE SMOOTH",
"174 45 OFFCURVE",
"167 56 OFFCURVE",
"167 81 CURVE SMOOTH",
"167 285 LINE",
"306 285 LINE",
"432 45 LINE",
"374 45 LINE",
"374 0 LINE",
"564 0 LINE",
"564 45 LINE",
"529 45 LINE SMOOTH",
"502 45 OFFCURVE",
"484 53 OFFCURVE",
"470 80 CURVE SMOOTH",
"363 285 LINE",
"477 291 OFFCURVE",
"543 364 OFFCURVE",
"543 470 CURVE SMOOTH",
"543 581 OFFCURVE",
"472 647 OFFCURVE",
"350 647 CURVE SMOOTH",
"45 647 LINE",
"45 602 LINE",
"76 602 LINE SMOOTH",
"107 602 OFFCURVE",
"114 591 OFFCURVE",
"114 566 CURVE SMOOTH",
"114 81 LINE SMOOTH",
"114 56 OFFCURVE",
"107 45 OFFCURVE",
"76 45 CURVE SMOOTH",
"45 45 LINE",
"45 0 LINE"
);
},
{
closed = 1;
nodes = (
"350 -132 LINE",
"350 -64 LINE",
"282 -64 LINE",
"282 -132 LINE"
);
},
{
closed = 1;
nodes = (
"167 602 LINE",
"342 602 LINE SMOOTH",
"446 602 OFFCURVE",
"492 562 OFFCURVE",
"492 470 CURVE SMOOTH",
"492 384 OFFCURVE",
"442 330 OFFCURVE",
"342 330 CURVE SMOOTH",
"167 330 LINE"
);
}
);
width = 609;
}
);
note = Rdotbelow;
rightKerningGroup = R;
unicode = 1E5A;
},
{
glyphname = Rdotbelowmacron;
lastChange = "2015-08-02 14:20:19 +0000";
layers = (
{
layerId = "645D555E-8173-41F2-AA70-2E5F00C66FC5";
name = Light;
paths = (
{
closed = 1;
nodes = (
"236 0 LINE",
"236 45 LINE",
"205 45 LINE SMOOTH",
"174 45 OFFCURVE",
"167 56 OFFCURVE",
"167 81 CURVE SMOOTH",
"167 285 LINE",
"306 285 LINE",
"432 45 LINE",
"374 45 LINE",
"374 0 LINE",
"564 0 LINE",
"564 45 LINE",
"529 45 LINE SMOOTH",
"502 45 OFFCURVE",
"484 53 OFFCURVE",
"470 80 CURVE SMOOTH",
"363 285 LINE",
"477 291 OFFCURVE",
"543 364 OFFCURVE",
"543 470 CURVE SMOOTH",
"543 581 OFFCURVE",
"472 647 OFFCURVE",
"350 647 CURVE SMOOTH",
"45 647 LINE",
"45 602 LINE",
"76 602 LINE SMOOTH",
"107 602 OFFCURVE",
"114 591 OFFCURVE",
"114 566 CURVE SMOOTH",
"114 81 LINE SMOOTH",
"114 56 OFFCURVE",
"107 45 OFFCURVE",
"76 45 CURVE SMOOTH",
"45 45 LINE",
"45 0 LINE"
);
},
{
closed = 1;
nodes = (
"350 -132 LINE",
"350 -64 LINE",
"282 -64 LINE",
"282 -132 LINE"
);
},
{
closed = 1;
nodes = (
"167 602 LINE",
"342 602 LINE SMOOTH",
"446 602 OFFCURVE",
"492 562 OFFCURVE",
"492 470 CURVE SMOOTH",
"492 384 OFFCURVE",
"442 330 OFFCURVE",
"342 330 CURVE SMOOTH",
"167 330 LINE"
);
},
{
closed = 1;
nodes = (
"442 723 LINE",
"442 768 LINE",
"171 768 LINE",
"171 723 LINE"
);
}
);
width = 609;
}
);
note = Rdotbelowmacron;
rightKerningGroup = R;
unicode = 1E5C;
},
{
glyphname = Rlinebelow;
lastChange = "2015-08-02 14:20:20 +0000";
layers = (
{
layerId = "645D555E-8173-41F2-AA70-2E5F00C66FC5";
name = Light;
paths = (
{
closed = 1;
nodes = (
"236 0 LINE",
"236 45 LINE",
"205 45 LINE SMOOTH",
"174 45 OFFCURVE",
"167 56 OFFCURVE",
"167 81 CURVE SMOOTH",
"167 285 LINE",
"306 285 LINE",
"432 45 LINE",
"374 45 LINE",
"374 0 LINE",
"564 0 LINE",
"564 45 LINE",
"529 45 LINE SMOOTH",
"502 45 OFFCURVE",
"484 53 OFFCURVE",
"470 80 CURVE SMOOTH",
"363 285 LINE",
"477 291 OFFCURVE",
"543 364 OFFCURVE",
"543 470 CURVE SMOOTH",
"543 581 OFFCURVE",
"472 647 OFFCURVE",
"350 647 CURVE SMOOTH",
"45 647 LINE",
"45 602 LINE",
"76 602 LINE SMOOTH",
"107 602 OFFCURVE",
"114 591 OFFCURVE",
"114 566 CURVE SMOOTH",
"114 81 LINE SMOOTH",
"114 56 OFFCURVE",
"107 45 OFFCURVE",
"76 45 CURVE SMOOTH",
"45 45 LINE",
"45 0 LINE"
);
},
{
closed = 1;
nodes = (
"462 -121 LINE",
"462 -76 LINE",
"191 -76 LINE",
"191 -121 LINE"
);
},
{
closed = 1;
nodes = (
"167 602 LINE",
"342 602 LINE SMOOTH",
"446 602 OFFCURVE",
"492 562 OFFCURVE",
"492 470 CURVE SMOOTH",
"492 384 OFFCURVE",
"442 330 OFFCURVE",
"342 330 CURVE SMOOTH",
"167 330 LINE"
);
}
);
width = 609;
}
);
note = Rlinebelow;
rightKerningGroup = R;
unicode = 1E5E;
},
{
glyphname = S;
lastChange = "2015-08-02 14:20:20 +0000";
layers = (
{
layerId = "645D555E-8173-41F2-AA70-2E5F00C66FC5";
name = Light;
paths = (
{
closed = 1;
nodes = (
"402 -15 OFFCURVE",
"475 57 OFFCURVE",
"475 153 CURVE SMOOTH",
"475 268 OFFCURVE",
"384 308 OFFCURVE",
"277 350 CURVE SMOOTH",
"186 386 OFFCURVE",
"102 413 OFFCURVE",
"102 498 CURVE SMOOTH",
"102 583 OFFCURVE",
"169 616 OFFCURVE",
"260 616 CURVE SMOOTH",
"318 616 OFFCURVE",
"373 604 OFFCURVE",
"407 584 CURVE",
"407 527 LINE",
"462 527 LINE",
"462 607 LINE",
"416 639 OFFCURVE",
"336 662 OFFCURVE",
"261 662 CURVE SMOOTH",
"143 662 OFFCURVE",
"51 610 OFFCURVE",
"51 498 CURVE SMOOTH",
"51 395 OFFCURVE",
"133 352 OFFCURVE",
"268 303 CURVE SMOOTH",
"363 268 OFFCURVE",
"424 236 OFFCURVE",
"424 153 CURVE SMOOTH",
"424 77 OFFCURVE",
"372 31 OFFCURVE",
"270 31 CURVE SMOOTH",
"209 31 OFFCURVE",
"139 48 OFFCURVE",
"100 74 CURVE",
"100 131 LINE",
"45 131 LINE",
"45 51 LINE",
"99 12 OFFCURVE",
"187 -15 OFFCURVE",
"266 -15 CURVE SMOOTH"
);
}
);
width = 520;
}
);
leftKerningGroup = dollar;
note = S;
rightKerningGroup = dollar;
unicode = 0053;
},
{
glyphname = Sacute;
lastChange = "2015-08-02 14:20:19 +0000";
layers = (
{
layerId = "645D555E-8173-41F2-AA70-2E5F00C66FC5";
name = Light;
paths = (
{
closed = 1;
nodes = (
"402 -15 OFFCURVE",
"475 57 OFFCURVE",
"475 153 CURVE SMOOTH",
"475 268 OFFCURVE",
"384 308 OFFCURVE",
"277 350 CURVE SMOOTH",
"186 386 OFFCURVE",
"102 413 OFFCURVE",
"102 498 CURVE SMOOTH",
"102 583 OFFCURVE",
"169 616 OFFCURVE",
"260 616 CURVE SMOOTH",
"318 616 OFFCURVE",
"373 604 OFFCURVE",
"407 584 CURVE",
"407 527 LINE",
"462 527 LINE",
"462 607 LINE",
"416 639 OFFCURVE",
"336 662 OFFCURVE",
"261 662 CURVE SMOOTH",
"143 662 OFFCURVE",
"51 610 OFFCURVE",
"51 498 CURVE SMOOTH",
"51 395 OFFCURVE",
"133 352 OFFCURVE",
"268 303 CURVE SMOOTH",
"363 268 OFFCURVE",
"424 236 OFFCURVE",
"424 153 CURVE SMOOTH",
"424 77 OFFCURVE",
"372 31 OFFCURVE",
"270 31 CURVE SMOOTH",
"209 31 OFFCURVE",
"139 48 OFFCURVE",
"100 74 CURVE",
"100 131 LINE",
"45 131 LINE",
"45 51 LINE",
"99 12 OFFCURVE",
"187 -15 OFFCURVE",
"266 -15 CURVE SMOOTH"
);
},
{
closed = 1;
nodes = (
"280 703 LINE",
"396 881 LINE",
"317 881 LINE",
"232 703 LINE"
);
}
);
width = 520;
}
);
leftKerningGroup = dollar;
note = Sacute;
rightKerningGroup = dollar;
unicode = 015A;
},
{
glyphname = Scaron;
lastChange = "2015-08-02 14:20:20 +0000";
layers = (
{
layerId = "645D555E-8173-41F2-AA70-2E5F00C66FC5";
name = Light;
paths = (
{
closed = 1;
nodes = (
"402 -15 OFFCURVE",
"475 57 OFFCURVE",
"475 153 CURVE SMOOTH",
"475 268 OFFCURVE",
"384 308 OFFCURVE",
"277 350 CURVE SMOOTH",
"186 386 OFFCURVE",
"102 413 OFFCURVE",
"102 498 CURVE SMOOTH",
"102 583 OFFCURVE",
"169 616 OFFCURVE",
"260 616 CURVE SMOOTH",
"318 616 OFFCURVE",
"373 604 OFFCURVE",
"407 584 CURVE",
"407 527 LINE",
"462 527 LINE",
"462 607 LINE",
"416 639 OFFCURVE",
"336 662 OFFCURVE",
"261 662 CURVE SMOOTH",
"143 662 OFFCURVE",
"51 610 OFFCURVE",
"51 498 CURVE SMOOTH",
"51 395 OFFCURVE",
"133 352 OFFCURVE",
"268 303 CURVE SMOOTH",
"363 268 OFFCURVE",
"424 236 OFFCURVE",
"424 153 CURVE SMOOTH",
"424 77 OFFCURVE",
"372 31 OFFCURVE",
"270 31 CURVE SMOOTH",
"209 31 OFFCURVE",
"139 48 OFFCURVE",
"100 74 CURVE",
"100 131 LINE",
"45 131 LINE",
"45 51 LINE",
"99 12 OFFCURVE",
"187 -15 OFFCURVE",
"266 -15 CURVE SMOOTH"
);
},
{
closed = 1;
nodes = (
"304 703 LINE",
"419 881 LINE",
"361 881 LINE",
"269 742 LINE",
"178 881 LINE",
"120 881 LINE",
"235 703 LINE"
);
}
);
width = 520;
}
);
leftKerningGroup = dollar;
note = Scaron;
rightKerningGroup = dollar;
unicode = 0160;
},
{
glyphname = Scedilla;
lastChange = "2015-08-02 14:20:20 +0000";
layers = (
{
layerId = "645D555E-8173-41F2-AA70-2E5F00C66FC5";
name = Light;
paths = (
{
closed = 1;
nodes = (
"402 -15 OFFCURVE",
"475 57 OFFCURVE",
"475 153 CURVE SMOOTH",
"475 268 OFFCURVE",
"384 308 OFFCURVE",
"277 350 CURVE SMOOTH",
"186 386 OFFCURVE",
"102 413 OFFCURVE",
"102 498 CURVE SMOOTH",
"102 583 OFFCURVE",
"169 616 OFFCURVE",
"260 616 CURVE SMOOTH",
"318 616 OFFCURVE",
"373 604 OFFCURVE",
"407 584 CURVE",
"407 527 LINE",
"462 527 LINE",
"462 607 LINE",
"416 639 OFFCURVE",
"336 662 OFFCURVE",
"261 662 CURVE SMOOTH",
"143 662 OFFCURVE",
"51 610 OFFCURVE",
"51 498 CURVE SMOOTH",
"51 395 OFFCURVE",
"133 352 OFFCURVE",
"268 303 CURVE SMOOTH",
"363 268 OFFCURVE",
"424 236 OFFCURVE",
"424 153 CURVE SMOOTH",
"424 77 OFFCURVE",
"372 31 OFFCURVE",
"270 31 CURVE SMOOTH",
"209 31 OFFCURVE",
"139 48 OFFCURVE",
"100 74 CURVE",
"100 131 LINE",
"45 131 LINE",
"45 51 LINE",
"99 12 OFFCURVE",
"187 -15 OFFCURVE",
"266 -15 CURVE SMOOTH"
);
},
{
closed = 1;
nodes = (
"317 -228 OFFCURVE",
"360 -198 OFFCURVE",
"360 -139 CURVE SMOOTH",
"360 -94 OFFCURVE",
"340 -62 OFFCURVE",
"275 -53 CURVE",
"283 0 LINE",
"238 0 LINE",
"225 -86 LINE",
"302 -86 OFFCURVE",
"317 -101 OFFCURVE",
"317 -141 CURVE SMOOTH",
"317 -174 OFFCURVE",
"291 -188 OFFCURVE",
"243 -188 CURVE SMOOTH",
"219 -188 OFFCURVE",
"201 -183 OFFCURVE",
"190 -180 CURVE",
"190 -219 LINE",
"206 -224 OFFCURVE",
"225 -228 OFFCURVE",
"244 -228 CURVE SMOOTH"
);
}
);
width = 520;
}
);
leftKerningGroup = dollar;
note = Scedilla;
rightKerningGroup = dollar;
unicode = 015E;
},
{
glyphname = Scircumflex;
lastChange = "2015-08-02 14:20:19 +0000";
layers = (
{
layerId = "645D555E-8173-41F2-AA70-2E5F00C66FC5";
name = Light;
paths = (
{
closed = 1;
nodes = (
"402 -15 OFFCURVE",
"475 57 OFFCURVE",
"475 153 CURVE SMOOTH",
"475 268 OFFCURVE",
"384 308 OFFCURVE",
"277 350 CURVE SMOOTH",
"186 386 OFFCURVE",
"102 413 OFFCURVE",
"102 498 CURVE SMOOTH",
"102 583 OFFCURVE",
"169 616 OFFCURVE",
"260 616 CURVE SMOOTH",
"318 616 OFFCURVE",
"373 604 OFFCURVE",
"407 584 CURVE",
"407 527 LINE",
"462 527 LINE",
"462 607 LINE",
"416 639 OFFCURVE",
"336 662 OFFCURVE",
"261 662 CURVE SMOOTH",
"143 662 OFFCURVE",
"51 610 OFFCURVE",
"51 498 CURVE SMOOTH",
"51 395 OFFCURVE",
"133 352 OFFCURVE",
"268 303 CURVE SMOOTH",
"363 268 OFFCURVE",
"424 236 OFFCURVE",
"424 153 CURVE SMOOTH",
"424 77 OFFCURVE",
"372 31 OFFCURVE",
"270 31 CURVE SMOOTH",
"209 31 OFFCURVE",
"139 48 OFFCURVE",
"100 74 CURVE",
"100 131 LINE",
"45 131 LINE",
"45 51 LINE",
"99 12 OFFCURVE",
"187 -15 OFFCURVE",
"266 -15 CURVE SMOOTH"
);
},
{
closed = 1;
nodes = (
"174 703 LINE",
"265 842 LINE",
"357 703 LINE",
"415 703 LINE",
"300 881 LINE",
"231 881 LINE",
"116 703 LINE"
);
}
);
width = 520;
}
);
leftKerningGroup = dollar;
note = Scircumflex;
rightKerningGroup = dollar;
unicode = 015C;
},
{
glyphname = Scommaaccent;
lastChange = "2015-08-02 14:20:19 +0000";
layers = (
{
layerId = "645D555E-8173-41F2-AA70-2E5F00C66FC5";
name = Light;
paths = (
{
closed = 1;
nodes = (
"402 -15 OFFCURVE",
"475 57 OFFCURVE",
"475 153 CURVE SMOOTH",
"475 268 OFFCURVE",
"384 308 OFFCURVE",
"277 350 CURVE SMOOTH",
"186 386 OFFCURVE",
"102 413 OFFCURVE",
"102 498 CURVE SMOOTH",
"102 583 OFFCURVE",
"169 616 OFFCURVE",
"260 616 CURVE SMOOTH",
"318 616 OFFCURVE",
"373 604 OFFCURVE",
"407 584 CURVE",
"407 527 LINE",
"462 527 LINE",
"462 607 LINE",
"416 639 OFFCURVE",
"336 662 OFFCURVE",
"261 662 CURVE SMOOTH",
"143 662 OFFCURVE",
"51 610 OFFCURVE",
"51 498 CURVE SMOOTH",
"51 395 OFFCURVE",
"133 352 OFFCURVE",
"268 303 CURVE SMOOTH",
"363 268 OFFCURVE",
"424 236 OFFCURVE",
"424 153 CURVE SMOOTH",
"424 77 OFFCURVE",
"372 31 OFFCURVE",
"270 31 CURVE SMOOTH",
"209 31 OFFCURVE",
"139 48 OFFCURVE",
"100 74 CURVE",
"100 131 LINE",
"45 131 LINE",
"45 51 LINE",
"99 12 OFFCURVE",
"187 -15 OFFCURVE",
"266 -15 CURVE SMOOTH"
);
},
{
closed = 1;
nodes = (
"229 -227 LINE",
"315 -49 LINE",
"236 -49 LINE",
"181 -227 LINE"
);
}
);
width = 520;
}
);
leftKerningGroup = dollar;
note = Scommaaccent;
rightKerningGroup = dollar;
unicode = 0218;
},
{
glyphname = Sdotaccent;
lastChange = "2015-08-02 14:20:19 +0000";
layers = (
{
layerId = "645D555E-8173-41F2-AA70-2E5F00C66FC5";
name = Light;
paths = (
{
closed = 1;
nodes = (
"402 -15 OFFCURVE",
"475 57 OFFCURVE",
"475 153 CURVE SMOOTH",
"475 268 OFFCURVE",
"384 308 OFFCURVE",
"277 350 CURVE SMOOTH",
"186 386 OFFCURVE",
"102 413 OFFCURVE",
"102 498 CURVE SMOOTH",
"102 583 OFFCURVE",
"169 616 OFFCURVE",
"260 616 CURVE SMOOTH",
"318 616 OFFCURVE",
"373 604 OFFCURVE",
"407 584 CURVE",
"407 527 LINE",
"462 527 LINE",
"462 607 LINE",
"416 639 OFFCURVE",
"336 662 OFFCURVE",
"261 662 CURVE SMOOTH",
"143 662 OFFCURVE",
"51 610 OFFCURVE",
"51 498 CURVE SMOOTH",
"51 395 OFFCURVE",
"133 352 OFFCURVE",
"268 303 CURVE SMOOTH",
"363 268 OFFCURVE",
"424 236 OFFCURVE",
"424 153 CURVE SMOOTH",
"424 77 OFFCURVE",
"372 31 OFFCURVE",
"270 31 CURVE SMOOTH",
"209 31 OFFCURVE",
"139 48 OFFCURVE",
"100 74 CURVE",
"100 131 LINE",
"45 131 LINE",
"45 51 LINE",
"99 12 OFFCURVE",
"187 -15 OFFCURVE",
"266 -15 CURVE SMOOTH"
);
},
{
closed = 1;
nodes = (
"300 723 LINE",
"300 791 LINE",
"232 791 LINE",
"232 723 LINE"
);
}
);
width = 520;
}
);
leftKerningGroup = dollar;
note = Sdotaccent;
rightKerningGroup = dollar;
unicode = 1E60;
},
{
glyphname = Sdotbelow;
lastChange = "2015-08-02 14:20:19 +0000";
layers = (
{
layerId = "645D555E-8173-41F2-AA70-2E5F00C66FC5";
name = Light;
paths = (
{
closed = 1;
nodes = (
"402 -15 OFFCURVE",
"475 57 OFFCURVE",
"475 153 CURVE SMOOTH",
"475 268 OFFCURVE",
"384 308 OFFCURVE",
"277 350 CURVE SMOOTH",
"186 386 OFFCURVE",
"102 413 OFFCURVE",
"102 498 CURVE SMOOTH",
"102 583 OFFCURVE",
"169 616 OFFCURVE",
"260 616 CURVE SMOOTH",
"318 616 OFFCURVE",
"373 604 OFFCURVE",
"407 584 CURVE",
"407 527 LINE",
"462 527 LINE",
"462 607 LINE",
"416 639 OFFCURVE",
"336 662 OFFCURVE",
"261 662 CURVE SMOOTH",
"143 662 OFFCURVE",
"51 610 OFFCURVE",
"51 498 CURVE SMOOTH",
"51 395 OFFCURVE",
"133 352 OFFCURVE",
"268 303 CURVE SMOOTH",
"363 268 OFFCURVE",
"424 236 OFFCURVE",
"424 153 CURVE SMOOTH",
"424 77 OFFCURVE",
"372 31 OFFCURVE",
"270 31 CURVE SMOOTH",
"209 31 OFFCURVE",
"139 48 OFFCURVE",
"100 74 CURVE",
"100 131 LINE",
"45 131 LINE",
"45 51 LINE",
"99 12 OFFCURVE",
"187 -15 OFFCURVE",
"266 -15 CURVE SMOOTH"
);
},
{
closed = 1;
nodes = (
"302 -132 LINE",
"302 -64 LINE",
"234 -64 LINE",
"234 -132 LINE"
);
}
);
width = 520;
}
);
leftKerningGroup = dollar;
note = Sdotbelow;
rightKerningGroup = dollar;
unicode = 1E62;
},
{
glyphname = Germandbls;
lastChange = "2015-08-02 14:20:19 +0000";
layers = (
{
layerId = "645D555E-8173-41F2-AA70-2E5F00C66FC5";
name = Light;
paths = (
{
closed = 1;
nodes = (
"550 -15 OFFCURVE",
"610 71 OFFCURVE",
"610 178 CURVE SMOOTH",
"610 291 OFFCURVE",
"559 365 OFFCURVE",
"429 365 CURVE SMOOTH",
"407 365 LINE",
"549 536 LINE",
"549 618 OFFCURVE",
"475 690 OFFCURVE",
"335 690 CURVE SMOOTH",
"157 690 OFFCURVE",
"94 587 OFFCURVE",
"94 457 CURVE SMOOTH",
"94 79 LINE SMOOTH",
"94 52 OFFCURVE",
"85 43 OFFCURVE",
"60 43 CURVE SMOOTH",
"35 43 LINE",
"35 0 LINE",
"147 0 LINE",
"147 452 LINE SMOOTH",
"147 575 OFFCURVE",
"200 644 OFFCURVE",
"333 644 CURVE SMOOTH",
"438 644 OFFCURVE",
"493 593 OFFCURVE",
"493 550 CURVE",
"334 358 LINE",
"334 320 LINE",
"421 320 LINE SMOOTH",
"514 320 OFFCURVE",
"559 287 OFFCURVE",
"559 178 CURVE SMOOTH",
"559 94 OFFCURVE",
"515 31 OFFCURVE",
"420 31 CURVE SMOOTH",
"370 31 OFFCURVE",
"332 37 OFFCURVE",
"286 61 CURVE",
"265 21 LINE",
"313 -7 OFFCURVE",
"369 -15 OFFCURVE",
"420 -15 CURVE SMOOTH"
);
}
);
width = 655;
}
);
note = uni1E9E;
unicode = 1E9E;
},
{
glyphname = Schwa;
lastChange = "2015-08-02 14:20:20 +0000";
layers = (
{
layerId = "645D555E-8173-41F2-AA70-2E5F00C66FC5";
name = Light;
paths = (
{
closed = 1;
nodes = (
"519 -15 OFFCURVE",
"624 106 OFFCURVE",
"624 335 CURVE SMOOTH",
"624 561 OFFCURVE",
"495 662 OFFCURVE",
"324 662 CURVE SMOOTH",
"216 662 OFFCURVE",
"132 642 OFFCURVE",
"68 594 CURVE",
"68 519 LINE",
"121 519 LINE",
"121 575 LINE",
"163 603 OFFCURVE",
"232 616 OFFCURVE",
"324 616 CURVE SMOOTH",
"467 616 OFFCURVE",
"573 531 OFFCURVE",
"573 348 CURVE",
"45 348 LINE",
"45 298 LINE SMOOTH",
"45 112 OFFCURVE",
"134 -15 OFFCURVE",
"326 -15 CURVE SMOOTH"
);
},
{
closed = 1;
nodes = (
"169 31 OFFCURVE",
"99 129 OFFCURVE",
"99 303 CURVE",
"573 303 LINE",
"573 156 OFFCURVE",
"501 31 OFFCURVE",
"326 31 CURVE SMOOTH"
);
}
);
width = 669;
}
);
note = uni018F;
unicode = 018F;
},
{
glyphname = T;
lastChange = "2015-08-02 14:20:19 +0000";
layers = (
{
layerId = "645D555E-8173-41F2-AA70-2E5F00C66FC5";
name = Light;
paths = (
{
closed = 1;
nodes = (
"359 0 LINE",
"359 45 LINE",
"328 45 LINE SMOOTH",
"297 45 OFFCURVE",
"290 56 OFFCURVE",
"290 81 CURVE SMOOTH",
"290 602 LINE",
"408 602 LINE SMOOTH",
"435 602 OFFCURVE",
"444 593 OFFCURVE",
"444 568 CURVE SMOOTH",
"444 544 LINE",
"492 544 LINE",
"492 647 LINE",
"35 647 LINE",
"35 544 LINE",
"83 544 LINE",
"83 568 LINE SMOOTH",
"83 593 OFFCURVE",
"92 602 OFFCURVE",
"119 602 CURVE SMOOTH",
"237 602 LINE",
"237 81 LINE SMOOTH",
"237 56 OFFCURVE",
"230 45 OFFCURVE",
"199 45 CURVE SMOOTH",
"168 45 LINE",
"168 0 LINE"
);
}
);
width = 527;
}
);
leftKerningGroup = T;
note = T;
rightKerningGroup = T;
unicode = 0054;
},
{
glyphname = Tbar;
lastChange = "2015-08-02 14:20:19 +0000";
layers = (
{
layerId = "645D555E-8173-41F2-AA70-2E5F00C66FC5";
name = Light;
paths = (
{
closed = 1;
nodes = (
"359 0 LINE",
"359 45 LINE",
"328 45 LINE SMOOTH",
"297 45 OFFCURVE",
"290 56 OFFCURVE",
"290 81 CURVE SMOOTH",
"290 602 LINE",
"408 602 LINE SMOOTH",
"435 602 OFFCURVE",
"444 593 OFFCURVE",
"444 568 CURVE SMOOTH",
"444 544 LINE",
"492 544 LINE",
"492 647 LINE",
"35 647 LINE",
"35 544 LINE",
"83 544 LINE",
"83 568 LINE SMOOTH",
"83 593 OFFCURVE",
"92 602 OFFCURVE",
"119 602 CURVE SMOOTH",
"237 602 LINE",
"237 81 LINE SMOOTH",
"237 56 OFFCURVE",
"230 45 OFFCURVE",
"199 45 CURVE SMOOTH",
"168 45 LINE",
"168 0 LINE"
);
},
{
closed = 1;
nodes = (
"424 321 LINE",
"424 366 LINE",
"103 366 LINE",
"103 321 LINE"
);
}
);
width = 527;
}
);
leftKerningGroup = T;
note = Tbar;
rightKerningGroup = T;
unicode = 0166;
},
{
glyphname = Tcaron;
lastChange = "2015-08-02 14:20:19 +0000";
layers = (
{
layerId = "645D555E-8173-41F2-AA70-2E5F00C66FC5";
name = Light;
paths = (
{
closed = 1;
nodes = (
"359 0 LINE",
"359 45 LINE",
"328 45 LINE SMOOTH",
"297 45 OFFCURVE",
"290 56 OFFCURVE",
"290 81 CURVE SMOOTH",
"290 602 LINE",
"408 602 LINE SMOOTH",
"435 602 OFFCURVE",
"444 593 OFFCURVE",
"444 568 CURVE SMOOTH",
"444 544 LINE",
"492 544 LINE",
"492 647 LINE",
"35 647 LINE",
"35 544 LINE",
"83 544 LINE",
"83 568 LINE SMOOTH",
"83 593 OFFCURVE",
"92 602 OFFCURVE",
"119 602 CURVE SMOOTH",
"237 602 LINE",
"237 81 LINE SMOOTH",
"237 56 OFFCURVE",
"230 45 OFFCURVE",
"199 45 CURVE SMOOTH",
"168 45 LINE",
"168 0 LINE"
);
},
{
closed = 1;
nodes = (
"298 703 LINE",
"413 881 LINE",
"355 881 LINE",
"263 742 LINE",
"172 881 LINE",
"114 881 LINE",
"229 703 LINE"
);
}
);
width = 527;
}
);
leftKerningGroup = T;
note = Tcaron;
rightKerningGroup = T;
unicode = 0164;
},
{
glyphname = Tcedilla;
lastChange = "2015-08-02 14:20:19 +0000";
layers = (
{
layerId = "645D555E-8173-41F2-AA70-2E5F00C66FC5";
name = Light;
paths = (
{
closed = 1;
nodes = (
"359 0 LINE",
"359 45 LINE",
"328 45 LINE SMOOTH",
"297 45 OFFCURVE",
"290 56 OFFCURVE",
"290 81 CURVE SMOOTH",
"290 602 LINE",
"408 602 LINE SMOOTH",
"435 602 OFFCURVE",
"444 593 OFFCURVE",
"444 568 CURVE SMOOTH",
"444 544 LINE",
"492 544 LINE",
"492 647 LINE",
"35 647 LINE",
"35 544 LINE",
"83 544 LINE",
"83 568 LINE SMOOTH",
"83 593 OFFCURVE",
"92 602 OFFCURVE",
"119 602 CURVE SMOOTH",
"237 602 LINE",
"237 81 LINE SMOOTH",
"237 56 OFFCURVE",
"230 45 OFFCURVE",
"199 45 CURVE SMOOTH",
"168 45 LINE",
"168 0 LINE"
);
},
{
closed = 1;
nodes = (
"320 -228 OFFCURVE",
"363 -198 OFFCURVE",
"363 -139 CURVE SMOOTH",
"363 -94 OFFCURVE",
"343 -62 OFFCURVE",
"278 -53 CURVE",
"286 0 LINE",
"241 0 LINE",
"228 -86 LINE",
"305 -86 OFFCURVE",
"320 -101 OFFCURVE",
"320 -141 CURVE SMOOTH",
"320 -174 OFFCURVE",
"294 -188 OFFCURVE",
"246 -188 CURVE SMOOTH",
"222 -188 OFFCURVE",
"204 -183 OFFCURVE",
"193 -180 CURVE",
"193 -219 LINE",
"209 -224 OFFCURVE",
"228 -228 OFFCURVE",
"247 -228 CURVE SMOOTH"
);
}
);
width = 527;
}
);
leftKerningGroup = T;
note = Tcedilla;
rightKerningGroup = T;
unicode = 0162;
},
{
glyphname = Tcommaaccent;
lastChange = "2015-08-02 14:20:19 +0000";
layers = (
{
layerId = "645D555E-8173-41F2-AA70-2E5F00C66FC5";
name = Light;
paths = (
{
closed = 1;
nodes = (
"359 0 LINE",
"359 45 LINE",
"328 45 LINE SMOOTH",
"297 45 OFFCURVE",
"290 56 OFFCURVE",
"290 81 CURVE SMOOTH",
"290 602 LINE",
"408 602 LINE SMOOTH",
"435 602 OFFCURVE",
"444 593 OFFCURVE",
"444 568 CURVE SMOOTH",
"444 544 LINE",
"492 544 LINE",
"492 647 LINE",
"35 647 LINE",
"35 544 LINE",
"83 544 LINE",
"83 568 LINE SMOOTH",
"83 593 OFFCURVE",
"92 602 OFFCURVE",
"119 602 CURVE SMOOTH",
"237 602 LINE",
"237 81 LINE SMOOTH",
"237 56 OFFCURVE",
"230 45 OFFCURVE",
"199 45 CURVE SMOOTH",
"168 45 LINE",
"168 0 LINE"
);
},
{
closed = 1;
nodes = (
"256 -234 LINE",
"312 -49 LINE",
"245 -49 LINE",
"217 -234 LINE"
);
}
);
width = 527;
}
);
leftKerningGroup = T;
note = Tcommaaccent;
rightKerningGroup = T;
unicode = 021A;
},
{
glyphname = Tdotbelow;
lastChange = "2015-08-02 14:20:19 +0000";
layers = (
{
layerId = "645D555E-8173-41F2-AA70-2E5F00C66FC5";
name = Light;
paths = (
{
closed = 1;
nodes = (
"359 0 LINE",
"359 45 LINE",
"328 45 LINE SMOOTH",
"297 45 OFFCURVE",
"290 56 OFFCURVE",
"290 81 CURVE SMOOTH",
"290 602 LINE",
"408 602 LINE SMOOTH",
"435 602 OFFCURVE",
"444 593 OFFCURVE",
"444 568 CURVE SMOOTH",
"444 544 LINE",
"492 544 LINE",
"492 647 LINE",
"35 647 LINE",
"35 544 LINE",
"83 544 LINE",
"83 568 LINE SMOOTH",
"83 593 OFFCURVE",
"92 602 OFFCURVE",
"119 602 CURVE SMOOTH",
"237 602 LINE",
"237 81 LINE SMOOTH",
"237 56 OFFCURVE",
"230 45 OFFCURVE",
"199 45 CURVE SMOOTH",
"168 45 LINE",
"168 0 LINE"
);
},
{
closed = 1;
nodes = (
"297 -132 LINE",
"297 -64 LINE",
"229 -64 LINE",
"229 -132 LINE"
);
}
);
width = 527;
}
);
leftKerningGroup = T;
note = Tdotbelow;
rightKerningGroup = T;
unicode = 1E6C;
},
{
glyphname = Tlinebelow;
lastChange = "2015-08-02 14:20:20 +0000";
layers = (
{
layerId = "645D555E-8173-41F2-AA70-2E5F00C66FC5";
name = Light;
paths = (
{
closed = 1;
nodes = (
"359 0 LINE",
"359 45 LINE",
"328 45 LINE SMOOTH",
"297 45 OFFCURVE",
"290 56 OFFCURVE",
"290 81 CURVE SMOOTH",
"290 602 LINE",
"408 602 LINE SMOOTH",
"435 602 OFFCURVE",
"444 593 OFFCURVE",
"444 568 CURVE SMOOTH",
"444 544 LINE",
"492 544 LINE",
"492 647 LINE",
"35 647 LINE",
"35 544 LINE",
"83 544 LINE",
"83 568 LINE SMOOTH",
"83 593 OFFCURVE",
"92 602 OFFCURVE",
"119 602 CURVE SMOOTH",
"237 602 LINE",
"237 81 LINE SMOOTH",
"237 56 OFFCURVE",
"230 45 OFFCURVE",
"199 45 CURVE SMOOTH",
"168 45 LINE",
"168 0 LINE"
);
},
{
closed = 1;
nodes = (
"399 -121 LINE",
"399 -76 LINE",
"128 -76 LINE",
"128 -121 LINE"
);
}
);
width = 527;
}
);
leftKerningGroup = T;
note = Tlinebelow;
rightKerningGroup = T;
unicode = 1E6E;
},
{
glyphname = U;
lastChange = "2015-08-02 14:20:19 +0000";
layers = (
{
layerId = "645D555E-8173-41F2-AA70-2E5F00C66FC5";
name = Light;
paths = (
{
closed = 1;
nodes = (
"480 -15 OFFCURVE",
"552 64 OFFCURVE",
"552 177 CURVE SMOOTH",
"552 569 LINE SMOOTH",
"552 596 OFFCURVE",
"561 605 OFFCURVE",
"586 605 CURVE SMOOTH",
"611 605 LINE",
"611 647 LINE",
"440 647 LINE",
"440 605 LINE",
"465 605 LINE SMOOTH",
"490 605 OFFCURVE",
"499 596 OFFCURVE",
"499 569 CURVE SMOOTH",
"499 170 LINE SMOOTH",
"499 76 OFFCURVE",
"438 28 OFFCURVE",
"323 28 CURVE SMOOTH",
"208 28 OFFCURVE",
"147 76 OFFCURVE",
"147 170 CURVE SMOOTH",
"147 569 LINE SMOOTH",
"147 596 OFFCURVE",
"156 605 OFFCURVE",
"181 605 CURVE SMOOTH",
"206 605 LINE",
"206 647 LINE",
"35 647 LINE",
"35 605 LINE",
"60 605 LINE SMOOTH",
"85 605 OFFCURVE",
"94 596 OFFCURVE",
"94 569 CURVE SMOOTH",
"94 177 LINE SMOOTH",
"94 64 OFFCURVE",
"166 -15 OFFCURVE",
"323 -15 CURVE SMOOTH"
);
}
);
width = 646;
}
);
leftKerningGroup = U;
note = U;
rightKerningGroup = U;
unicode = 0055;
},
{
glyphname = Uacute;
lastChange = "2015-08-02 14:20:19 +0000";
layers = (
{
layerId = "645D555E-8173-41F2-AA70-2E5F00C66FC5";
name = Light;
paths = (
{
closed = 1;
nodes = (
"480 -15 OFFCURVE",
"552 64 OFFCURVE",
"552 177 CURVE SMOOTH",
"552 569 LINE SMOOTH",
"552 596 OFFCURVE",
"561 605 OFFCURVE",
"586 605 CURVE SMOOTH",
"611 605 LINE",
"611 647 LINE",
"440 647 LINE",
"440 605 LINE",
"465 605 LINE SMOOTH",
"490 605 OFFCURVE",
"499 596 OFFCURVE",
"499 569 CURVE SMOOTH",
"499 170 LINE SMOOTH",
"499 76 OFFCURVE",
"438 28 OFFCURVE",
"323 28 CURVE SMOOTH",
"208 28 OFFCURVE",
"147 76 OFFCURVE",
"147 170 CURVE SMOOTH",
"147 569 LINE SMOOTH",
"147 596 OFFCURVE",
"156 605 OFFCURVE",
"181 605 CURVE SMOOTH",
"206 605 LINE",
"206 647 LINE",
"35 647 LINE",
"35 605 LINE",
"60 605 LINE SMOOTH",
"85 605 OFFCURVE",
"94 596 OFFCURVE",
"94 569 CURVE SMOOTH",
"94 177 LINE SMOOTH",
"94 64 OFFCURVE",
"166 -15 OFFCURVE",
"323 -15 CURVE SMOOTH"
);
},
{
closed = 1;
nodes = (
"332 703 LINE",
"448 881 LINE",
"369 881 LINE",
"284 703 LINE"
);
}
);
width = 646;
}
);
leftKerningGroup = U;
note = Uacute;
rightKerningGroup = U;
unicode = 00DA;
},
{
glyphname = Ubreve;
lastChange = "2015-08-02 14:20:19 +0000";
layers = (
{
layerId = "645D555E-8173-41F2-AA70-2E5F00C66FC5";
name = Light;
paths = (
{
closed = 1;
nodes = (
"480 -15 OFFCURVE",
"552 64 OFFCURVE",
"552 177 CURVE SMOOTH",
"552 569 LINE SMOOTH",
"552 596 OFFCURVE",
"561 605 OFFCURVE",
"586 605 CURVE SMOOTH",
"611 605 LINE",
"611 647 LINE",
"440 647 LINE",
"440 605 LINE",
"465 605 LINE SMOOTH",
"490 605 OFFCURVE",
"499 596 OFFCURVE",
"499 569 CURVE SMOOTH",
"499 170 LINE SMOOTH",
"499 76 OFFCURVE",
"438 28 OFFCURVE",
"323 28 CURVE SMOOTH",
"208 28 OFFCURVE",
"147 76 OFFCURVE",
"147 170 CURVE SMOOTH",
"147 569 LINE SMOOTH",
"147 596 OFFCURVE",
"156 605 OFFCURVE",
"181 605 CURVE SMOOTH",
"206 605 LINE",
"206 647 LINE",
"35 647 LINE",
"35 605 LINE",
"60 605 LINE SMOOTH",
"85 605 OFFCURVE",
"94 596 OFFCURVE",
"94 569 CURVE SMOOTH",
"94 177 LINE SMOOTH",
"94 64 OFFCURVE",
"166 -15 OFFCURVE",
"323 -15 CURVE SMOOTH"
);
},
{
closed = 1;
nodes = (
"401 703 OFFCURVE",
"461 753 OFFCURVE",
"461 833 CURVE",
"418 833 LINE",
"418 776 OFFCURVE",
"378 746 OFFCURVE",
"321 746 CURVE SMOOTH",
"264 746 OFFCURVE",
"224 776 OFFCURVE",
"224 833 CURVE",
"181 833 LINE",
"181 753 OFFCURVE",
"241 703 OFFCURVE",
"321 703 CURVE SMOOTH"
);
}
);
width = 646;
}
);
leftKerningGroup = U;
note = Ubreve;
rightKerningGroup = U;
unicode = 016C;
},
{
glyphname = Ucaron;
lastChange = "2015-08-02 14:20:19 +0000";
layers = (
{
layerId = "645D555E-8173-41F2-AA70-2E5F00C66FC5";
name = Light;
paths = (
{
closed = 1;
nodes = (
"480 -15 OFFCURVE",
"552 64 OFFCURVE",
"552 177 CURVE SMOOTH",
"552 569 LINE SMOOTH",
"552 596 OFFCURVE",
"561 605 OFFCURVE",
"586 605 CURVE SMOOTH",
"611 605 LINE",
"611 647 LINE",
"440 647 LINE",
"440 605 LINE",
"465 605 LINE SMOOTH",
"490 605 OFFCURVE",
"499 596 OFFCURVE",
"499 569 CURVE SMOOTH",
"499 170 LINE SMOOTH",
"499 76 OFFCURVE",
"438 28 OFFCURVE",
"323 28 CURVE SMOOTH",
"208 28 OFFCURVE",
"147 76 OFFCURVE",
"147 170 CURVE SMOOTH",
"147 569 LINE SMOOTH",
"147 596 OFFCURVE",
"156 605 OFFCURVE",
"181 605 CURVE SMOOTH",
"206 605 LINE",
"206 647 LINE",
"35 647 LINE",
"35 605 LINE",
"60 605 LINE SMOOTH",
"85 605 OFFCURVE",
"94 596 OFFCURVE",
"94 569 CURVE SMOOTH",
"94 177 LINE SMOOTH",
"94 64 OFFCURVE",
"166 -15 OFFCURVE",
"323 -15 CURVE SMOOTH"
);
},
{
closed = 1;
nodes = (
"358 703 LINE",
"473 881 LINE",
"415 881 LINE",
"323 742 LINE",
"232 881 LINE",
"174 881 LINE",
"289 703 LINE"
);
}
);
width = 646;
}
);
leftKerningGroup = U;
note = Ucaron;
rightKerningGroup = U;
unicode = 01D3;
},
{
glyphname = Ucircumflex;
lastChange = "2015-08-02 14:20:20 +0000";
layers = (
{
layerId = "645D555E-8173-41F2-AA70-2E5F00C66FC5";
name = Light;
paths = (
{
closed = 1;
nodes = (
"480 -15 OFFCURVE",
"552 64 OFFCURVE",
"552 177 CURVE SMOOTH",
"552 569 LINE SMOOTH",
"552 596 OFFCURVE",
"561 605 OFFCURVE",
"586 605 CURVE SMOOTH",
"611 605 LINE",
"611 647 LINE",
"440 647 LINE",
"440 605 LINE",
"465 605 LINE SMOOTH",
"490 605 OFFCURVE",
"499 596 OFFCURVE",
"499 569 CURVE SMOOTH",
"499 170 LINE SMOOTH",
"499 76 OFFCURVE",
"438 28 OFFCURVE",
"323 28 CURVE SMOOTH",
"208 28 OFFCURVE",
"147 76 OFFCURVE",
"147 170 CURVE SMOOTH",
"147 569 LINE SMOOTH",
"147 596 OFFCURVE",
"156 605 OFFCURVE",
"181 605 CURVE SMOOTH",
"206 605 LINE",
"206 647 LINE",
"35 647 LINE",
"35 605 LINE",
"60 605 LINE SMOOTH",
"85 605 OFFCURVE",
"94 596 OFFCURVE",
"94 569 CURVE SMOOTH",
"94 177 LINE SMOOTH",
"94 64 OFFCURVE",
"166 -15 OFFCURVE",
"323 -15 CURVE SMOOTH"
);
},
{
closed = 1;
nodes = (
"232 703 LINE",
"323 842 LINE",
"415 703 LINE",
"473 703 LINE",
"358 881 LINE",
"289 881 LINE",
"174 703 LINE"
);
}
);
width = 646;
}
);
leftKerningGroup = U;
note = Ucircumflex;
rightKerningGroup = U;
unicode = 00DB;
},
{
glyphname = Udieresis;
lastChange = "2015-08-02 14:20:20 +0000";
layers = (
{
layerId = "645D555E-8173-41F2-AA70-2E5F00C66FC5";
name = Light;
paths = (
{
closed = 1;
nodes = (
"480 -15 OFFCURVE",
"552 64 OFFCURVE",
"552 177 CURVE SMOOTH",
"552 569 LINE SMOOTH",
"552 596 OFFCURVE",
"561 605 OFFCURVE",
"586 605 CURVE SMOOTH",
"611 605 LINE",
"611 647 LINE",
"440 647 LINE",
"440 605 LINE",
"465 605 LINE SMOOTH",
"490 605 OFFCURVE",
"499 596 OFFCURVE",
"499 569 CURVE SMOOTH",
"499 170 LINE SMOOTH",
"499 76 OFFCURVE",
"438 28 OFFCURVE",
"323 28 CURVE SMOOTH",
"208 28 OFFCURVE",
"147 76 OFFCURVE",
"147 170 CURVE SMOOTH",
"147 569 LINE SMOOTH",
"147 596 OFFCURVE",
"156 605 OFFCURVE",
"181 605 CURVE SMOOTH",
"206 605 LINE",
"206 647 LINE",
"35 647 LINE",
"35 605 LINE",
"60 605 LINE SMOOTH",
"85 605 OFFCURVE",
"94 596 OFFCURVE",
"94 569 CURVE SMOOTH",
"94 177 LINE SMOOTH",
"94 64 OFFCURVE",
"166 -15 OFFCURVE",
"323 -15 CURVE SMOOTH"
);
},
{
closed = 1;
nodes = (
"263 723 LINE",
"263 791 LINE",
"195 791 LINE",
"195 723 LINE"
);
},
{
closed = 1;
nodes = (
"452 723 LINE",
"452 791 LINE",
"384 791 LINE",
"384 723 LINE"
);
}
);
width = 646;
}
);
leftKerningGroup = U;
note = Udieresis;
rightKerningGroup = U;
unicode = 00DC;
},
{
glyphname = Udieresisacute;
lastChange = "2015-08-02 14:20:19 +0000";
layers = (
{
layerId = "645D555E-8173-41F2-AA70-2E5F00C66FC5";
name = Light;
paths = (
{
closed = 1;
nodes = (
"480 -15 OFFCURVE",
"552 64 OFFCURVE",
"552 177 CURVE SMOOTH",
"552 569 LINE SMOOTH",
"552 596 OFFCURVE",
"561 605 OFFCURVE",
"586 605 CURVE SMOOTH",
"611 605 LINE",
"611 647 LINE",
"440 647 LINE",
"440 605 LINE",
"465 605 LINE SMOOTH",
"490 605 OFFCURVE",
"499 596 OFFCURVE",
"499 569 CURVE SMOOTH",
"499 170 LINE SMOOTH",
"499 76 OFFCURVE",
"438 28 OFFCURVE",
"323 28 CURVE SMOOTH",
"208 28 OFFCURVE",
"147 76 OFFCURVE",
"147 170 CURVE SMOOTH",
"147 569 LINE SMOOTH",
"147 596 OFFCURVE",
"156 605 OFFCURVE",
"181 605 CURVE SMOOTH",
"206 605 LINE",
"206 647 LINE",
"35 647 LINE",
"35 605 LINE",
"60 605 LINE SMOOTH",
"85 605 OFFCURVE",
"94 596 OFFCURVE",
"94 569 CURVE SMOOTH",
"94 177 LINE SMOOTH",
"94 64 OFFCURVE",
"166 -15 OFFCURVE",
"323 -15 CURVE SMOOTH"
);
},
{
closed = 1;
nodes = (
"264 723 LINE",
"264 791 LINE",
"196 791 LINE",
"196 723 LINE"
);
},
{
closed = 1;
nodes = (
"453 723 LINE",
"453 791 LINE",
"385 791 LINE",
"385 723 LINE"
);
},
{
closed = 1;
nodes = (
"342 832 LINE",
"448 980 LINE",
"369 980 LINE",
"294 832 LINE"
);
}
);
width = 646;
}
);
leftKerningGroup = U;
note = Udieresisacute;
rightKerningGroup = U;
unicode = 01D7;
},
{
glyphname = Udieresiscaron;
lastChange = "2015-08-02 14:20:20 +0000";
layers = (
{
layerId = "645D555E-8173-41F2-AA70-2E5F00C66FC5";
name = Light;
paths = (
{
closed = 1;
nodes = (
"480 -15 OFFCURVE",
"552 64 OFFCURVE",
"552 177 CURVE SMOOTH",
"552 569 LINE SMOOTH",
"552 596 OFFCURVE",
"561 605 OFFCURVE",
"586 605 CURVE SMOOTH",
"611 605 LINE",
"611 647 LINE",
"440 647 LINE",
"440 605 LINE",
"465 605 LINE SMOOTH",
"490 605 OFFCURVE",
"499 596 OFFCURVE",
"499 569 CURVE SMOOTH",
"499 170 LINE SMOOTH",
"499 76 OFFCURVE",
"438 28 OFFCURVE",
"323 28 CURVE SMOOTH",
"208 28 OFFCURVE",
"147 76 OFFCURVE",
"147 170 CURVE SMOOTH",
"147 569 LINE SMOOTH",
"147 596 OFFCURVE",
"156 605 OFFCURVE",
"181 605 CURVE SMOOTH",
"206 605 LINE",
"206 647 LINE",
"35 647 LINE",
"35 605 LINE",
"60 605 LINE SMOOTH",
"85 605 OFFCURVE",
"94 596 OFFCURVE",
"94 569 CURVE SMOOTH",
"94 177 LINE SMOOTH",
"94 64 OFFCURVE",
"166 -15 OFFCURVE",
"323 -15 CURVE SMOOTH"
);
},
{
closed = 1;
nodes = (
"264 723 LINE",
"264 791 LINE",
"196 791 LINE",
"196 723 LINE"
);
},
{
closed = 1;
nodes = (
"453 723 LINE",
"453 791 LINE",
"385 791 LINE",
"385 723 LINE"
);
},
{
closed = 1;
nodes = (
"359 830 LINE",
"454 958 LINE",
"396 958 LINE",
"324 859 LINE",
"253 958 LINE",
"195 958 LINE",
"290 830 LINE"
);
}
);
width = 646;
}
);
leftKerningGroup = U;
note = Udieresiscaron;
rightKerningGroup = U;
unicode = 01D9;
},
{
glyphname = Udieresisgrave;
lastChange = "2015-08-02 14:20:19 +0000";
layers = (
{
layerId = "645D555E-8173-41F2-AA70-2E5F00C66FC5";
name = Light;
paths = (
{
closed = 1;
nodes = (
"480 -15 OFFCURVE",
"552 64 OFFCURVE",
"552 177 CURVE SMOOTH",
"552 569 LINE SMOOTH",
"552 596 OFFCURVE",
"561 605 OFFCURVE",
"586 605 CURVE SMOOTH",
"611 605 LINE",
"611 647 LINE",
"440 647 LINE",
"440 605 LINE",
"465 605 LINE SMOOTH",
"490 605 OFFCURVE",
"499 596 OFFCURVE",
"499 569 CURVE SMOOTH",
"499 170 LINE SMOOTH",
"499 76 OFFCURVE",
"438 28 OFFCURVE",
"323 28 CURVE SMOOTH",
"208 28 OFFCURVE",
"147 76 OFFCURVE",
"147 170 CURVE SMOOTH",
"147 569 LINE SMOOTH",
"147 596 OFFCURVE",
"156 605 OFFCURVE",
"181 605 CURVE SMOOTH",
"206 605 LINE",
"206 647 LINE",
"35 647 LINE",
"35 605 LINE",
"60 605 LINE SMOOTH",
"85 605 OFFCURVE",
"94 596 OFFCURVE",
"94 569 CURVE SMOOTH",
"94 177 LINE SMOOTH",
"94 64 OFFCURVE",
"166 -15 OFFCURVE",
"323 -15 CURVE SMOOTH"
);
},
{
closed = 1;
nodes = (
"264 723 LINE",
"264 791 LINE",
"196 791 LINE",
"196 723 LINE"
);
},
{
closed = 1;
nodes = (
"453 723 LINE",
"453 791 LINE",
"385 791 LINE",
"385 723 LINE"
);
},
{
closed = 1;
nodes = (
"355 832 LINE",
"280 980 LINE",
"201 980 LINE",
"307 832 LINE"
);
}
);
width = 646;
}
);
leftKerningGroup = U;
note = Udieresisgrave;
rightKerningGroup = U;
unicode = 01DB;
},
{
glyphname = Udieresismacron;
lastChange = "2015-08-02 14:20:20 +0000";
layers = (
{
layerId = "645D555E-8173-41F2-AA70-2E5F00C66FC5";
name = Light;
paths = (
{
closed = 1;
nodes = (
"480 -15 OFFCURVE",
"552 64 OFFCURVE",
"552 177 CURVE SMOOTH",
"552 569 LINE SMOOTH",
"552 596 OFFCURVE",
"561 605 OFFCURVE",
"586 605 CURVE SMOOTH",
"611 605 LINE",
"611 647 LINE",
"440 647 LINE",
"440 605 LINE",
"465 605 LINE SMOOTH",
"490 605 OFFCURVE",
"499 596 OFFCURVE",
"499 569 CURVE SMOOTH",
"499 170 LINE SMOOTH",
"499 76 OFFCURVE",
"438 28 OFFCURVE",
"323 28 CURVE SMOOTH",
"208 28 OFFCURVE",
"147 76 OFFCURVE",
"147 170 CURVE SMOOTH",
"147 569 LINE SMOOTH",
"147 596 OFFCURVE",
"156 605 OFFCURVE",
"181 605 CURVE SMOOTH",
"206 605 LINE",
"206 647 LINE",
"35 647 LINE",
"35 605 LINE",
"60 605 LINE SMOOTH",
"85 605 OFFCURVE",
"94 596 OFFCURVE",
"94 569 CURVE SMOOTH",
"94 177 LINE SMOOTH",
"94 64 OFFCURVE",
"166 -15 OFFCURVE",
"323 -15 CURVE SMOOTH"
);
},
{
closed = 1;
nodes = (
"263 723 LINE",
"263 791 LINE",
"195 791 LINE",
"195 723 LINE"
);
},
{
closed = 1;
nodes = (
"452 723 LINE",
"452 791 LINE",
"384 791 LINE",
"384 723 LINE"
);
},
{
closed = 1;
nodes = (
"459 888 LINE",
"459 933 LINE",
"188 933 LINE",
"188 888 LINE"
);
}
);
width = 646;
}
);
leftKerningGroup = U;
note = Udieresismacron;
rightKerningGroup = U;
unicode = 01D5;
},
{
glyphname = Udotbelow;
lastChange = "2015-08-02 14:20:19 +0000";
layers = (
{
layerId = "645D555E-8173-41F2-AA70-2E5F00C66FC5";
name = Light;
paths = (
{
closed = 1;
nodes = (
"480 -15 OFFCURVE",
"552 64 OFFCURVE",
"552 177 CURVE SMOOTH",
"552 569 LINE SMOOTH",
"552 596 OFFCURVE",
"561 605 OFFCURVE",
"586 605 CURVE SMOOTH",
"611 605 LINE",
"611 647 LINE",
"440 647 LINE",
"440 605 LINE",
"465 605 LINE SMOOTH",
"490 605 OFFCURVE",
"499 596 OFFCURVE",
"499 569 CURVE SMOOTH",
"499 170 LINE SMOOTH",
"499 76 OFFCURVE",
"438 28 OFFCURVE",
"323 28 CURVE SMOOTH",
"208 28 OFFCURVE",
"147 76 OFFCURVE",
"147 170 CURVE SMOOTH",
"147 569 LINE SMOOTH",
"147 596 OFFCURVE",
"156 605 OFFCURVE",
"181 605 CURVE SMOOTH",
"206 605 LINE",
"206 647 LINE",
"35 647 LINE",
"35 605 LINE",
"60 605 LINE SMOOTH",
"85 605 OFFCURVE",
"94 596 OFFCURVE",
"94 569 CURVE SMOOTH",
"94 177 LINE SMOOTH",
"94 64 OFFCURVE",
"166 -15 OFFCURVE",
"323 -15 CURVE SMOOTH"
);
},
{
closed = 1;
nodes = (
"357 -132 LINE",
"357 -64 LINE",
"289 -64 LINE",
"289 -132 LINE"
);
}
);
width = 646;
}
);
leftKerningGroup = U;
note = Udotbelow;
rightKerningGroup = U;
unicode = 1EE4;
},
{
glyphname = Ugrave;
lastChange = "2015-08-02 14:20:19 +0000";
layers = (
{
layerId = "645D555E-8173-41F2-AA70-2E5F00C66FC5";
name = Light;
paths = (
{
closed = 1;
nodes = (
"480 -15 OFFCURVE",
"552 64 OFFCURVE",
"552 177 CURVE SMOOTH",
"552 569 LINE SMOOTH",
"552 596 OFFCURVE",
"561 605 OFFCURVE",
"586 605 CURVE SMOOTH",
"611 605 LINE",
"611 647 LINE",
"440 647 LINE",
"440 605 LINE",
"465 605 LINE SMOOTH",
"490 605 OFFCURVE",
"499 596 OFFCURVE",
"499 569 CURVE SMOOTH",
"499 170 LINE SMOOTH",
"499 76 OFFCURVE",
"438 28 OFFCURVE",
"323 28 CURVE SMOOTH",
"208 28 OFFCURVE",
"147 76 OFFCURVE",
"147 170 CURVE SMOOTH",
"147 569 LINE SMOOTH",
"147 596 OFFCURVE",
"156 605 OFFCURVE",
"181 605 CURVE SMOOTH",
"206 605 LINE",
"206 647 LINE",
"35 647 LINE",
"35 605 LINE",
"60 605 LINE SMOOTH",
"85 605 OFFCURVE",
"94 596 OFFCURVE",
"94 569 CURVE SMOOTH",
"94 177 LINE SMOOTH",
"94 64 OFFCURVE",
"166 -15 OFFCURVE",
"323 -15 CURVE SMOOTH"
);
},
{
closed = 1;
nodes = (
"359 703 LINE",
"274 881 LINE",
"195 881 LINE",
"311 703 LINE"
);
}
);
width = 646;
}
);
leftKerningGroup = U;
note = Ugrave;
rightKerningGroup = U;
unicode = 00D9;
},
{
glyphname = Uhookabove;
lastChange = "2015-08-02 14:20:19 +0000";
layers = (
{
layerId = "645D555E-8173-41F2-AA70-2E5F00C66FC5";
name = Light;
paths = (
{
closed = 1;
nodes = (
"480 -15 OFFCURVE",
"552 64 OFFCURVE",
"552 177 CURVE SMOOTH",
"552 569 LINE SMOOTH",
"552 596 OFFCURVE",
"561 605 OFFCURVE",
"586 605 CURVE SMOOTH",
"611 605 LINE",
"611 647 LINE",
"440 647 LINE",
"440 605 LINE",
"465 605 LINE SMOOTH",
"490 605 OFFCURVE",
"499 596 OFFCURVE",
"499 569 CURVE SMOOTH",
"499 170 LINE SMOOTH",
"499 76 OFFCURVE",
"438 28 OFFCURVE",
"323 28 CURVE SMOOTH",
"208 28 OFFCURVE",
"147 76 OFFCURVE",
"147 170 CURVE SMOOTH",
"147 569 LINE SMOOTH",
"147 596 OFFCURVE",
"156 605 OFFCURVE",
"181 605 CURVE SMOOTH",
"206 605 LINE",
"206 647 LINE",
"35 647 LINE",
"35 605 LINE",
"60 605 LINE SMOOTH",
"85 605 OFFCURVE",
"94 596 OFFCURVE",
"94 569 CURVE SMOOTH",
"94 177 LINE SMOOTH",
"94 64 OFFCURVE",
"166 -15 OFFCURVE",
"323 -15 CURVE SMOOTH"
);
},
{
closed = 1;
nodes = (
"328 703 LINE",
"328 741 LINE",
"374 751 OFFCURVE",
"399 777 OFFCURVE",
"399 819 CURVE SMOOTH",
"399 880 OFFCURVE",
"359 901 OFFCURVE",
"298 901 CURVE SMOOTH",
"278 901 OFFCURVE",
"256 897 OFFCURVE",
"243 892 CURVE",
"243 851 LINE",
"256 855 OFFCURVE",
"273 859 OFFCURVE",
"291 859 CURVE SMOOTH",
"336 859 OFFCURVE",
"356 851 OFFCURVE",
"356 819 CURVE SMOOTH",
"356 788 OFFCURVE",
"341 769 OFFCURVE",
"284 769 CURVE",
"284 703 LINE"
);
}
);
width = 646;
}
);
leftKerningGroup = U;
note = Uhookabove;
rightKerningGroup = U;
unicode = 1EE6;
},
{
glyphname = Uhorn;
lastChange = "2015-08-02 14:20:19 +0000";
layers = (
{
layerId = "645D555E-8173-41F2-AA70-2E5F00C66FC5";
name = Light;
paths = (
{
closed = 1;
nodes = (
"480 -15 OFFCURVE",
"552 64 OFFCURVE",
"552 177 CURVE SMOOTH",
"552 526 LINE",
"643 528 OFFCURVE",
"679 578 OFFCURVE",
"679 656 CURVE SMOOTH",
"679 689 LINE",
"626 689 LINE",
"626 656 LINE SMOOTH",
"626 601 OFFCURVE",
"612 570 OFFCURVE",
"552 568 CURVE",
"552 647 LINE",
"440 647 LINE",
"440 605 LINE",
"465 605 LINE SMOOTH",
"490 605 OFFCURVE",
"499 596 OFFCURVE",
"499 569 CURVE SMOOTH",
"499 170 LINE SMOOTH",
"499 76 OFFCURVE",
"438 28 OFFCURVE",
"323 28 CURVE SMOOTH",
"208 28 OFFCURVE",
"147 76 OFFCURVE",
"147 170 CURVE SMOOTH",
"147 569 LINE SMOOTH",
"147 596 OFFCURVE",
"156 605 OFFCURVE",
"181 605 CURVE SMOOTH",
"206 605 LINE",
"206 647 LINE",
"35 647 LINE",
"35 605 LINE",
"60 605 LINE SMOOTH",
"85 605 OFFCURVE",
"94 596 OFFCURVE",
"94 569 CURVE SMOOTH",
"94 177 LINE SMOOTH",
"94 64 OFFCURVE",
"166 -15 OFFCURVE",
"323 -15 CURVE SMOOTH"
);
}
);
width = 689;
}
);
leftKerningGroup = U;
note = Uhorn;
rightKerningGroup = U;
unicode = 01AF;
},
{
glyphname = Uhornacute;
lastChange = "2015-08-02 14:20:19 +0000";
layers = (
{
layerId = "645D555E-8173-41F2-AA70-2E5F00C66FC5";
name = Light;
paths = (
{
closed = 1;
nodes = (
"480 -15 OFFCURVE",
"552 64 OFFCURVE",
"552 177 CURVE SMOOTH",
"552 526 LINE",
"643 528 OFFCURVE",
"679 578 OFFCURVE",
"679 656 CURVE SMOOTH",
"679 689 LINE",
"626 689 LINE",
"626 656 LINE SMOOTH",
"626 601 OFFCURVE",
"612 570 OFFCURVE",
"552 568 CURVE",
"552 647 LINE",
"440 647 LINE",
"440 605 LINE",
"465 605 LINE SMOOTH",
"490 605 OFFCURVE",
"499 596 OFFCURVE",
"499 569 CURVE SMOOTH",
"499 170 LINE SMOOTH",
"499 76 OFFCURVE",
"438 28 OFFCURVE",
"323 28 CURVE SMOOTH",
"208 28 OFFCURVE",
"147 76 OFFCURVE",
"147 170 CURVE SMOOTH",
"147 569 LINE SMOOTH",
"147 596 OFFCURVE",
"156 605 OFFCURVE",
"181 605 CURVE SMOOTH",
"206 605 LINE",
"206 647 LINE",
"35 647 LINE",
"35 605 LINE",
"60 605 LINE SMOOTH",
"85 605 OFFCURVE",
"94 596 OFFCURVE",
"94 569 CURVE SMOOTH",
"94 177 LINE SMOOTH",
"94 64 OFFCURVE",
"166 -15 OFFCURVE",
"323 -15 CURVE SMOOTH"
);
},
{
closed = 1;
nodes = (
"339 703 LINE",
"455 881 LINE",
"376 881 LINE",
"291 703 LINE"
);
}
);
width = 689;
}
);
leftKerningGroup = U;
note = Uhornacute;
rightKerningGroup = U;
unicode = 1EE8;
},
{
glyphname = Uhorndotbelow;
lastChange = "2015-08-02 14:20:19 +0000";
layers = (
{
layerId = "645D555E-8173-41F2-AA70-2E5F00C66FC5";
name = Light;
paths = (
{
closed = 1;
nodes = (
"480 -15 OFFCURVE",
"552 64 OFFCURVE",
"552 177 CURVE SMOOTH",
"552 526 LINE",
"643 528 OFFCURVE",
"679 578 OFFCURVE",
"679 656 CURVE SMOOTH",
"679 689 LINE",
"626 689 LINE",
"626 656 LINE SMOOTH",
"626 601 OFFCURVE",
"612 570 OFFCURVE",
"552 568 CURVE",
"552 647 LINE",
"440 647 LINE",
"440 605 LINE",
"465 605 LINE SMOOTH",
"490 605 OFFCURVE",
"499 596 OFFCURVE",
"499 569 CURVE SMOOTH",
"499 170 LINE SMOOTH",
"499 76 OFFCURVE",
"438 28 OFFCURVE",
"323 28 CURVE SMOOTH",
"208 28 OFFCURVE",
"147 76 OFFCURVE",
"147 170 CURVE SMOOTH",
"147 569 LINE SMOOTH",
"147 596 OFFCURVE",
"156 605 OFFCURVE",
"181 605 CURVE SMOOTH",
"206 605 LINE",
"206 647 LINE",
"35 647 LINE",
"35 605 LINE",
"60 605 LINE SMOOTH",
"85 605 OFFCURVE",
"94 596 OFFCURVE",
"94 569 CURVE SMOOTH",
"94 177 LINE SMOOTH",
"94 64 OFFCURVE",
"166 -15 OFFCURVE",
"323 -15 CURVE SMOOTH"
);
},
{
closed = 1;
nodes = (
"354 -132 LINE",
"354 -64 LINE",
"286 -64 LINE",
"286 -132 LINE"
);
}
);
width = 689;
}
);
leftKerningGroup = U;
note = Uhorndotbelow;
rightKerningGroup = U;
unicode = 1EF0;
},
{
glyphname = Uhorngrave;
lastChange = "2015-08-02 14:20:19 +0000";
layers = (
{
layerId = "645D555E-8173-41F2-AA70-2E5F00C66FC5";
name = Light;
paths = (
{
closed = 1;
nodes = (
"480 -15 OFFCURVE",
"552 64 OFFCURVE",
"552 177 CURVE SMOOTH",
"552 526 LINE",
"643 528 OFFCURVE",
"679 578 OFFCURVE",
"679 656 CURVE SMOOTH",
"679 689 LINE",
"626 689 LINE",
"626 656 LINE SMOOTH",
"626 601 OFFCURVE",
"612 570 OFFCURVE",
"552 568 CURVE",
"552 647 LINE",
"440 647 LINE",
"440 605 LINE",
"465 605 LINE SMOOTH",
"490 605 OFFCURVE",
"499 596 OFFCURVE",
"499 569 CURVE SMOOTH",
"499 170 LINE SMOOTH",
"499 76 OFFCURVE",
"438 28 OFFCURVE",
"323 28 CURVE SMOOTH",
"208 28 OFFCURVE",
"147 76 OFFCURVE",
"147 170 CURVE SMOOTH",
"147 569 LINE SMOOTH",
"147 596 OFFCURVE",
"156 605 OFFCURVE",
"181 605 CURVE SMOOTH",
"206 605 LINE",
"206 647 LINE",
"35 647 LINE",
"35 605 LINE",
"60 605 LINE SMOOTH",
"85 605 OFFCURVE",
"94 596 OFFCURVE",
"94 569 CURVE SMOOTH",
"94 177 LINE SMOOTH",
"94 64 OFFCURVE",
"166 -15 OFFCURVE",
"323 -15 CURVE SMOOTH"
);
},
{
closed = 1;
nodes = (
"367 703 LINE",
"282 881 LINE",
"203 881 LINE",
"319 703 LINE"
);
}
);
width = 689;
}
);
leftKerningGroup = U;
note = Uhorngrave;
rightKerningGroup = U;
unicode = 1EEA;
},
{
glyphname = Uhornhookabove;
lastChange = "2015-08-02 14:20:20 +0000";
layers = (
{
layerId = "645D555E-8173-41F2-AA70-2E5F00C66FC5";
name = Light;
paths = (
{
closed = 1;
nodes = (
"480 -15 OFFCURVE",
"552 64 OFFCURVE",
"552 177 CURVE SMOOTH",
"552 526 LINE",
"643 528 OFFCURVE",
"679 578 OFFCURVE",
"679 656 CURVE SMOOTH",
"679 689 LINE",
"626 689 LINE",
"626 656 LINE SMOOTH",
"626 601 OFFCURVE",
"612 570 OFFCURVE",
"552 568 CURVE",
"552 647 LINE",
"440 647 LINE",
"440 605 LINE",
"465 605 LINE SMOOTH",
"490 605 OFFCURVE",
"499 596 OFFCURVE",
"499 569 CURVE SMOOTH",
"499 170 LINE SMOOTH",
"499 76 OFFCURVE",
"438 28 OFFCURVE",
"323 28 CURVE SMOOTH",
"208 28 OFFCURVE",
"147 76 OFFCURVE",
"147 170 CURVE SMOOTH",
"147 569 LINE SMOOTH",
"147 596 OFFCURVE",
"156 605 OFFCURVE",
"181 605 CURVE SMOOTH",
"206 605 LINE",
"206 647 LINE",
"35 647 LINE",
"35 605 LINE",
"60 605 LINE SMOOTH",
"85 605 OFFCURVE",
"94 596 OFFCURVE",
"94 569 CURVE SMOOTH",
"94 177 LINE SMOOTH",
"94 64 OFFCURVE",
"166 -15 OFFCURVE",
"323 -15 CURVE SMOOTH"
);
},
{
closed = 1;
nodes = (
"332 703 LINE",
"332 741 LINE",
"378 751 OFFCURVE",
"403 777 OFFCURVE",
"403 819 CURVE SMOOTH",
"403 880 OFFCURVE",
"363 901 OFFCURVE",
"302 901 CURVE SMOOTH",
"282 901 OFFCURVE",
"260 897 OFFCURVE",
"247 892 CURVE",
"247 851 LINE",
"260 855 OFFCURVE",
"277 859 OFFCURVE",
"295 859 CURVE SMOOTH",
"340 859 OFFCURVE",
"360 851 OFFCURVE",
"360 819 CURVE SMOOTH",
"360 788 OFFCURVE",
"345 769 OFFCURVE",
"288 769 CURVE",
"288 703 LINE"
);
}
);
width = 689;
}
);
leftKerningGroup = U;
note = Uhornhookabove;
rightKerningGroup = U;
unicode = 1EEC;
},
{
glyphname = Uhorntilde;
lastChange = "2015-08-02 14:20:20 +0000";
layers = (
{
layerId = "645D555E-8173-41F2-AA70-2E5F00C66FC5";
name = Light;
paths = (
{
closed = 1;
nodes = (
"480 -15 OFFCURVE",
"552 64 OFFCURVE",
"552 177 CURVE SMOOTH",
"552 526 LINE",
"643 528 OFFCURVE",
"679 578 OFFCURVE",
"679 656 CURVE SMOOTH",
"679 689 LINE",
"626 689 LINE",
"626 656 LINE SMOOTH",
"626 601 OFFCURVE",
"612 570 OFFCURVE",
"552 568 CURVE",
"552 647 LINE",
"440 647 LINE",
"440 605 LINE",
"465 605 LINE SMOOTH",
"490 605 OFFCURVE",
"499 596 OFFCURVE",
"499 569 CURVE SMOOTH",
"499 170 LINE SMOOTH",
"499 76 OFFCURVE",
"438 28 OFFCURVE",
"323 28 CURVE SMOOTH",
"208 28 OFFCURVE",
"147 76 OFFCURVE",
"147 170 CURVE SMOOTH",
"147 569 LINE SMOOTH",
"147 596 OFFCURVE",
"156 605 OFFCURVE",
"181 605 CURVE SMOOTH",
"206 605 LINE",
"206 647 LINE",
"35 647 LINE",
"35 605 LINE",
"60 605 LINE SMOOTH",
"85 605 OFFCURVE",
"94 596 OFFCURVE",
"94 569 CURVE SMOOTH",
"94 177 LINE SMOOTH",
"94 64 OFFCURVE",
"166 -15 OFFCURVE",
"323 -15 CURVE SMOOTH"
);
},
{
closed = 1;
nodes = (
"212 703 LINE",
"212 752 OFFCURVE",
"228 762 OFFCURVE",
"257 762 CURVE SMOOTH",
"317 762 OFFCURVE",
"358 703 OFFCURVE",
"424 703 CURVE SMOOTH",
"482 703 OFFCURVE",
"516 734 OFFCURVE",
"516 808 CURVE",
"469 808 LINE",
"469 759 OFFCURVE",
"453 749 OFFCURVE",
"424 749 CURVE SMOOTH",
"371 749 OFFCURVE",
"328 808 OFFCURVE",
"257 808 CURVE SMOOTH",
"199 808 OFFCURVE",
"165 777 OFFCURVE",
"165 703 CURVE"
);
}
);
width = 689;
}
);
leftKerningGroup = U;
note = Uhorntilde;
rightKerningGroup = U;
unicode = 1EEE;
},
{
glyphname = Uhungarumlaut;
lastChange = "2015-08-02 14:20:19 +0000";
layers = (
{
layerId = "645D555E-8173-41F2-AA70-2E5F00C66FC5";
name = Light;
paths = (
{
closed = 1;
nodes = (
"480 -15 OFFCURVE",
"552 64 OFFCURVE",
"552 177 CURVE SMOOTH",
"552 569 LINE SMOOTH",
"552 596 OFFCURVE",
"561 605 OFFCURVE",
"586 605 CURVE SMOOTH",
"611 605 LINE",
"611 647 LINE",
"440 647 LINE",
"440 605 LINE",
"465 605 LINE SMOOTH",
"490 605 OFFCURVE",
"499 596 OFFCURVE",
"499 569 CURVE SMOOTH",
"499 170 LINE SMOOTH",
"499 76 OFFCURVE",
"438 28 OFFCURVE",
"323 28 CURVE SMOOTH",
"208 28 OFFCURVE",
"147 76 OFFCURVE",
"147 170 CURVE SMOOTH",
"147 569 LINE SMOOTH",
"147 596 OFFCURVE",
"156 605 OFFCURVE",
"181 605 CURVE SMOOTH",
"206 605 LINE",
"206 647 LINE",
"35 647 LINE",
"35 605 LINE",
"60 605 LINE SMOOTH",
"85 605 OFFCURVE",
"94 596 OFFCURVE",
"94 569 CURVE SMOOTH",
"94 177 LINE SMOOTH",
"94 64 OFFCURVE",
"166 -15 OFFCURVE",
"323 -15 CURVE SMOOTH"
);
},
{
closed = 1;
nodes = (
"248 703 LINE",
"364 881 LINE",
"285 881 LINE",
"200 703 LINE"
);
},
{
closed = 1;
nodes = (
"414 703 LINE",
"530 881 LINE",
"451 881 LINE",
"366 703 LINE"
);
}
);
width = 646;
}
);
leftKerningGroup = U;
note = Uhungarumlaut;
rightKerningGroup = U;
unicode = 0170;
},
{
glyphname = Umacron;
lastChange = "2015-08-02 14:20:20 +0000";
layers = (
{
layerId = "645D555E-8173-41F2-AA70-2E5F00C66FC5";
name = Light;
paths = (
{
closed = 1;
nodes = (
"480 -15 OFFCURVE",
"552 64 OFFCURVE",
"552 177 CURVE SMOOTH",
"552 569 LINE SMOOTH",
"552 596 OFFCURVE",
"561 605 OFFCURVE",
"586 605 CURVE SMOOTH",
"611 605 LINE",
"611 647 LINE",
"440 647 LINE",
"440 605 LINE",
"465 605 LINE SMOOTH",
"490 605 OFFCURVE",
"499 596 OFFCURVE",
"499 569 CURVE SMOOTH",
"499 170 LINE SMOOTH",
"499 76 OFFCURVE",
"438 28 OFFCURVE",
"323 28 CURVE SMOOTH",
"208 28 OFFCURVE",
"147 76 OFFCURVE",
"147 170 CURVE SMOOTH",
"147 569 LINE SMOOTH",
"147 596 OFFCURVE",
"156 605 OFFCURVE",
"181 605 CURVE SMOOTH",
"206 605 LINE",
"206 647 LINE",
"35 647 LINE",
"35 605 LINE",
"60 605 LINE SMOOTH",
"85 605 OFFCURVE",
"94 596 OFFCURVE",
"94 569 CURVE SMOOTH",
"94 177 LINE SMOOTH",
"94 64 OFFCURVE",
"166 -15 OFFCURVE",
"323 -15 CURVE SMOOTH"
);
},
{
closed = 1;
nodes = (
"459 723 LINE",
"459 768 LINE",
"188 768 LINE",
"188 723 LINE"
);
}
);
width = 646;
}
);
leftKerningGroup = U;
note = Umacron;
rightKerningGroup = U;
unicode = 016A;
},
{
glyphname = Uogonek;
lastChange = "2015-08-02 14:20:19 +0000";
layers = (
{
layerId = "645D555E-8173-41F2-AA70-2E5F00C66FC5";
name = Light;
paths = (
{
closed = 1;
nodes = (
"480 -15 OFFCURVE",
"552 64 OFFCURVE",
"552 177 CURVE SMOOTH",
"552 569 LINE SMOOTH",
"552 596 OFFCURVE",
"561 605 OFFCURVE",
"586 605 CURVE SMOOTH",
"611 605 LINE",
"611 647 LINE",
"440 647 LINE",
"440 605 LINE",
"465 605 LINE SMOOTH",
"490 605 OFFCURVE",
"499 596 OFFCURVE",
"499 569 CURVE SMOOTH",
"499 170 LINE SMOOTH",
"499 76 OFFCURVE",
"438 28 OFFCURVE",
"323 28 CURVE SMOOTH",
"208 28 OFFCURVE",
"147 76 OFFCURVE",
"147 170 CURVE SMOOTH",
"147 569 LINE SMOOTH",
"147 596 OFFCURVE",
"156 605 OFFCURVE",
"181 605 CURVE SMOOTH",
"206 605 LINE",
"206 647 LINE",
"35 647 LINE",
"35 605 LINE",
"60 605 LINE SMOOTH",
"85 605 OFFCURVE",
"94 596 OFFCURVE",
"94 569 CURVE SMOOTH",
"94 177 LINE SMOOTH",
"94 64 OFFCURVE",
"166 -15 OFFCURVE",
"323 -15 CURVE SMOOTH"
);
},
{
closed = 1;
nodes = (
"380 -201 OFFCURVE",
"395 -198 OFFCURVE",
"409 -191 CURVE",
"409 -154 LINE",
"392 -159 OFFCURVE",
"375 -161 OFFCURVE",
"360 -161 CURVE SMOOTH",
"331 -161 OFFCURVE",
"317 -146 OFFCURVE",
"317 -106 CURVE SMOOTH",
"317 -65 OFFCURVE",
"335 -30 OFFCURVE",
"368 0 CURVE",
"323 0 LINE",
"292 -30 OFFCURVE",
"274 -64 OFFCURVE",
"274 -106 CURVE SMOOTH",
"274 -170 OFFCURVE",
"308 -201 OFFCURVE",
"360 -201 CURVE SMOOTH"
);
}
);
width = 646;
}
);
leftKerningGroup = U;
note = Uogonek;
rightKerningGroup = U;
unicode = 0172;
},
